SplineFontDB: 3.0
FontName: Luna-SemiBoldItalic
FullName: Luna Semi Bold Italic
FamilyName: Luna Semi Bold
Weight: Semibold
Copyright: Copyright (c) 2013 - 2016, Juan Pablo del Peral [huertatipografica.com.ar], Cristiano Sobral [cssobral2013@gmail.com].
Version: 1.501;PS 001.000;hotconv 1.0.70;makeotf.lib2.5.58329 DEVELOPMENT
ItalicAngle: -7
UnderlinePosition: -278
UnderlineWidth: 94
Ascent: 1638
Descent: 410
sfntRevision: 0x00010000
LayerCount: 2
Layer: 0 1 "Back"  1
Layer: 1 1 "Fore"  0
XUID: [1021 633 1153022450 13029687]
FSType: 4
OS2Version: 3
OS2_WeightWidthSlopeOnly: 0
OS2_UseTypoMetrics: 1
CreationTime: 1386077766
ModificationTime: 1462129737
PfmFamily: 81
TTFWeight: 600
TTFWidth: 5
LineGap: 0
VLineGap: 0
Panose: 0 0 6 0 0 0 0 0 0 0
OS2TypoAscent: 1638
OS2TypoAOffset: 0
OS2TypoDescent: -410
OS2TypoDOffset: 0
OS2TypoLinegap: 0
OS2WinAscent: 2312
OS2WinAOffset: 0
OS2WinDescent: 633
OS2WinDOffset: 0
HheadAscent: 2312
HheadAOffset: 0
HheadDescent: -633
HheadDOffset: 0
OS2SubXSize: 1331
OS2SubYSize: 1229
OS2SubXOff: -18
OS2SubYOff: 154
OS2SupXSize: 1331
OS2SupYSize: 1229
OS2SupXOff: 88
OS2SupYOff: 717
OS2StrikeYSize: 94
OS2StrikeYPos: 565
OS2Vendor: 'UKWN'
OS2CodePages: 20000193.00000000
OS2UnicodeRanges: 20000007.00000000.00000000.00000000
Lookup: 1 0 0 "'aalt' Access All Alternates lookup 0"  {"'aalt' Access All Alternates lookup 0 subtable"  } ['aalt' ('DFLT' <'dflt' > 'grek' <'dflt' > 'latn' <'CAT ' 'ESP ' 'MOL ' 'NLD ' 'ROM ' 'TRK ' 'dflt' > ) ]
Lookup: 3 0 0 "'aalt' Access All Alternates lookup 1"  {"'aalt' Access All Alternates lookup 1 subtable"  } ['aalt' ('DFLT' <'dflt' > 'grek' <'dflt' > 'latn' <'CAT ' 'ESP ' 'MOL ' 'NLD ' 'ROM ' 'TRK ' 'dflt' > ) ]
Lookup: 6 0 0 "'locl' Localized Forms in Latin lookup 2"  {"'locl' Localized Forms in Latin lookup 2 contextual 0"  "'locl' Localized Forms in Latin lookup 2 contextual 1"  } ['locl' ('latn' <'CAT ' > ) ]

StartChar: exclam
Encoding: 33 33 4
Width: 603
GlyphClass: 2
Flags: W
LayerCount: 2
Fore
SplineSet
559 1477 m 1,0,-1
 380 509 l 1,1,-1
 248 493 l 1,2,-1
 228 518 l 1,3,-1
 339 1469 l 1,4,-1
 364 1494 l 1,5,-1
 536 1505 l 1,6,-1
 559 1477 l 1,0,-1
269 236 m 0,7,8
 323 236 323 236 353.5 204 c 128,-1,9
 384 172 384 172 384 115 c 0,10,11
 384 77 384 77 369 48.5 c 128,-1,12
 354 20 354 20 325.5 4.5 c 128,-1,13
 297 -11 297 -11 259 -11 c 0,14,15
 202 -11 202 -11 171.5 20 c 128,-1,16
 141 51 141 51 141 109 c 256,17,18
 141 167 141 167 175 201.5 c 128,-1,19
 209 236 209 236 269 236 c 0,7,8
EndSplineSet
EndChar

StartChar: quotedbl
Encoding: 34 34 5
Width: 694
GlyphClass: 2
Flags: W
LayerCount: 2
Fore
SplineSet
425 1436 m 1,0,-1
 306 993 l 1,1,-1
 195 978 l 1,2,-1
 180 993 l 1,3,-1
 241 1441 l 1,4,-1
 412 1455 l 1,5,-1
 425 1436 l 1,0,-1
714 1436 m 1,6,-1
 596 993 l 1,7,-1
 484 978 l 1,8,-1
 468 993 l 1,9,-1
 529 1441 l 1,10,-1
 703 1455 l 1,11,-1
 714 1436 l 1,6,-1
EndSplineSet
EndChar

StartChar: numbersign
Encoding: 35 35 6
Width: 1195
GlyphClass: 2
Flags: W
LayerCount: 2
Fore
SplineSet
885 823 m 1,0,-1
 830 568 l 1,1,-1
 1059 568 l 1,2,-1
 1073 553 l 1,3,-1
 1061 434 l 1,4,-1
 800 434 l 1,5,-1
 723 73 l 1,6,-1
 596 73 l 1,7,-1
 582 89 l 1,8,-1
 655 434 l 1,9,-1
 414 434 l 1,10,-1
 336 73 l 1,11,-1
 206 73 l 1,12,-1
 195 89 l 1,13,-1
 269 434 l 1,14,-1
 61 434 l 1,15,-1
 46 451 l 1,16,-1
 54 568 l 1,17,-1
 297 568 l 1,18,-1
 352 823 l 1,19,-1
 139 823 l 1,20,-1
 123 839 l 1,21,-1
 134 955 l 1,22,-1
 380 955 l 1,23,-1
 455 1305 l 1,24,-1
 582 1305 l 1,25,-1
 596 1284 l 1,26,-1
 525 955 l 1,27,-1
 766 955 l 1,28,-1
 841 1305 l 1,29,-1
 968 1305 l 1,30,-1
 985 1284 l 1,31,-1
 914 955 l 1,32,-1
 1137 955 l 1,33,-1
 1152 941 l 1,34,-1
 1139 823 l 1,35,-1
 885 823 l 1,0,-1
739 823 m 1,36,-1
 498 823 l 1,37,-1
 443 568 l 1,38,-1
 684 568 l 1,39,-1
 739 823 l 1,36,-1
EndSplineSet
EndChar

StartChar: dollar
Encoding: 36 36 7
Width: 985
GlyphClass: 2
Flags: W
LayerCount: 2
Fore
SplineSet
841 916 m 1,0,-1
 809 907 l 1,1,2
 723 980 723 980 629 998 c 1,3,-1
 582 636 l 1,4,5
 628 615 628 615 658.5 598.5 c 128,-1,6
 689 582 689 582 727 555 c 128,-1,7
 765 528 765 528 787.5 499.5 c 128,-1,8
 810 471 810 471 825.5 430.5 c 128,-1,9
 841 390 841 390 841 343 c 0,10,11
 841 285 841 285 818.5 229.5 c 128,-1,12
 796 174 796 174 754 127 c 128,-1,13
 712 80 712 80 646.5 45 c 128,-1,14
 581 10 581 10 501 -4 c 1,15,-1
 464 -297 l 1,16,-1
 354 -297 l 1,17,-1
 336 -278 l 1,18,-1
 369 -13 l 1,19,20
 182 -5 182 -5 50 61 c 1,21,-1
 91 245 l 1,22,-1
 115 256 l 1,23,24
 168 202 168 202 240.5 169.5 c 128,-1,25
 313 137 313 137 384 130 c 1,26,-1
 434 498 l 1,27,28
 400 514 400 514 377 525 c 128,-1,29
 354 536 354 536 322.5 553.5 c 128,-1,30
 291 571 291 571 270.5 587.5 c 128,-1,31
 250 604 250 604 227.5 627 c 128,-1,32
 205 650 205 650 191.5 674.5 c 128,-1,33
 178 699 178 699 169.5 730.5 c 128,-1,34
 161 762 161 762 161 798 c 0,35,36
 161 924 161 924 258 1021.5 c 128,-1,37
 355 1119 355 1119 518 1141 c 1,38,-1
 555 1457 l 1,39,-1
 664 1457 l 1,40,-1
 684 1436 l 1,41,-1
 646 1143 l 1,42,43
 785 1136 785 1136 889 1091 c 1,44,-1
 841 916 l 1,0,-1
345 832 m 0,45,46
 345 790 345 790 375 757.5 c 128,-1,47
 405 725 405 725 460 694 c 1,48,-1
 501 993 l 1,49,50
 429 977 429 977 387 931.5 c 128,-1,51
 345 886 345 886 345 832 c 0,45,46
657 304 m 0,52,53
 657 380 657 380 557 438 c 1,54,-1
 518 143 l 1,55,56
 583 165 583 165 620 209 c 128,-1,57
 657 253 657 253 657 304 c 0,52,53
EndSplineSet
EndChar

StartChar: percent
Encoding: 37 37 8
Width: 1911
GlyphClass: 2
Flags: W
LayerCount: 2
Fore
SplineSet
1603 1491 m 1,0,-1
 1614 1457 l 1,1,-1
 341 -206 l 1,2,-1
 252 -150 l 1,3,-1
 243 -123 l 1,4,-1
 1518 1548 l 1,5,-1
 1603 1491 l 1,0,-1
555 1469 m 0,6,7
 695 1469 695 1469 768 1387.5 c 128,-1,8
 841 1306 841 1306 841 1152 c 0,9,10
 841 920 841 920 735 789.5 c 128,-1,11
 629 659 629 659 432 659 c 0,12,13
 293 659 293 659 219 742 c 128,-1,14
 145 825 145 825 145 976 c 0,15,16
 145 1090 145 1090 172 1181.5 c 128,-1,17
 199 1273 199 1273 251 1337 c 128,-1,18
 303 1401 303 1401 380 1435 c 128,-1,19
 457 1469 457 1469 555 1469 c 0,6,7
523 1321 m 0,20,21
 409 1321 409 1321 350 1238.5 c 128,-1,22
 291 1156 291 1156 291 1002 c 0,23,24
 291 902 291 902 333 851 c 128,-1,25
 375 800 375 800 457 800 c 0,26,27
 577 800 577 800 635.5 883 c 128,-1,28
 694 966 694 966 694 1119 c 0,29,30
 694 1218 694 1218 650.5 1269.5 c 128,-1,31
 607 1321 607 1321 523 1321 c 0,20,21
1527 798 m 0,32,33
 1620 798 1620 798 1684 761.5 c 128,-1,34
 1748 725 1748 725 1781 654.5 c 128,-1,35
 1814 584 1814 584 1814 482 c 0,36,37
 1814 249 1814 249 1708.5 119 c 128,-1,38
 1603 -11 1603 -11 1405 -11 c 0,39,40
 1266 -11 1266 -11 1192.5 71.5 c 128,-1,41
 1119 154 1119 154 1119 306.5 c 128,-1,42
 1119 459 1119 459 1165.5 569 c 128,-1,43
 1212 679 1212 679 1304.5 738.5 c 128,-1,44
 1397 798 1397 798 1527 798 c 0,32,33
1496 650 m 0,45,46
 1383 650 1383 650 1323.5 568.5 c 128,-1,47
 1264 487 1264 487 1264 334 c 0,48,49
 1264 130 1264 130 1430 130 c 0,50,51
 1549 130 1549 130 1607.5 212 c 128,-1,52
 1666 294 1666 294 1666 445 c 0,53,54
 1666 650 1666 650 1496 650 c 0,45,46
EndSplineSet
EndChar

StartChar: ampersand
Encoding: 38 38 9
Width: 1458
GlyphClass: 2
Flags: W
LayerCount: 2
Fore
SplineSet
770 1480 m 0,0,1
 942 1480 942 1480 1132 1403 c 1,2,-1
 1076 1223 l 1,3,-1
 1043 1214 l 1,4,5
 877 1314 877 1314 729 1314 c 0,6,7
 601 1314 601 1314 530.5 1251.5 c 128,-1,8
 460 1189 460 1189 460 1071 c 0,9,10
 460 998 460 998 486 945 c 128,-1,11
 512 892 512 892 561 863 c 128,-1,12
 610 834 610 834 679 830 c 1,13,-1
 1282 861 l 1,14,-1
 1516 894 l 1,15,-1
 1536 861 l 1,16,-1
 1496 712 l 1,17,-1
 1126 694 l 1,18,-1
 1121 682 l 1,19,20
 1180 592 1180 592 1180 460 c 0,21,22
 1180 382 1180 382 1158 311.5 c 128,-1,23
 1136 241 1136 241 1089.5 180 c 128,-1,24
 1043 119 1043 119 977 75 c 128,-1,25
 911 31 911 31 817 5.5 c 128,-1,26
 723 -20 723 -20 612 -20 c 0,27,28
 460 -20 460 -20 349 24 c 128,-1,29
 238 68 238 68 179.5 149.5 c 128,-1,30
 121 231 121 231 121 341 c 0,31,32
 121 468 121 468 203.5 570.5 c 128,-1,33
 286 673 286 673 451 744 c 1,34,-1
 451 753 l 1,35,36
 362 800 362 800 314 881.5 c 128,-1,37
 266 963 266 963 266 1071 c 0,38,39
 266 1257 266 1257 400 1368.5 c 128,-1,40
 534 1480 534 1480 770 1480 c 0,0,1
900 684 m 1,41,-1
 582 673 l 1,42,43
 336 558 336 558 336 369 c 0,44,45
 336 259 336 259 416.5 196.5 c 128,-1,46
 497 134 497 134 638 134 c 0,47,48
 810 134 810 134 901.5 223.5 c 128,-1,49
 993 313 993 313 993 460 c 0,50,51
 993 531 993 531 969 589.5 c 128,-1,52
 945 648 945 648 900 684 c 1,41,-1
EndSplineSet
EndChar

StartChar: quotesingle
Encoding: 39 39 10
Width: 406
GlyphClass: 2
Flags: W
LayerCount: 2
Fore
SplineSet
425 1436 m 1,0,-1
 306 993 l 1,1,-1
 195 978 l 1,2,-1
 180 993 l 1,3,-1
 241 1441 l 1,4,-1
 412 1455 l 1,5,-1
 425 1436 l 1,0,-1
EndSplineSet
Substitution2: "'locl' Localized Forms in Latin lookup 12 subtable" puso
Substitution2: "'locl' Localized Forms in Latin lookup 10 subtable" puso
Substitution2: "'aalt' Access All Alternates lookup 0 subtable" puso
EndChar

StartChar: parenleft
Encoding: 40 40 11
Width: 658
GlyphClass: 2
Flags: W
LayerCount: 2
Fore
SplineSet
735 1432 m 1,0,-1
 731 1414 l 1,1,2
 659 1361 659 1361 599.5 1290 c 128,-1,3
 540 1219 540 1219 498 1143 c 128,-1,4
 456 1067 456 1067 424 979.5 c 128,-1,5
 392 892 392 892 373 810.5 c 128,-1,6
 354 729 354 729 341.5 641.5 c 128,-1,7
 329 554 329 554 325 484 c 128,-1,8
 321 414 321 414 321 345 c 0,9,10
 321 143 321 143 367.5 9.5 c 128,-1,11
 414 -124 414 -124 529 -230 c 1,12,-1
 527 -248 l 1,13,-1
 436 -321 l 1,14,-1
 416 -321 l 1,15,16
 316 -239 316 -239 256 -144.5 c 128,-1,17
 196 -50 196 -50 168.5 68.5 c 128,-1,18
 141 187 141 187 141 347 c 0,19,20
 141 428 141 428 147 508.5 c 128,-1,21
 153 589 153 589 168 683.5 c 128,-1,22
 183 778 183 778 207.5 866 c 128,-1,23
 232 954 232 954 271 1046.5 c 128,-1,24
 310 1139 310 1139 361 1219 c 128,-1,25
 412 1299 412 1299 484 1374 c 128,-1,26
 556 1449 556 1449 642 1505 c 1,27,-1
 662 1505 l 1,28,-1
 735 1432 l 1,0,-1
EndSplineSet
EndChar

StartChar: parenright
Encoding: 41 41 12
Width: 660
GlyphClass: 2
Flags: W
LayerCount: 2
Fore
SplineSet
-57 -248 m 1,0,-1
 -54 -230 l 1,1,2
 18 -177 18 -177 78 -105.5 c 128,-1,3
 138 -34 138 -34 179.5 41.5 c 128,-1,4
 221 117 221 117 253.5 205 c 128,-1,5
 286 293 286 293 305 374.5 c 128,-1,6
 324 456 324 456 336.5 543.5 c 128,-1,7
 349 631 349 631 353 701.5 c 128,-1,8
 357 772 357 772 357 841 c 0,9,10
 357 1041 357 1041 310.5 1174.5 c 128,-1,11
 264 1308 264 1308 148 1414 c 1,12,-1
 150 1432 l 1,13,-1
 239 1505 l 1,14,-1
 259 1505 l 1,15,16
 409 1383 409 1383 472.5 1229.5 c 128,-1,17
 536 1076 536 1076 536 837 c 0,18,19
 536 756 536 756 530 676 c 128,-1,20
 524 596 524 596 509 501.5 c 128,-1,21
 494 407 494 407 469.5 319 c 128,-1,22
 445 231 445 231 406 138.5 c 128,-1,23
 367 46 367 46 316 -34.5 c 128,-1,24
 265 -115 265 -115 193.5 -189.5 c 128,-1,25
 122 -264 122 -264 37 -321 c 1,26,-1
 16 -321 l 1,27,-1
 -57 -248 l 1,0,-1
EndSplineSet
EndChar

StartChar: asterisk
Encoding: 42 42 13
Width: 859
GlyphClass: 2
Flags: W
LayerCount: 2
Fore
SplineSet
638 1657 m 1,0,-1
 582 1384 l 1,1,-1
 498 1373 l 1,2,-1
 484 1391 l 1,3,-1
 480 1651 l 1,4,5
 551 1675 551 1675 629 1675 c 1,6,-1
 638 1657 l 1,0,-1
453 1358 m 1,7,-1
 441 1273 l 1,8,-1
 421 1264 l 1,9,-1
 189 1341 l 1,10,11
 189 1433 189 1433 209 1494 c 1,12,-1
 230 1498 l 1,13,-1
 453 1358 l 1,7,-1
618 1362 m 1,14,-1
 846 1446 l 1,15,16
 896 1376 896 1376 914 1308 c 1,17,-1
 905 1295 l 1,18,-1
 646 1264 l 1,19,-1
 609 1341 l 1,20,-1
 618 1362 l 1,14,-1
634 1221 m 1,21,-1
 777 1011 l 1,22,23
 741 955 741 955 670 902 c 1,24,-1
 653 905 l 1,25,-1
 553 1167 l 1,26,-1
 612 1223 l 1,27,-1
 634 1221 l 1,21,-1
507 1182 m 1,28,-1
 509 1159 l 1,29,-1
 377 946 l 1,30,31
 320 963 320 963 236 1013 c 1,32,-1
 236 1032 l 1,33,-1
 434 1221 l 1,34,-1
 507 1182 l 1,28,-1
EndSplineSet
EndChar

StartChar: plus
Encoding: 43 43 14
Width: 1083
GlyphClass: 2
Flags: W
LayerCount: 2
Fore
SplineSet
686 1063 m 1,0,-1
 636 675 l 1,1,-1
 1023 675 l 1,2,-1
 1041 659 l 1,3,-1
 1009 523 l 1,4,-1
 618 523 l 1,5,-1
 571 130 l 1,6,-1
 432 118 l 1,7,-1
 418 134 l 1,8,-1
 464 523 l 1,9,-1
 75 523 l 1,10,-1
 63 538 l 1,11,-1
 93 675 l 1,12,-1
 482 675 l 1,13,-1
 532 1069 l 1,14,-1
 670 1082 l 1,15,-1
 686 1063 l 1,0,-1
EndSplineSet
EndChar

StartChar: comma
Encoding: 44 44 15
Width: 519
GlyphClass: 2
Flags: W
LayerCount: 2
Fore
SplineSet
241 232 m 1,0,1
 339 165 339 165 339 65 c 0,2,3
 339 -99 339 -99 104 -269 c 1,4,-1
 30 -202 l 1,5,-1
 30 -184 l 1,6,7
 154 -85 154 -85 154 22 c 0,8,9
 154 88 154 88 84 141 c 1,10,-1
 84 161 l 1,11,12
 164 211 164 211 241 232 c 1,0,1
EndSplineSet
EndChar

StartChar: hyphen
Encoding: 45 45 16
Width: 694
GlyphClass: 2
Flags: W
LayerCount: 2
Fore
SplineSet
650 677 m 1,0,-1
 632 538 l 1,1,-1
 78 460 l 1,2,-1
 59 477 l 1,3,-1
 78 618 l 1,4,-1
 632 696 l 1,5,-1
 650 677 l 1,0,-1
EndSplineSet
EndChar

StartChar: period
Encoding: 46 46 17
Width: 522
GlyphClass: 2
Flags: W
LayerCount: 2
Fore
SplineSet
216 236 m 0,0,1
 271 236 271 236 301.5 204 c 128,-1,2
 332 172 332 172 332 115 c 0,3,4
 332 77 332 77 317 48.5 c 128,-1,5
 302 20 302 20 273.5 4.5 c 128,-1,6
 245 -11 245 -11 206 -11 c 0,7,8
 150 -11 150 -11 119.5 20 c 128,-1,9
 89 51 89 51 89 109 c 256,10,11
 89 167 89 167 123 201.5 c 128,-1,12
 157 236 157 236 216 236 c 0,0,1
EndSplineSet
EndChar

StartChar: slash
Encoding: 47 47 18
Width: 649
GlyphClass: 2
Flags: W
LayerCount: 2
Fore
SplineSet
729 1521 m 1,0,-1
 139 -259 l 1,1,-1
 -16 -259 l 1,2,-1
 -28 -239 l 1,3,-1
 564 1544 l 1,4,-1
 714 1544 l 1,5,-1
 729 1521 l 1,0,-1
EndSplineSet
Substitution2: "'frac' Diagonal Fractions lookup 19 subtable" fraction
Substitution2: "'aalt' Access All Alternates lookup 0 subtable" fraction
EndChar

StartChar: zero
Encoding: 48 48 19
Width: 1095
GlyphClass: 2
Flags: W
LayerCount: 2
Fore
SplineSet
653 1345 m 0,0,1
 834 1345 834 1345 935.5 1208 c 128,-1,2
 1037 1071 1037 1071 1037 820 c 0,3,4
 1037 568 1037 568 972.5 379.5 c 128,-1,5
 908 191 908 191 784 86.5 c 128,-1,6
 660 -18 660 -18 491 -18 c 0,7,8
 362 -18 362 -18 273.5 43.5 c 128,-1,9
 185 105 185 105 140 222.5 c 128,-1,10
 95 340 95 340 95 509 c 0,11,12
 95 764 95 764 159 951 c 128,-1,13
 223 1138 223 1138 349.5 1241.5 c 128,-1,14
 476 1345 476 1345 653 1345 c 0,0,1
616 1139 m 0,15,16
 447 1139 447 1139 359 982.5 c 128,-1,17
 271 826 271 826 271 546 c 0,18,19
 271 365 271 365 330 271.5 c 128,-1,20
 389 178 389 178 507 178 c 0,21,22
 679 178 679 178 769 334 c 128,-1,23
 859 490 859 490 859 773 c 0,24,25
 859 954 859 954 798 1046.5 c 128,-1,26
 737 1139 737 1139 616 1139 c 0,15,16
EndSplineSet
Substitution2: "'case' Case-Sensitive Forms lookup 28 subtable" zero.lf
Substitution2: "'tnum' Tabular Numbers lookup 25 subtable" zero.tosf
Substitution2: "'lnum' Lining Figures lookup 23 subtable" zero.lf
Substitution2: "'frac' Diagonal Fractions lookup 20 subtable" zero.numr
Substitution2: "'dnom' Denominators lookup 18 subtable" zero.dnom
Substitution2: "'numr' Numerators lookup 17 subtable" zero.numr
Substitution2: "'sups' Superscript lookup 16 subtable" zerosuperior
Substitution2: "'sinf' Scientific Inferiors lookup 15 subtable" zero.sinf
AlternateSubs2: "'aalt' Access All Alternates lookup 1 subtable" zero.sinf zerosuperior zero.numr zero.dnom zero.lf zero.tosf
EndChar

StartChar: one
Encoding: 49 49 20
Width: 1078
GlyphClass: 2
Flags: W
LayerCount: 2
Fore
SplineSet
791 1325 m 1,0,-1
 670 471 l 1,1,-1
 627 0 l 1,2,-1
 402 0 l 1,3,-1
 468 445 l 1,4,-1
 548 1096 l 1,5,-1
 163 1019 l 1,6,-1
 145 1030 l 1,7,-1
 169 1207 l 1,8,-1
 761 1351 l 1,9,-1
 791 1325 l 1,0,-1
EndSplineSet
Substitution2: "'ss02' Style Set 2 lookup 36 subtable" arrowleft
Substitution2: "'case' Case-Sensitive Forms lookup 28 subtable" one.lf
Substitution2: "'tnum' Tabular Numbers lookup 25 subtable" one.tosf
Substitution2: "'lnum' Lining Figures lookup 23 subtable" one.lf
Substitution2: "'frac' Diagonal Fractions lookup 20 subtable" one.numr
Substitution2: "'dnom' Denominators lookup 18 subtable" one.dnom
Substitution2: "'numr' Numerators lookup 17 subtable" one.numr
Substitution2: "'sups' Superscript lookup 16 subtable" onesuperior
Substitution2: "'sinf' Scientific Inferiors lookup 15 subtable" one.sinf
AlternateSubs2: "'aalt' Access All Alternates lookup 1 subtable" one.sinf onesuperior one.numr one.dnom one.lf one.tosf arrowleft
EndChar

StartChar: two
Encoding: 50 50 21
Width: 1078
GlyphClass: 2
Flags: W
LayerCount: 2
Fore
SplineSet
614 1348 m 0,0,1
 687 1348 687 1348 751 1325 c 128,-1,2
 815 1302 815 1302 860.5 1261.5 c 128,-1,3
 906 1221 906 1221 932.5 1163.5 c 128,-1,4
 959 1106 959 1106 959 1039 c 0,5,6
 959 995 959 995 946.5 951.5 c 128,-1,7
 934 908 934 908 911.5 865 c 128,-1,8
 889 822 889 822 845 764 c 128,-1,9
 801 706 801 706 752 648.5 c 128,-1,10
 703 591 703 591 623 503 c 1,11,-1
 343 186 l 1,12,-1
 345 175 l 1,13,-1
 768 175 l 1,14,-1
 980 193 l 1,15,-1
 991 173 l 1,16,-1
 941 -9 l 1,17,-1
 684 0 l 1,18,-1
 134 0 l 1,19,-1
 46 -4 l 1,20,-1
 34 4 l 1,21,-1
 50 143 l 1,22,-1
 432 559 l 2,23,24
 485 617 485 617 519 655 c 128,-1,25
 553 693 553 693 591.5 739 c 128,-1,26
 630 785 630 785 653 818 c 128,-1,27
 676 851 676 851 696.5 887 c 128,-1,28
 717 923 717 923 726 954 c 128,-1,29
 735 985 735 985 735 1013 c 0,30,31
 735 1077 735 1077 694 1117 c 128,-1,32
 653 1157 653 1157 575 1157 c 0,33,34
 489 1157 489 1157 399 1109.5 c 128,-1,35
 309 1062 309 1062 225 973 c 1,36,-1
 200 973 l 1,37,-1
 184 1148 l 1,38,39
 402 1348 402 1348 614 1348 c 0,0,1
EndSplineSet
Substitution2: "'ss02' Style Set 2 lookup 36 subtable" arrowup
Substitution2: "'case' Case-Sensitive Forms lookup 28 subtable" two.lf
Substitution2: "'tnum' Tabular Numbers lookup 25 subtable" two.tosf
Substitution2: "'lnum' Lining Figures lookup 23 subtable" two.lf
Substitution2: "'frac' Diagonal Fractions lookup 20 subtable" two.numr
Substitution2: "'dnom' Denominators lookup 18 subtable" two.dnom
Substitution2: "'numr' Numerators lookup 17 subtable" two.numr
Substitution2: "'sups' Superscript lookup 16 subtable" twosuperior
Substitution2: "'sinf' Scientific Inferiors lookup 15 subtable" two.sinf
AlternateSubs2: "'aalt' Access All Alternates lookup 1 subtable" two.sinf twosuperior two.numr two.dnom two.lf two.tosf arrowup
EndChar

StartChar: three
Encoding: 51 51 22
Width: 1081
GlyphClass: 2
Flags: W
LayerCount: 2
Fore
SplineSet
579 1353 m 0,0,1
 746 1353 746 1353 842.5 1278 c 128,-1,2
 939 1203 939 1203 939 1078 c 0,3,4
 939 979 939 979 870 882.5 c 128,-1,5
 801 786 801 786 666 723 c 1,6,-1
 666 714 l 1,7,8
 744 692 744 692 796 656 c 128,-1,9
 848 620 848 620 876.5 564.5 c 128,-1,10
 905 509 905 509 905 434 c 0,11,12
 905 308 905 308 829 205.5 c 128,-1,13
 753 103 753 103 619.5 45 c 128,-1,14
 486 -13 486 -13 321 -13 c 0,15,16
 188 -13 188 -13 78 11 c 1,17,-1
 89 200 l 1,18,-1
 107 219 l 1,19,20
 226 159 226 159 341 159 c 0,21,22
 497 159 497 159 593 230 c 128,-1,23
 689 301 689 301 689 421 c 0,24,25
 689 476 689 476 662 516.5 c 128,-1,26
 635 557 635 557 580.5 580 c 128,-1,27
 526 603 526 603 447 605 c 1,28,-1
 302 605 l 1,29,-1
 291 620 l 1,30,-1
 316 773 l 1,31,-1
 421 775 l 2,32,33
 467 776 467 776 517.5 795.5 c 128,-1,34
 568 815 568 815 610 847.5 c 128,-1,35
 652 880 652 880 679.5 928.5 c 128,-1,36
 707 977 707 977 707 1030 c 0,37,38
 707 1097 707 1097 663 1135 c 128,-1,39
 619 1173 619 1173 541 1173 c 0,40,41
 470 1173 470 1173 398 1141.5 c 128,-1,42
 326 1110 326 1110 241 1046 c 1,43,-1
 219 1046 l 1,44,-1
 206 1214 l 1,45,46
 306 1286 306 1286 395 1319.5 c 128,-1,47
 484 1353 484 1353 579 1353 c 0,0,1
EndSplineSet
Substitution2: "'ss02' Style Set 2 lookup 36 subtable" arrowright
Substitution2: "'case' Case-Sensitive Forms lookup 28 subtable" three.lf
Substitution2: "'tnum' Tabular Numbers lookup 25 subtable" three.tosf
Substitution2: "'lnum' Lining Figures lookup 23 subtable" three.lf
Substitution2: "'frac' Diagonal Fractions lookup 20 subtable" three.numr
Substitution2: "'dnom' Denominators lookup 18 subtable" three.dnom
Substitution2: "'numr' Numerators lookup 17 subtable" three.numr
Substitution2: "'sups' Superscript lookup 16 subtable" threesuperior
Substitution2: "'sinf' Scientific Inferiors lookup 15 subtable" three.sinf
AlternateSubs2: "'aalt' Access All Alternates lookup 1 subtable" three.sinf threesuperior three.numr three.dnom three.lf three.tosf arrowright
EndChar

StartChar: four
Encoding: 52 52 23
Width: 1078
GlyphClass: 2
Flags: W
LayerCount: 2
Fore
SplineSet
976 360 m 1,0,-1
 777 366 l 1,1,-1
 744 13 l 1,2,-1
 727 -2 l 1,3,-1
 559 -16 l 1,4,-1
 548 0 l 1,5,-1
 601 366 l 1,6,-1
 206 366 l 1,7,-1
 46 360 l 1,8,-1
 34 380 l 1,9,-1
 50 523 l 1,10,-1
 696 1332 l 1,11,-1
 898 1332 l 1,12,-1
 796 534 l 1,13,-1
 993 534 l 1,14,-1
 1005 514 l 1,15,-1
 976 360 l 1,0,-1
243 534 m 1,16,-1
 625 534 l 1,17,-1
 692 1076 l 1,18,-1
 675 1076 l 1,19,-1
 243 534 l 1,16,-1
EndSplineSet
Substitution2: "'ss02' Style Set 2 lookup 36 subtable" arrowdown
Substitution2: "'case' Case-Sensitive Forms lookup 28 subtable" four.lf
Substitution2: "'tnum' Tabular Numbers lookup 25 subtable" four.tosf
Substitution2: "'lnum' Lining Figures lookup 23 subtable" four.lf
Substitution2: "'frac' Diagonal Fractions lookup 20 subtable" four.numr
Substitution2: "'dnom' Denominators lookup 18 subtable" four.dnom
Substitution2: "'numr' Numerators lookup 17 subtable" four.numr
Substitution2: "'sups' Superscript lookup 16 subtable" foursuperior
Substitution2: "'sinf' Scientific Inferiors lookup 15 subtable" four.sinf
AlternateSubs2: "'aalt' Access All Alternates lookup 1 subtable" four.sinf foursuperior four.numr four.dnom four.lf four.tosf arrowdown
EndChar

StartChar: five
Encoding: 53 53 24
Width: 1078
GlyphClass: 2
Flags: W
LayerCount: 2
Fore
SplineSet
1032 1328 m 1,0,-1
 989 1152 l 1,1,-1
 970 1137 l 1,2,-1
 789 1152 l 1,3,-1
 466 1152 l 1,4,-1
 423 832 l 1,5,-1
 568 803 l 1,6,7
 926 734 926 734 926 460 c 0,8,9
 926 380 926 380 895.5 305.5 c 128,-1,10
 865 231 865 231 809.5 171.5 c 128,-1,11
 754 112 754 112 679.5 67.5 c 128,-1,12
 605 23 605 23 511.5 -1.5 c 128,-1,13
 418 -26 418 -26 316 -26 c 0,14,15
 210 -26 210 -26 78 -2 c 1,16,-1
 84 186 l 1,17,-1
 104 204 l 1,18,19
 230 148 230 148 357 148 c 0,20,21
 518 148 518 148 616 228 c 128,-1,22
 714 308 714 308 714 432 c 0,23,24
 714 594 714 594 480 636 c 2,25,-1
 252 677 l 1,26,-1
 236 698 l 1,27,-1
 312 1308 l 1,28,-1
 347 1336 l 1,29,-1
 475 1332 l 1,30,-1
 798 1332 l 1,31,-1
 1019 1341 l 1,32,-1
 1032 1328 l 1,0,-1
EndSplineSet
Substitution2: "'ss02' Style Set 2 lookup 36 subtable" arrowupleft
Substitution2: "'case' Case-Sensitive Forms lookup 28 subtable" five.lf
Substitution2: "'tnum' Tabular Numbers lookup 25 subtable" five.tosf
Substitution2: "'lnum' Lining Figures lookup 23 subtable" five.lf
Substitution2: "'frac' Diagonal Fractions lookup 20 subtable" five.numr
Substitution2: "'dnom' Denominators lookup 18 subtable" five.dnom
Substitution2: "'numr' Numerators lookup 17 subtable" five.numr
Substitution2: "'sups' Superscript lookup 16 subtable" fivesuperior
Substitution2: "'sinf' Scientific Inferiors lookup 15 subtable" five.sinf
AlternateSubs2: "'aalt' Access All Alternates lookup 1 subtable" five.sinf fivesuperior five.numr five.dnom five.lf five.tosf arrowupleft
EndChar

StartChar: six
Encoding: 54 54 25
Width: 1078
GlyphClass: 2
Flags: W
LayerCount: 2
Fore
SplineSet
1039 1250 m 1,0,-1
 1035 1228 l 1,1,2
 498 1060 498 1060 347 731 c 1,3,-1
 362 714 l 1,4,5
 408 743 408 743 447 761.5 c 128,-1,6
 486 780 486 780 531.5 791.5 c 128,-1,7
 577 803 577 803 623 803 c 0,8,9
 725 803 725 803 806 755 c 128,-1,10
 887 707 887 707 931.5 626 c 128,-1,11
 976 545 976 545 976 447 c 0,12,13
 976 407 976 407 969 365.5 c 128,-1,14
 962 324 962 324 945.5 278 c 128,-1,15
 929 232 929 232 904.5 190 c 128,-1,16
 880 148 880 148 842.5 109.5 c 128,-1,17
 805 71 805 71 758 43 c 128,-1,18
 711 15 711 15 646.5 -1.5 c 128,-1,19
 582 -18 582 -18 507 -18 c 0,20,21
 302 -18 302 -18 194.5 98 c 128,-1,22
 87 214 87 214 87 416 c 0,23,24
 87 517 87 517 112 617 c 128,-1,25
 137 717 137 717 195.5 822.5 c 128,-1,26
 254 928 254 928 342 1021.5 c 128,-1,27
 430 1115 430 1115 563.5 1201.5 c 128,-1,28
 697 1288 697 1288 864 1351 c 1,29,-1
 878 1351 l 1,30,-1
 1039 1250 l 1,0,-1
575 644 m 0,31,32
 506 644 506 644 432 613 c 128,-1,33
 358 582 358 582 291 523 c 1,34,35
 286 458 286 458 286 427 c 0,36,37
 286 376 286 376 292 335 c 128,-1,38
 298 294 298 294 313.5 256 c 128,-1,39
 329 218 329 218 354.5 192.5 c 128,-1,40
 380 167 380 167 421 152 c 128,-1,41
 462 137 462 137 516 137 c 0,42,43
 574 137 574 137 619.5 154 c 128,-1,44
 665 171 665 171 693 198.5 c 128,-1,45
 721 226 721 226 739.5 264.5 c 128,-1,46
 758 303 758 303 765.5 342.5 c 128,-1,47
 773 382 773 382 773 425 c 0,48,49
 773 531 773 531 723 587.5 c 128,-1,50
 673 644 673 644 575 644 c 0,31,32
EndSplineSet
Substitution2: "'ss02' Style Set 2 lookup 36 subtable" arrowupright
Substitution2: "'case' Case-Sensitive Forms lookup 28 subtable" six.lf
Substitution2: "'tnum' Tabular Numbers lookup 25 subtable" six.tosf
Substitution2: "'lnum' Lining Figures lookup 23 subtable" six.lf
Substitution2: "'frac' Diagonal Fractions lookup 20 subtable" six.numr
Substitution2: "'dnom' Denominators lookup 18 subtable" six.dnom
Substitution2: "'numr' Numerators lookup 17 subtable" six.numr
Substitution2: "'sups' Superscript lookup 16 subtable" sixsuperior
Substitution2: "'sinf' Scientific Inferiors lookup 15 subtable" six.sinf
AlternateSubs2: "'aalt' Access All Alternates lookup 1 subtable" six.sinf sixsuperior six.numr six.dnom six.lf six.tosf arrowupright
EndChar

StartChar: seven
Encoding: 55 55 26
Width: 1081
GlyphClass: 2
Flags: W
LayerCount: 2
Fore
SplineSet
427 1332 m 1,0,-1
 970 1332 l 1,1,-1
 1076 1336 l 1,2,-1
 1059 1173 l 1,3,-1
 498 259 l 1,4,-1
 347 -34 l 1,5,-1
 173 20 l 1,6,-1
 163 57 l 1,7,-1
 841 1148 l 1,8,-1
 369 1148 l 1,9,-1
 178 1130 l 1,10,-1
 163 1150 l 1,11,-1
 200 1339 l 1,12,-1
 427 1332 l 1,0,-1
EndSplineSet
Substitution2: "'ss02' Style Set 2 lookup 36 subtable" arrowdownright
Substitution2: "'case' Case-Sensitive Forms lookup 28 subtable" seven.lf
Substitution2: "'tnum' Tabular Numbers lookup 25 subtable" seven.tosf
Substitution2: "'lnum' Lining Figures lookup 23 subtable" seven.lf
Substitution2: "'frac' Diagonal Fractions lookup 20 subtable" seven.numr
Substitution2: "'dnom' Denominators lookup 18 subtable" seven.dnom
Substitution2: "'numr' Numerators lookup 17 subtable" seven.numr
Substitution2: "'sups' Superscript lookup 16 subtable" sevensuperior
Substitution2: "'sinf' Scientific Inferiors lookup 15 subtable" seven.sinf
AlternateSubs2: "'aalt' Access All Alternates lookup 1 subtable" seven.sinf sevensuperior seven.numr seven.dnom seven.lf seven.tosf arrowdownright
EndChar

StartChar: eight
Encoding: 56 56 27
Width: 1081
GlyphClass: 2
Flags: W
LayerCount: 2
Fore
SplineSet
632 1348 m 0,0,1
 797 1348 797 1348 895 1266.5 c 128,-1,2
 993 1185 993 1185 993 1041 c 0,3,4
 993 977 993 977 972.5 923 c 128,-1,5
 952 869 952 869 914.5 828 c 128,-1,6
 877 787 877 787 835.5 758 c 128,-1,7
 794 729 794 729 741 703 c 1,8,-1
 739 692 l 1,9,10
 772 674 772 674 797 659 c 128,-1,11
 822 644 822 644 849.5 623 c 128,-1,12
 877 602 877 602 896 578 c 128,-1,13
 915 554 915 554 931 524.5 c 128,-1,14
 947 495 947 495 955 458 c 128,-1,15
 963 421 963 421 963 377 c 0,16,17
 963 204 963 204 834 93 c 128,-1,18
 705 -18 705 -18 495 -18 c 0,19,20
 370 -18 370 -18 275.5 24 c 128,-1,21
 181 66 181 66 130.5 141 c 128,-1,22
 80 216 80 216 80 314 c 0,23,24
 80 360 80 360 90.5 400.5 c 128,-1,25
 101 441 101 441 122 473.5 c 128,-1,26
 143 506 143 506 169 533 c 128,-1,27
 195 560 195 560 231 584.5 c 128,-1,28
 267 609 267 609 301 627.5 c 128,-1,29
 335 646 335 646 380 666 c 1,30,-1
 382 677 l 1,31,32
 341 701 341 701 312 724.5 c 128,-1,33
 283 748 283 748 256 782 c 128,-1,34
 229 816 229 816 215.5 862 c 128,-1,35
 202 908 202 908 202 966 c 0,36,37
 202 1135 202 1135 321 1241.5 c 128,-1,38
 440 1348 440 1348 632 1348 c 0,0,1
625 1193 m 0,39,40
 518 1193 518 1193 451 1135 c 128,-1,41
 384 1077 384 1077 384 985 c 0,42,43
 384 939 384 939 398.5 904 c 128,-1,44
 413 869 413 869 443.5 843 c 128,-1,45
 474 817 474 817 505.5 799.5 c 128,-1,46
 537 782 537 782 586 761 c 1,47,48
 636 784 636 784 672.5 805.5 c 128,-1,49
 709 827 709 827 744 858 c 128,-1,50
 779 889 779 889 797.5 930 c 128,-1,51
 816 971 816 971 816 1021 c 0,52,53
 816 1103 816 1103 766.5 1148 c 128,-1,54
 717 1193 717 1193 625 1193 c 0,39,40
532 603 m 1,55,56
 483 585 483 585 451 571 c 128,-1,57
 419 557 419 557 381 534 c 128,-1,58
 343 511 343 511 321 486 c 128,-1,59
 299 461 299 461 284 424 c 128,-1,60
 269 387 269 387 269 343 c 0,61,62
 269 246 269 246 329.5 190 c 128,-1,63
 390 134 390 134 501 134 c 0,64,65
 623 134 623 134 701 200.5 c 128,-1,66
 779 267 779 267 779 364 c 0,67,68
 779 396 779 396 771.5 422.5 c 128,-1,69
 764 449 764 449 746.5 471 c 128,-1,70
 729 493 729 493 710 510 c 128,-1,71
 691 527 691 527 659 544 c 128,-1,72
 627 561 627 561 600.5 573 c 128,-1,73
 574 585 574 585 532 603 c 1,55,56
EndSplineSet
Substitution2: "'ss02' Style Set 2 lookup 36 subtable" arrowdownleft
Substitution2: "'case' Case-Sensitive Forms lookup 28 subtable" eight.lf
Substitution2: "'tnum' Tabular Numbers lookup 25 subtable" eight.tosf
Substitution2: "'lnum' Lining Figures lookup 23 subtable" eight.lf
Substitution2: "'frac' Diagonal Fractions lookup 20 subtable" eight.numr
Substitution2: "'dnom' Denominators lookup 18 subtable" eight.dnom
Substitution2: "'numr' Numerators lookup 17 subtable" eight.numr
Substitution2: "'sups' Superscript lookup 16 subtable" eightsuperior
Substitution2: "'sinf' Scientific Inferiors lookup 15 subtable" eight.sinf
AlternateSubs2: "'aalt' Access All Alternates lookup 1 subtable" eight.sinf eightsuperior eight.numr eight.dnom eight.lf eight.tosf arrowdownleft
EndChar

StartChar: nine
Encoding: 57 57 28
Width: 1078
GlyphClass: 2
Flags: W
LayerCount: 2
Fore
SplineSet
620 1351 m 0,0,1
 825 1351 825 1351 933 1234.5 c 128,-1,2
 1041 1118 1041 1118 1041 916 c 0,3,4
 1041 815 1041 815 1016 715 c 128,-1,5
 991 615 991 615 932 510 c 128,-1,6
 873 405 873 405 785 311.5 c 128,-1,7
 697 218 697 218 563 131.5 c 128,-1,8
 429 45 429 45 262 -18 c 1,9,-1
 250 -18 l 1,10,-1
 89 82 l 1,11,-1
 91 104 l 1,12,13
 626 272 626 272 777 601 c 1,14,-1
 764 618 l 1,15,16
 717 589 717 589 678 570.5 c 128,-1,17
 639 552 639 552 594 540.5 c 128,-1,18
 549 529 549 529 503 529 c 0,19,20
 401 529 401 529 319.5 577 c 128,-1,21
 238 625 238 625 194 706 c 128,-1,22
 150 787 150 787 150 885 c 0,23,24
 150 912 150 912 153.5 941 c 128,-1,25
 157 970 157 970 164 1001.5 c 128,-1,26
 171 1033 171 1033 183 1064 c 128,-1,27
 195 1095 195 1095 211 1125.5 c 128,-1,28
 227 1156 227 1156 249.5 1184.5 c 128,-1,29
 272 1213 272 1213 298.5 1238 c 128,-1,30
 325 1263 325 1263 359.5 1283.5 c 128,-1,31
 394 1304 394 1304 432.5 1319 c 128,-1,32
 471 1334 471 1334 519 1342.5 c 128,-1,33
 567 1351 567 1351 620 1351 c 0,0,1
553 689 m 0,34,35
 621 689 621 689 694.5 719.5 c 128,-1,36
 768 750 768 750 835 809 c 1,37,38
 839 874 839 874 839 905 c 0,39,40
 839 956 839 956 833 997 c 128,-1,41
 827 1038 827 1038 811.5 1076 c 128,-1,42
 796 1114 796 1114 771 1139.5 c 128,-1,43
 746 1165 746 1165 705 1180 c 128,-1,44
 664 1195 664 1195 609 1195 c 0,45,46
 552 1195 552 1195 506.5 1178 c 128,-1,47
 461 1161 461 1161 432.5 1133.5 c 128,-1,48
 404 1106 404 1106 385.5 1067.5 c 128,-1,49
 367 1029 367 1029 359.5 989.5 c 128,-1,50
 352 950 352 950 352 907 c 0,51,52
 352 802 352 802 403 745.5 c 128,-1,53
 454 689 454 689 553 689 c 0,34,35
EndSplineSet
Substitution2: "'case' Case-Sensitive Forms lookup 28 subtable" nine.lf
Substitution2: "'tnum' Tabular Numbers lookup 25 subtable" nine.tosf
Substitution2: "'lnum' Lining Figures lookup 23 subtable" nine.lf
Substitution2: "'frac' Diagonal Fractions lookup 20 subtable" nine.numr
Substitution2: "'dnom' Denominators lookup 18 subtable" nine.dnom
Substitution2: "'numr' Numerators lookup 17 subtable" nine.numr
Substitution2: "'sups' Superscript lookup 16 subtable" ninesuperior
Substitution2: "'sinf' Scientific Inferiors lookup 15 subtable" nine.sinf
AlternateSubs2: "'aalt' Access All Alternates lookup 1 subtable" nine.sinf ninesuperior nine.numr nine.dnom nine.lf nine.tosf
EndChar

StartChar: colon
Encoding: 58 58 29
Width: 519
GlyphClass: 2
Flags: W
LayerCount: 2
Fore
SplineSet
289 844 m 0,0,1
 343 844 343 844 374 812 c 128,-1,2
 405 780 405 780 405 725 c 0,3,4
 405 665 405 665 371.5 630.5 c 128,-1,5
 338 596 338 596 280 596 c 0,6,7
 223 596 223 596 192 627.5 c 128,-1,8
 161 659 161 659 161 716 c 0,9,10
 161 775 161 775 195 809.5 c 128,-1,11
 229 844 229 844 289 844 c 0,0,1
214 236 m 0,12,13
 269 236 269 236 299.5 204 c 128,-1,14
 330 172 330 172 330 115 c 0,15,16
 330 77 330 77 315 48.5 c 128,-1,17
 300 20 300 20 271.5 4.5 c 128,-1,18
 243 -11 243 -11 204 -11 c 0,19,20
 147 -11 147 -11 117 20 c 128,-1,21
 87 51 87 51 87 109 c 256,22,23
 87 167 87 167 121 201.5 c 128,-1,24
 155 236 155 236 214 236 c 0,12,13
EndSplineSet
EndChar

StartChar: semicolon
Encoding: 59 59 30
Width: 519
GlyphClass: 2
Flags: W
LayerCount: 2
Fore
SplineSet
284 844 m 0,0,1
 340 844 340 844 370 812.5 c 128,-1,2
 400 781 400 781 400 725 c 0,3,4
 400 665 400 665 367 630.5 c 128,-1,5
 334 596 334 596 278 596 c 0,6,7
 239 596 239 596 211.5 610.5 c 128,-1,8
 184 625 184 625 170.5 651.5 c 128,-1,9
 157 678 157 678 157 716 c 0,10,11
 157 774 157 774 191.5 809 c 128,-1,12
 226 844 226 844 284 844 c 0,0,1
236 232 m 1,13,14
 332 164 332 164 332 65 c 0,15,16
 332 -102 332 -102 98 -269 c 1,17,-1
 26 -202 l 1,18,-1
 26 -184 l 1,19,20
 150 -85 150 -85 150 22 c 0,21,22
 150 89 150 89 78 141 c 1,23,-1
 80 161 l 1,24,25
 159 211 159 211 236 232 c 1,13,14
EndSplineSet
EndChar

StartChar: less
Encoding: 60 60 31
Width: 1128
GlyphClass: 2
Flags: W
LayerCount: 2
Fore
SplineSet
1052 932 m 1,0,-1
 1041 911 l 1,1,-1
 252 609 l 1,2,-1
 252 596 l 1,3,-1
 968 310 l 1,4,-1
 920 184 l 1,5,-1
 896 169 l 1,6,-1
 78 507 l 1,7,-1
 98 689 l 1,8,-1
 118 712 l 1,9,-1
 1021 1059 l 1,10,-1
 1052 932 l 1,0,-1
EndSplineSet
EndChar

StartChar: equal
Encoding: 61 61 32
Width: 1085
GlyphClass: 2
Flags: W
LayerCount: 2
Fore
SplineSet
1067 857 m 1,0,-1
 1052 718 l 1,1,-1
 118 718 l 1,2,-1
 102 735 l 1,3,-1
 115 870 l 1,4,-1
 1048 870 l 1,5,-1
 1067 857 l 1,0,-1
1016 462 m 1,6,-1
 1005 325 l 1,7,-1
 68 325 l 1,8,-1
 54 339 l 1,9,-1
 65 475 l 1,10,-1
 998 475 l 1,11,-1
 1016 462 l 1,6,-1
EndSplineSet
EndChar

StartChar: greater
Encoding: 62 62 33
Width: 1143
GlyphClass: 2
Flags: W
LayerCount: 2
Fore
SplineSet
1067 712 m 1,0,-1
 1080 689 l 1,1,-1
 1059 507 l 1,2,-1
 152 169 l 1,3,-1
 132 184 l 1,4,-1
 115 310 l 1,5,-1
 905 596 l 1,6,-1
 905 609 l 1,7,-1
 191 911 l 1,8,-1
 184 932 l 1,9,-1
 248 1059 l 1,10,-1
 1067 712 l 1,0,-1
EndSplineSet
EndChar

StartChar: question
Encoding: 63 63 34
Width: 761
GlyphClass: 2
Flags: W
LayerCount: 2
Fore
SplineSet
269 1496 m 1,0,-1
 293 1510 l 1,1,2
 557 1495 557 1495 698 1409 c 128,-1,3
 839 1323 839 1323 839 1178 c 0,4,5
 839 1112 839 1112 811 1050.5 c 128,-1,6
 783 989 783 989 730.5 936.5 c 128,-1,7
 678 884 678 884 603 841 c 1,8,-1
 407 725 l 1,9,-1
 402 716 l 1,10,-1
 388 507 l 1,11,-1
 232 486 l 1,12,-1
 216 505 l 1,13,-1
 230 770 l 1,14,-1
 243 794 l 1,15,-1
 473 916 l 2,16,17
 511 936 511 936 540.5 960.5 c 128,-1,18
 570 985 570 985 591 1012.5 c 128,-1,19
 612 1040 612 1040 623 1071 c 128,-1,20
 634 1102 634 1102 634 1134 c 0,21,22
 634 1231 634 1231 534.5 1285.5 c 128,-1,23
 435 1340 435 1340 225 1353 c 1,24,-1
 211 1375 l 1,25,-1
 269 1496 l 1,0,-1
291 236 m 0,26,27
 346 236 346 236 376.5 204 c 128,-1,28
 407 172 407 172 407 115 c 0,29,30
 407 57 407 57 373.5 23 c 128,-1,31
 340 -11 340 -11 282 -11 c 0,32,33
 225 -11 225 -11 194 20 c 128,-1,34
 163 51 163 51 163 109 c 256,35,36
 163 167 163 167 197 201.5 c 128,-1,37
 231 236 231 236 291 236 c 0,26,27
EndSplineSet
EndChar

StartChar: at
Encoding: 64 64 35
Width: 1888
GlyphClass: 2
Flags: W
LayerCount: 2
Fore
SplineSet
1828 689 m 0,0,1
 1828 365 1828 365 1620.5 185 c 128,-1,2
 1413 5 1413 5 1028 -7 c 1,3,-1
 1089 423 l 1,4,-1
 1063 423 l 1,5,6
 908 157 908 157 729 -18 c 1,7,-1
 694 -18 l 1,8,9
 501 80 501 80 501 345 c 0,10,11
 501 438 501 438 521.5 529.5 c 128,-1,12
 542 621 542 621 586.5 708 c 128,-1,13
 631 795 631 795 693.5 865.5 c 128,-1,14
 756 936 756 936 845.5 987 c 128,-1,15
 935 1038 935 1038 1041 1057 c 1,16,-1
 1052 1057 l 1,17,-1
 1204 1005 l 1,18,-1
 1332 1059 l 1,19,-1
 1355 1046 l 1,20,-1
 1243 252 l 1,21,-1
 1239 152 l 1,22,23
 1447 180 1447 180 1562 319 c 128,-1,24
 1677 458 1677 458 1677 682 c 0,25,26
 1677 815 1677 815 1631.5 925 c 128,-1,27
 1586 1035 1586 1035 1502.5 1112 c 128,-1,28
 1419 1189 1419 1189 1297.5 1230 c 128,-1,29
 1176 1271 1176 1271 1028 1269 c 0,30,31
 850 1266 850 1266 700 1204 c 128,-1,32
 550 1142 550 1142 446.5 1035 c 128,-1,33
 343 928 343 928 285.5 778 c 128,-1,34
 228 628 228 628 228 453 c 0,35,36
 228 271 228 271 290 123.5 c 128,-1,37
 352 -24 352 -24 465.5 -123.5 c 128,-1,38
 579 -223 579 -223 739.5 -276.5 c 128,-1,39
 900 -330 900 -330 1096 -330 c 1,40,-1
 1104 -352 l 1,41,-1
 1039 -460 l 1,42,43
 823 -457 823 -457 645 -395.5 c 128,-1,44
 467 -334 467 -334 340.5 -221.5 c 128,-1,45
 214 -109 214 -109 144.5 56.5 c 128,-1,46
 75 222 75 222 75 425 c 0,47,48
 75 638 75 638 145.5 820.5 c 128,-1,49
 216 1003 216 1003 342.5 1133.5 c 128,-1,50
 469 1264 469 1264 652 1338 c 128,-1,51
 835 1412 835 1412 1052 1412 c 0,52,53
 1226 1412 1226 1412 1370.5 1360.5 c 128,-1,54
 1515 1309 1515 1309 1616 1215.5 c 128,-1,55
 1717 1122 1717 1122 1772.5 987 c 128,-1,56
 1828 852 1828 852 1828 689 c 0,0,1
750 200 m 0,57,58
 770 200 770 200 809.5 238 c 128,-1,59
 849 276 849 276 900.5 345.5 c 128,-1,60
 952 415 952 415 1016.5 532.5 c 128,-1,61
 1081 650 1081 650 1141 789 c 1,62,-1
 1143 807 l 1,63,-1
 1146 841 l 1,64,-1
 1002 894 l 1,65,66
 905 894 905 894 831.5 828.5 c 128,-1,67
 758 763 758 763 721 653.5 c 128,-1,68
 684 544 684 544 684 407 c 0,69,70
 684 349 684 349 690 306.5 c 128,-1,71
 696 264 696 264 706 242 c 128,-1,72
 716 220 716 220 727 210 c 128,-1,73
 738 200 738 200 750 200 c 0,57,58
EndSplineSet
EndChar

StartChar: A
Encoding: 65 65 36
Width: 1274
GlyphClass: 2
Flags: W
AnchorPoint: "Anchor-1" 0 0 basechar 0
AnchorPoint: "Anchor-0" 761 1459 basechar 0
LayerCount: 2
Fore
SplineSet
1171 0 m 1,0,-1
 946 0 l 1,1,-1
 930 161 l 1,2,-1
 894 371 l 1,3,-1
 601 377 l 1,4,-1
 334 373 l 1,5,-1
 243 171 l 1,6,-1
 184 0 l 1,7,-1
 -37 0 l 1,8,-1
 642 1460 l 1,9,-1
 902 1460 l 1,10,-1
 1171 0 l 1,0,-1
864 555 m 1,11,-1
 748 1237 l 1,12,-1
 729 1237 l 1,13,-1
 421 557 l 1,14,-1
 638 553 l 1,15,-1
 864 555 l 1,11,-1
EndSplineSet
Position2: "'cpsp' Capital Spacing lookup 0 subtable" dx=16 dy=0 dh=33 dv=0
EndChar

StartChar: B
Encoding: 66 66 37
Width: 1208
GlyphClass: 2
Flags: W
LayerCount: 2
Fore
SplineSet
870 759 m 1,0,1
 1000 716 1000 716 1061.5 643 c 128,-1,2
 1123 570 1123 570 1123 455 c 0,3,4
 1123 227 1123 227 960.5 109 c 128,-1,5
 798 -9 798 -9 473 -9 c 0,6,7
 256 -9 256 -9 132 0 c 1,8,-1
 130 0 l 1,9,-1
 198 438 l 1,10,-1
 314 1460 l 1,11,-1
 735 1462 l 2,12,13
 857 1462 857 1462 944.5 1427 c 128,-1,14
 1032 1392 1032 1392 1080 1321.5 c 128,-1,15
 1128 1251 1128 1251 1128 1150 c 0,16,17
 1128 1013 1128 1013 1060.5 911.5 c 128,-1,18
 993 810 993 810 870 759 c 1,0,1
898 1111 m 0,19,20
 898 1204 898 1204 844 1245 c 128,-1,21
 790 1286 790 1286 666 1286 c 2,22,-1
 512 1286 l 1,23,-1
 451 830 l 1,24,-1
 673 823 l 1,25,26
 898 878 898 878 898 1111 c 0,19,20
527 166 m 0,27,28
 703 166 703 166 799.5 239.5 c 128,-1,29
 896 313 896 313 896 447 c 0,30,31
 896 627 896 627 682 657 c 1,32,-1
 425 655 l 1,33,-1
 397 457 l 1,34,-1
 371 175 l 1,35,36
 480 166 480 166 527 166 c 0,27,28
EndSplineSet
Position2: "'cpsp' Capital Spacing lookup 0 subtable" dx=16 dy=0 dh=33 dv=0
EndChar

StartChar: C
Encoding: 67 67 38
Width: 1143
GlyphClass: 2
Flags: W
AnchorPoint: "Anchor-1" 693 0 basechar 0
AnchorPoint: "Anchor-0" 768 1459 basechar 0
LayerCount: 2
Fore
SplineSet
832 1473 m 0,0,1
 1052 1473 1052 1473 1204 1371 c 1,2,-1
 1137 1173 l 1,3,-1
 1117 1167 l 1,4,5
 986 1286 986 1286 805 1286 c 0,6,7
 579 1286 579 1286 456.5 1113 c 128,-1,8
 334 940 334 940 334 618 c 0,9,10
 334 401 334 401 420 287 c 128,-1,11
 506 173 506 173 668 173 c 0,12,13
 761 173 761 173 856.5 206 c 128,-1,14
 952 239 952 239 1035 300 c 1,15,-1
 1054 286 l 1,16,-1
 1009 82 l 1,17,18
 912 31 912 31 823.5 7.5 c 128,-1,19
 735 -16 735 -16 634 -16 c 0,20,21
 463 -16 463 -16 342.5 54.5 c 128,-1,22
 222 125 222 125 160 259.5 c 128,-1,23
 98 394 98 394 98 584 c 0,24,25
 98 860 98 860 184.5 1060 c 128,-1,26
 271 1260 271 1260 436.5 1366.5 c 128,-1,27
 602 1473 602 1473 832 1473 c 0,0,1
EndSplineSet
Substitution2: "Single Substitution lookup 41 subtable" C.ss01
Substitution2: "'ss01' Style Set 1 lookup 35 subtable" C.ss01
Substitution2: "'aalt' Access All Alternates lookup 0 subtable" C.ss01
Position2: "'cpsp' Capital Spacing lookup 0 subtable" dx=16 dy=0 dh=33 dv=0
EndChar

StartChar: D
Encoding: 68 68 39
Width: 1425
GlyphClass: 2
Flags: W
AnchorPoint: "Anchor-1" 0 0 basechar 0
AnchorPoint: "Anchor-0" 754 1459 basechar 0
LayerCount: 2
Fore
SplineSet
316 1460 m 1,0,-1
 825 1469 l 1,1,2
 1093 1469 1093 1469 1239.5 1320.5 c 128,-1,3
 1386 1172 1386 1172 1386 898 c 0,4,5
 1386 616 1386 616 1298 412.5 c 128,-1,6
 1210 209 1210 209 1035 98 c 128,-1,7
 860 -13 860 -13 612 -13 c 0,8,9
 387 -13 387 -13 132 0 c 1,10,-1
 130 0 l 1,11,-1
 198 438 l 1,12,-1
 314 1460 l 1,13,-1
 316 1460 l 1,0,-1
657 166 m 0,14,15
 893 166 893 166 1021.5 342 c 128,-1,16
 1150 518 1150 518 1150 859 c 0,17,18
 1150 1075 1150 1075 1063.5 1179.5 c 128,-1,19
 977 1284 977 1284 800 1284 c 0,20,21
 678 1284 678 1284 514 1275 c 1,22,-1
 397 457 l 1,23,-1
 373 182 l 1,24,25
 548 166 548 166 657 166 c 0,14,15
EndSplineSet
Substitution2: "Single Substitution lookup 41 subtable" D.ss01
Substitution2: "'ss01' Style Set 1 lookup 35 subtable" D.ss01
Substitution2: "'aalt' Access All Alternates lookup 0 subtable" D.ss01
Position2: "'cpsp' Capital Spacing lookup 0 subtable" dx=16 dy=0 dh=33 dv=0
EndChar

StartChar: E
Encoding: 69 69 40
Width: 1078
GlyphClass: 2
Flags: W
AnchorPoint: "Anchor-1" 624 0 basechar 0
AnchorPoint: "Anchor-0" 711 1459 basechar 0
LayerCount: 2
Fore
SplineSet
514 1273 m 1,0,-1
 453 837 l 1,1,-1
 707 832 l 1,2,-1
 937 839 l 1,3,-1
 948 823 l 1,4,-1
 911 650 l 1,5,-1
 666 657 l 1,6,-1
 427 653 l 1,7,-1
 400 457 l 1,8,-1
 373 184 l 1,9,-1
 644 180 l 1,10,-1
 978 191 l 1,11,-1
 985 173 l 1,12,-1
 950 0 l 1,13,-1
 130 0 l 1,14,-1
 198 438 l 1,15,-1
 314 1460 l 1,16,-1
 1137 1460 l 1,17,-1
 1148 1439 l 1,18,-1
 1109 1267 l 1,19,-1
 779 1275 l 1,20,-1
 514 1273 l 1,0,-1
EndSplineSet
Position2: "'cpsp' Capital Spacing lookup 0 subtable" dx=16 dy=0 dh=33 dv=0
EndChar

StartChar: F
Encoding: 70 70 41
Width: 967
GlyphClass: 2
Flags: W
LayerCount: 2
Fore
SplineSet
514 1273 m 1,0,-1
 447 805 l 1,1,-1
 666 800 l 1,2,-1
 900 807 l 1,3,-1
 911 787 l 1,4,-1
 872 618 l 1,5,-1
 625 625 l 1,6,-1
 423 623 l 1,7,-1
 400 457 l 1,8,-1
 354 0 l 1,9,-1
 130 0 l 1,10,-1
 198 438 l 1,11,-1
 314 1460 l 1,12,-1
 1091 1460 l 1,13,-1
 1102 1439 l 1,14,-1
 1061 1262 l 1,15,-1
 741 1275 l 1,16,-1
 514 1273 l 1,0,-1
EndSplineSet
Position2: "'cpsp' Capital Spacing lookup 0 subtable" dx=16 dy=0 dh=33 dv=0
EndChar

StartChar: G
Encoding: 71 71 42
Width: 1313
GlyphClass: 2
Flags: W
AnchorPoint: "Anchor-1" 704 0 basechar 0
AnchorPoint: "Anchor-0" 804 1459 basechar 0
LayerCount: 2
Fore
SplineSet
880 1473 m 0,0,1
 1105 1473 1105 1473 1295 1375 c 1,2,-1
 1221 1167 l 1,3,-1
 1198 1162 l 1,4,5
 1097 1230 1097 1230 1016.5 1258 c 128,-1,6
 936 1286 936 1286 837 1286 c 0,7,8
 669 1286 669 1286 555 1210 c 128,-1,9
 441 1134 441 1134 382 976.5 c 128,-1,10
 323 819 323 819 323 582 c 0,11,12
 323 368 323 368 412.5 268.5 c 128,-1,13
 502 169 502 169 692 169 c 0,14,15
 743 169 743 169 797 179.5 c 128,-1,16
 851 190 851 190 935 216 c 1,17,-1
 959 369 l 1,18,-1
 982 582 l 1,19,-1
 1191 598 l 1,20,-1
 1164 400 l 1,21,-1
 1130 70 l 1,22,23
 998 24 998 24 893 3 c 128,-1,24
 788 -18 788 -18 673 -18 c 0,25,26
 388 -18 388 -18 240.5 135 c 128,-1,27
 93 288 93 288 93 566 c 0,28,29
 93 1000 93 1000 297.5 1236.5 c 128,-1,30
 502 1473 502 1473 880 1473 c 0,0,1
EndSplineSet
Position2: "'cpsp' Capital Spacing lookup 0 subtable" dx=16 dy=0 dh=33 dv=0
EndChar

StartChar: H
Encoding: 72 72 43
Width: 1504
GlyphClass: 2
Flags: W
AnchorPoint: "Anchor-1" 0 0 basechar 0
AnchorPoint: "Anchor-0" 870 1459 basechar 0
LayerCount: 2
Fore
SplineSet
1430 1460 m 1,0,-1
 1291 457 l 1,1,-1
 1245 0 l 1,2,-1
 1023 0 l 1,3,-1
 1089 438 l 1,4,-1
 1111 642 l 1,5,-1
 750 648 l 1,6,-1
 423 642 l 1,7,-1
 397 457 l 1,8,-1
 354 0 l 1,9,-1
 130 0 l 1,10,-1
 195 438 l 1,11,-1
 312 1460 l 1,12,-1
 536 1460 l 1,13,-1
 451 832 l 1,14,-1
 791 825 l 1,15,-1
 1132 832 l 1,16,-1
 1202 1460 l 1,17,-1
 1430 1460 l 1,0,-1
EndSplineSet
Position2: "'cpsp' Capital Spacing lookup 0 subtable" dx=16 dy=0 dh=33 dv=0
EndChar

StartChar: I
Encoding: 73 73 44
Width: 612
GlyphClass: 2
Flags: W
AnchorPoint: "Anchor-1" 0 0 basechar 0
AnchorPoint: "Anchor-0" 422 1459 basechar 0
LayerCount: 2
Fore
SplineSet
397 457 m 1,0,-1
 354 0 l 1,1,-1
 130 0 l 1,2,-1
 195 438 l 1,3,-1
 312 1460 l 1,4,-1
 536 1460 l 1,5,-1
 397 457 l 1,0,-1
EndSplineSet
Substitution2: "Single Substitution lookup 41 subtable" I.ss01
Substitution2: "'ss01' Style Set 1 lookup 35 subtable" I.ss01
Substitution2: "'aalt' Access All Alternates lookup 0 subtable" I.ss01
Position2: "'cpsp' Capital Spacing lookup 0 subtable" dx=16 dy=0 dh=33 dv=0
EndChar

StartChar: J
Encoding: 74 74 45
Width: 705
GlyphClass: 2
Flags: W
AnchorPoint: "Anchor-1" 0 0 basechar 0
AnchorPoint: "Anchor-0" 414 1459 basechar 0
LayerCount: 2
Fore
SplineSet
618 1460 m 1,0,-1
 482 482 l 1,1,-1
 462 271 l 1,2,3
 439 93 439 93 335 -20.5 c 128,-1,4
 231 -134 231 -134 -4 -234 c 1,5,-1
 -68 -111 l 1,6,-1
 -65 -87 l 1,7,8
 95 -6 95 -6 167.5 73 c 128,-1,9
 240 152 240 152 254 273 c 1,10,-1
 280 462 l 1,11,-1
 371 1284 l 1,12,-1
 113 1280 l 1,13,-1
 95 1298 l 1,14,-1
 128 1460 l 1,15,-1
 618 1460 l 1,0,-1
EndSplineSet
Position2: "'cpsp' Capital Spacing lookup 0 subtable" dx=16 dy=0 dh=33 dv=0
EndChar

StartChar: K
Encoding: 75 75 46
Width: 1222
GlyphClass: 2
Flags: W
AnchorPoint: "Anchor-1" 641 0 basechar 0
AnchorPoint: "Anchor-0" 627 1459 basechar 0
LayerCount: 2
Fore
SplineSet
397 457 m 1,0,-1
 352 0 l 1,1,-1
 128 0 l 1,2,-1
 195 438 l 1,3,-1
 312 1460 l 1,4,-1
 536 1460 l 1,5,-1
 397 457 l 1,0,-1
1312 1460 m 1,6,-1
 689 766 l 1,7,8
 894 418 894 418 1175 48 c 1,9,-1
 1169 20 l 1,10,11
 1050 -8 1050 -8 948 -20 c 1,12,-1
 926 -9 l 1,13,14
 641 423 641 423 455 764 c 1,15,-1
 457 777 l 1,16,-1
 963 1328 l 1,17,-1
 1067 1460 l 1,18,-1
 1312 1460 l 1,6,-1
EndSplineSet
Position2: "'cpsp' Capital Spacing lookup 0 subtable" dx=16 dy=0 dh=33 dv=0
EndChar

StartChar: L
Encoding: 76 76 47
Width: 922
GlyphClass: 2
Flags: W
AnchorPoint: "Anchor-1" 461 0 basechar 0
AnchorPoint: "Anchor-0" 420 1459 basechar 0
LayerCount: 2
Fore
SplineSet
875 169 m 1,0,-1
 837 0 l 1,1,-1
 123 0 l 1,2,-1
 191 438 l 1,3,-1
 304 1460 l 1,4,-1
 532 1460 l 1,5,-1
 393 457 l 1,6,-1
 366 186 l 1,7,-1
 866 186 l 1,8,-1
 875 169 l 1,0,-1
EndSplineSet
Substitution2: "Single Substitution lookup 41 subtable" L.ss01
Substitution2: "'ss01' Style Set 1 lookup 35 subtable" L.ss01
Substitution2: "'aalt' Access All Alternates lookup 0 subtable" L.ss01
Position2: "'cpsp' Capital Spacing lookup 0 subtable" dx=16 dy=0 dh=33 dv=0
EndChar

StartChar: M
Encoding: 77 77 48
Width: 1729
GlyphClass: 2
Flags: W
LayerCount: 2
Fore
SplineSet
1542 0 m 1,0,-1
 1341 0 l 1,1,-1
 1371 443 l 1,2,-1
 1389 1117 l 1,3,-1
 1373 1117 l 1,4,-1
 896 163 l 1,5,-1
 716 163 l 1,6,-1
 501 1117 l 1,7,-1
 482 1117 l 1,8,-1
 336 462 l 1,9,-1
 243 0 l 1,10,-1
 57 0 l 1,11,-1
 382 1460 l 1,12,-1
 636 1460 l 1,13,-1
 675 1239 l 1,14,-1
 846 453 l 1,15,-1
 864 453 l 1,16,-1
 1248 1248 l 1,17,-1
 1341 1460 l 1,18,-1
 1594 1460 l 1,19,-1
 1542 0 l 1,0,-1
EndSplineSet
Substitution2: "Single Substitution lookup 41 subtable" M.ss01
Substitution2: "'ss01' Style Set 1 lookup 35 subtable" M.ss01
Substitution2: "'aalt' Access All Alternates lookup 0 subtable" M.ss01
Position2: "'cpsp' Capital Spacing lookup 0 subtable" dx=16 dy=0 dh=33 dv=0
EndChar

StartChar: N
Encoding: 78 78 49
Width: 1504
GlyphClass: 2
Flags: W
AnchorPoint: "Anchor-1" 691 0 basechar 0
AnchorPoint: "Anchor-0" 870 1459 basechar 0
LayerCount: 2
Fore
SplineSet
1289 434 m 1,0,-1
 1243 0 l 1,1,-1
 1007 0 l 1,2,-1
 484 1109 l 1,3,-1
 468 1109 l 1,4,-1
 388 486 l 1,5,-1
 336 0 l 1,6,-1
 130 0 l 1,7,-1
 195 432 l 1,8,-1
 316 1460 l 1,9,-1
 551 1460 l 1,10,-1
 1073 347 l 1,11,-1
 1089 347 l 1,12,-1
 1221 1449 l 1,13,-1
 1432 1464 l 1,14,-1
 1289 434 l 1,0,-1
EndSplineSet
Position2: "'cpsp' Capital Spacing lookup 0 subtable" dx=16 dy=0 dh=33 dv=0
EndChar

StartChar: O
Encoding: 79 79 50
Width: 1404
GlyphClass: 2
Flags: W
AnchorPoint: "Anchor-1" 0 0 basechar 0
AnchorPoint: "Anchor-0" 818 1459 basechar 0
LayerCount: 2
Fore
SplineSet
825 1475 m 0,0,1
 1082 1475 1082 1475 1224 1321.5 c 128,-1,2
 1366 1168 1366 1168 1366 885 c 0,3,4
 1366 608 1366 608 1282 405.5 c 128,-1,5
 1198 203 1198 203 1032 92.5 c 128,-1,6
 866 -18 866 -18 634 -18 c 0,7,8
 382 -18 382 -18 240 139.5 c 128,-1,9
 98 297 98 297 98 584 c 0,10,11
 98 861 98 861 181 1060.5 c 128,-1,12
 264 1260 264 1260 428 1367.5 c 128,-1,13
 592 1475 592 1475 825 1475 c 0,0,1
800 1291 m 0,14,15
 640 1291 640 1291 535 1213 c 128,-1,16
 430 1135 430 1135 378.5 981.5 c 128,-1,17
 327 828 327 828 327 596 c 0,18,19
 327 375 327 375 408 268 c 128,-1,20
 489 161 489 161 657 161 c 0,21,22
 1130 161 1130 161 1130 861 c 0,23,24
 1130 1081 1130 1081 1049 1186 c 128,-1,25
 968 1291 968 1291 800 1291 c 0,14,15
EndSplineSet
Position2: "'cpsp' Capital Spacing lookup 0 subtable" dx=16 dy=0 dh=33 dv=0
EndChar

StartChar: P
Encoding: 80 80 51
Width: 1167
GlyphClass: 2
Flags: W
LayerCount: 2
Fore
SplineSet
314 1460 m 1,0,-1
 761 1462 l 2,1,2
 952 1462 952 1462 1061.5 1364.5 c 128,-1,3
 1171 1267 1171 1267 1171 1078 c 0,4,5
 1171 995 1171 995 1152 919.5 c 128,-1,6
 1133 844 1133 844 1097 780 c 128,-1,7
 1061 716 1061 716 1008 663.5 c 128,-1,8
 955 611 955 611 889 574.5 c 128,-1,9
 823 538 823 538 740.5 518 c 128,-1,10
 658 498 658 498 566 498 c 2,11,-1
 405 498 l 1,12,-1
 400 457 l 1,13,-1
 354 0 l 1,14,-1
 130 0 l 1,15,-1
 198 438 l 1,16,-1
 314 1460 l 1,0,-1
430 677 m 1,17,-1
 668 670 l 1,18,19
 790 693 790 693 864.5 794 c 128,-1,20
 939 895 939 895 939 1043 c 0,21,22
 939 1161 939 1161 884 1219.5 c 128,-1,23
 829 1278 829 1278 700 1284 c 1,24,-1
 514 1278 l 1,25,-1
 430 677 l 1,17,-1
EndSplineSet
Position2: "'cpsp' Capital Spacing lookup 0 subtable" dx=16 dy=0 dh=33 dv=0
EndChar

StartChar: Q
Encoding: 81 81 52
Width: 1401
GlyphClass: 2
Flags: W
LayerCount: 2
Fore
SplineSet
1542 -266 m 1,0,-1
 1546 -293 l 1,1,2
 1502 -373 1502 -373 1443 -436 c 1,3,-1
 1425 -443 l 1,4,5
 1211 -385 1211 -385 1018 -276.5 c 128,-1,6
 825 -168 825 -168 668 -18 c 1,7,-1
 634 -18 l 2,8,9
 380 -18 380 -18 239 139.5 c 128,-1,10
 98 297 98 297 98 584 c 0,11,12
 98 791 98 791 146 956.5 c 128,-1,13
 194 1122 194 1122 285.5 1237 c 128,-1,14
 377 1352 377 1352 514 1413.5 c 128,-1,15
 651 1475 651 1475 825 1475 c 0,16,17
 1082 1475 1082 1475 1224 1321.5 c 128,-1,18
 1366 1168 1366 1168 1366 885 c 0,19,20
 1366 662 1366 662 1311 486.5 c 128,-1,21
 1256 311 1256 311 1147 191.5 c 128,-1,22
 1038 72 1038 72 882 20 c 1,23,24
 1172 -194 1172 -194 1542 -266 c 1,0,-1
327 596 m 0,25,26
 327 375 327 375 408 268 c 128,-1,27
 489 161 489 161 657 161 c 0,28,29
 1130 161 1130 161 1130 861 c 0,30,31
 1130 1081 1130 1081 1049 1186 c 128,-1,32
 968 1291 968 1291 800 1291 c 0,33,34
 640 1291 640 1291 535 1213 c 128,-1,35
 430 1135 430 1135 378.5 981.5 c 128,-1,36
 327 828 327 828 327 596 c 0,25,26
EndSplineSet
Substitution2: "Single Substitution lookup 41 subtable" Q.corta
Position2: "'cpsp' Capital Spacing lookup 0 subtable" dx=16 dy=0 dh=33 dv=0
EndChar

StartChar: R
Encoding: 82 82 53
Width: 1243
GlyphClass: 2
Flags: W
AnchorPoint: "Anchor-1" 557 0 basechar 0
AnchorPoint: "Anchor-0" 737 1459 basechar 0
LayerCount: 2
Fore
SplineSet
1173 1100 m 0,0,1
 1173 929 1173 929 1083.5 794 c 128,-1,2
 994 659 994 659 835 584 c 1,3,4
 962 320 962 320 1121 52 c 1,5,-1
 1117 28 l 1,6,7
 1006 -11 1006 -11 898 -20 c 1,8,-1
 875 -2 l 1,9,10
 731 300 731 300 644 525 c 1,11,-1
 407 525 l 1,12,-1
 397 457 l 1,13,-1
 354 0 l 1,14,-1
 130 0 l 1,15,-1
 195 438 l 1,16,-1
 314 1460 l 1,17,-1
 768 1462 l 2,18,19
 957 1462 957 1462 1065 1367 c 128,-1,20
 1173 1272 1173 1272 1173 1100 c 0,0,1
434 707 m 1,21,-1
 677 700 l 1,22,23
 939 783 939 783 939 1063 c 0,24,25
 939 1274 939 1274 700 1284 c 1,26,-1
 514 1278 l 1,27,-1
 434 707 l 1,21,-1
EndSplineSet
Position2: "'cpsp' Capital Spacing lookup 0 subtable" dx=16 dy=0 dh=33 dv=0
EndChar

StartChar: S
Encoding: 83 83 54
Width: 1054
GlyphClass: 2
Flags: W
AnchorPoint: "Anchor-1" 466 0 basechar 0
AnchorPoint: "Anchor-0" 648 1459 basechar 0
LayerCount: 2
Fore
SplineSet
698 1473 m 0,0,1
 871 1473 871 1473 1039 1403 c 1,2,-1
 978 1198 l 1,3,-1
 939 1184 l 1,4,5
 815 1293 815 1293 664 1293 c 0,6,7
 606 1293 606 1293 557 1276 c 128,-1,8
 508 1259 508 1259 475.5 1230 c 128,-1,9
 443 1201 443 1201 425 1163 c 128,-1,10
 407 1125 407 1125 407 1084 c 0,11,12
 407 1045 407 1045 426 1009.5 c 128,-1,13
 445 974 445 974 477 945.5 c 128,-1,14
 509 917 509 917 550.5 889.5 c 128,-1,15
 592 862 592 862 637.5 834.5 c 128,-1,16
 683 807 683 807 729 777.5 c 128,-1,17
 775 748 775 748 816 712 c 128,-1,18
 857 676 857 676 889 635.5 c 128,-1,19
 921 595 921 595 940 540 c 128,-1,20
 959 485 959 485 959 423 c 0,21,22
 959 332 959 332 919.5 251 c 128,-1,23
 880 170 880 170 811.5 110.5 c 128,-1,24
 743 51 743 51 645 16.5 c 128,-1,25
 547 -18 547 -18 434 -18 c 0,26,27
 336 -18 336 -18 229.5 8 c 128,-1,28
 123 34 123 34 34 82 c 1,29,-1
 91 302 l 1,30,-1
 118 316 l 1,31,32
 189 239 189 239 282 199 c 128,-1,33
 375 159 375 159 462 159 c 0,34,35
 510 159 510 159 552.5 170 c 128,-1,36
 595 181 595 181 627.5 201.5 c 128,-1,37
 660 222 660 222 683.5 249.5 c 128,-1,38
 707 277 707 277 719 310.5 c 128,-1,39
 731 344 731 344 731 380 c 0,40,41
 731 418 731 418 716 452 c 128,-1,42
 701 486 701 486 675 512 c 128,-1,43
 649 538 649 538 614 564.5 c 128,-1,44
 579 591 579 591 539.5 613.5 c 128,-1,45
 500 636 500 636 459 662.5 c 128,-1,46
 418 689 418 689 378.5 715 c 128,-1,47
 339 741 339 741 304 775 c 128,-1,48
 269 809 269 809 243 846.5 c 128,-1,49
 217 884 217 884 201.5 934 c 128,-1,50
 186 984 186 984 186 1041 c 0,51,52
 186 1114 186 1114 211 1180 c 128,-1,53
 236 1246 236 1246 282.5 1299 c 128,-1,54
 329 1352 329 1352 391.5 1391.5 c 128,-1,55
 454 1431 454 1431 533 1452 c 128,-1,56
 612 1473 612 1473 698 1473 c 0,0,1
EndSplineSet
Position2: "'cpsp' Capital Spacing lookup 0 subtable" dx=16 dy=0 dh=33 dv=0
EndChar

StartChar: T
Encoding: 84 84 55
Width: 1078
GlyphClass: 2
Flags: W
AnchorPoint: "Anchor-1" 477 0 basechar 0
AnchorPoint: "Anchor-0" 657 1459 basechar 0
LayerCount: 2
Fore
SplineSet
1154 1439 m 1,0,-1
 1117 1269 l 1,1,-1
 868 1282 l 1,2,-1
 750 1282 l 1,3,-1
 636 457 l 1,4,-1
 591 0 l 1,5,-1
 366 0 l 1,6,-1
 436 438 l 1,7,-1
 527 1282 l 1,8,-1
 410 1282 l 1,9,-1
 152 1269 l 1,10,-1
 139 1289 l 1,11,-1
 180 1460 l 1,12,-1
 1143 1460 l 1,13,-1
 1154 1439 l 1,0,-1
EndSplineSet
Position2: "'cpsp' Capital Spacing lookup 0 subtable" dx=16 dy=0 dh=33 dv=0
EndChar

StartChar: U
Encoding: 85 85 56
Width: 1377
GlyphClass: 2
Flags: W
AnchorPoint: "Anchor-1" 0 0 basechar 0
AnchorPoint: "Anchor-0" 806 1459 basechar 0
LayerCount: 2
Fore
SplineSet
1243 716 m 1,0,-1
 1223 548 l 1,1,2
 1192 276 1192 276 1040 129 c 128,-1,3
 888 -18 888 -18 627 -18 c 0,4,5
 402 -18 402 -18 275 93.5 c 128,-1,6
 148 205 148 205 148 410 c 0,7,8
 148 465 148 465 154 529 c 1,9,-1
 184 729 l 1,10,-1
 269 1460 l 1,11,-1
 488 1460 l 1,12,-1
 369 559 l 2,13,14
 362 504 362 504 362 462 c 0,15,16
 362 175 362 175 644 175 c 0,17,18
 974 175 974 175 1016 536 c 1,19,-1
 1119 1460 l 1,20,-1
 1341 1460 l 1,21,-1
 1243 716 l 1,0,-1
EndSplineSet
Position2: "'cpsp' Capital Spacing lookup 0 subtable" dx=16 dy=0 dh=33 dv=0
EndChar

StartChar: V
Encoding: 86 86 57
Width: 1245
GlyphClass: 2
Flags: W
LayerCount: 2
Fore
SplineSet
677 0 m 1,0,-1
 414 0 l 1,1,-1
 143 1460 l 1,2,-1
 371 1460 l 1,3,-1
 384 1295 l 1,4,-1
 571 219 l 1,5,-1
 584 219 l 1,6,-1
 1073 1284 l 1,7,-1
 1132 1460 l 1,8,-1
 1351 1460 l 1,9,-1
 677 0 l 1,0,-1
EndSplineSet
Substitution2: "Single Substitution lookup 41 subtable" V.ss01
Substitution2: "'ss01' Style Set 1 lookup 35 subtable" V.ss01
Substitution2: "'aalt' Access All Alternates lookup 0 subtable" V.ss01
Position2: "'cpsp' Capital Spacing lookup 0 subtable" dx=16 dy=0 dh=33 dv=0
EndChar

StartChar: W
Encoding: 87 87 58
Width: 1952
GlyphClass: 2
Flags: W
AnchorPoint: "Anchor-1" 0 0 basechar 0
AnchorPoint: "Anchor-0" 1043 1459 basechar 0
LayerCount: 2
Fore
SplineSet
1389 0 m 1,0,-1
 1157 0 l 1,1,-1
 1009 798 l 1,2,-1
 991 798 l 1,3,-1
 636 0 l 1,4,-1
 400 0 l 1,5,-1
 161 1460 l 1,6,-1
 380 1460 l 1,7,-1
 384 1308 l 1,8,-1
 557 239 l 1,9,-1
 573 239 l 1,10,-1
 952 1096 l 1,11,-1
 887 1460 l 1,12,-1
 1117 1460 l 1,13,-1
 1128 1284 l 1,14,-1
 1305 239 l 1,15,-1
 1321 239 l 1,16,-1
 1792 1293 l 1,17,-1
 1846 1460 l 1,18,-1
 2055 1460 l 1,19,-1
 1389 0 l 1,0,-1
EndSplineSet
Position2: "'cpsp' Capital Spacing lookup 0 subtable" dx=16 dy=0 dh=33 dv=0
EndChar

StartChar: X
Encoding: 88 88 59
Width: 1302
GlyphClass: 2
Flags: W
LayerCount: 2
Fore
SplineSet
818 748 m 1,0,-1
 1180 0 l 1,1,-1
 920 0 l 1,2,-1
 878 128 l 1,3,-1
 646 586 l 1,4,-1
 286 113 l 1,5,-1
 214 0 l 1,6,-1
 -18 0 l 1,7,-1
 534 744 l 1,8,-1
 182 1460 l 1,9,-1
 443 1460 l 1,10,-1
 486 1332 l 1,11,-1
 703 902 l 1,12,-1
 1028 1339 l 1,13,-1
 1100 1460 l 1,14,-1
 1339 1460 l 1,15,-1
 818 748 l 1,0,-1
EndSplineSet
Substitution2: "Single Substitution lookup 41 subtable" X.ss01
Substitution2: "'ss01' Style Set 1 lookup 35 subtable" X.ss01
Substitution2: "'aalt' Access All Alternates lookup 0 subtable" X.ss01
Position2: "'cpsp' Capital Spacing lookup 0 subtable" dx=16 dy=0 dh=33 dv=0
EndChar

StartChar: Y
Encoding: 89 89 60
Width: 1176
GlyphClass: 2
Flags: W
AnchorPoint: "Anchor-1" 0 0 basechar 0
AnchorPoint: "Anchor-0" 707 1459 basechar 0
LayerCount: 2
Fore
SplineSet
670 514 m 1,0,-1
 657 418 l 1,1,-1
 614 0 l 1,2,-1
 388 0 l 1,3,-1
 457 418 l 1,4,-1
 466 518 l 1,5,-1
 141 1460 l 1,6,-1
 373 1460 l 1,7,-1
 388 1371 l 1,8,-1
 591 750 l 1,9,-1
 612 750 l 1,10,-1
 991 1364 l 1,11,-1
 1039 1460 l 1,12,-1
 1278 1460 l 1,13,-1
 670 514 l 1,0,-1
EndSplineSet
Position2: "'cpsp' Capital Spacing lookup 0 subtable" dx=16 dy=0 dh=33 dv=0
EndChar

StartChar: Z
Encoding: 90 90 61
Width: 1167
GlyphClass: 2
Flags: W
AnchorPoint: "Anchor-1" 0 0 basechar 0
AnchorPoint: "Anchor-0" 620 1459 basechar 0
LayerCount: 2
Fore
SplineSet
1182 1295 m 1,0,-1
 293 178 l 1,1,-1
 825 178 l 1,2,-1
 1048 195 l 1,3,-1
 1057 182 l 1,4,-1
 1016 -4 l 1,5,-1
 737 0 l 1,6,-1
 148 0 l 1,7,-1
 4 -7 l 1,8,-1
 28 157 l 1,9,-1
 918 1280 l 1,10,-1
 423 1280 l 1,11,-1
 195 1262 l 1,12,-1
 186 1275 l 1,13,-1
 230 1462 l 1,14,-1
 1084 1460 l 1,15,-1
 1202 1462 l 1,16,-1
 1182 1295 l 1,0,-1
EndSplineSet
Position2: "'cpsp' Capital Spacing lookup 0 subtable" dx=16 dy=0 dh=33 dv=0
EndChar

StartChar: bracketleft
Encoding: 91 91 62
Width: 660
GlyphClass: 2
Flags: W
LayerCount: 2
Fore
SplineSet
746 1457 m 1,0,-1
 731 1355 l 1,1,-1
 468 1325 l 1,2,-1
 289 -148 l 1,3,-1
 546 -175 l 1,4,-1
 532 -280 l 1,5,-1
 518 -291 l 1,6,-1
 93 -269 l 1,7,-1
 209 588 l 1,8,-1
 302 1449 l 1,9,-1
 737 1471 l 1,10,-1
 746 1457 l 1,0,-1
EndSplineSet
EndChar

StartChar: backslash
Encoding: 92 92 63
Width: 677
GlyphClass: 2
Flags: W
LayerCount: 2
Fore
SplineSet
223 1544 m 1,0,-1
 692 -239 l 1,1,-1
 675 -259 l 1,2,-1
 523 -259 l 1,3,-1
 54 1521 l 1,4,-1
 73 1544 l 1,5,-1
 223 1544 l 1,0,-1
EndSplineSet
EndChar

StartChar: bracketright
Encoding: 93 93 64
Width: 660
GlyphClass: 2
Flags: W
LayerCount: 2
Fore
SplineSet
-68 -278 m 1,0,-1
 -54 -175 l 1,1,-1
 209 -148 l 1,2,-1
 391 1328 l 1,3,-1
 132 1355 l 1,4,-1
 145 1460 l 1,5,-1
 159 1471 l 1,6,-1
 584 1449 l 1,7,-1
 471 588 l 1,8,-1
 375 -269 l 1,9,-1
 -59 -291 l 1,10,-1
 -68 -278 l 1,0,-1
EndSplineSet
EndChar

StartChar: asciicircum
Encoding: 94 94 65
Width: 974
GlyphClass: 2
Flags: W
LayerCount: 2
Fore
SplineSet
907 314 m 1,0,-1
 889 293 l 1,1,-1
 759 262 l 1,2,-1
 559 959 l 1,3,-1
 546 959 l 1,4,-1
 159 266 l 1,5,-1
 137 254 l 1,6,-1
 16 302 l 1,7,-1
 462 1107 l 1,8,-1
 486 1121 l 1,9,-1
 668 1121 l 1,10,-1
 907 314 l 1,0,-1
EndSplineSet
EndChar

StartChar: underscore
Encoding: 95 95 66
Width: 1017
GlyphClass: 2
Flags: W
LayerCount: 2
Fore
SplineSet
961 -216 m 1,0,-1
 935 -343 l 1,1,-1
 -123 -343 l 1,2,-1
 -139 -327 l 1,3,-1
 -111 -200 l 1,4,-1
 948 -200 l 1,5,-1
 961 -216 l 1,0,-1
EndSplineSet
EndChar

StartChar: grave
Encoding: 96 96 67
Width: 885
GlyphClass: 2
Flags: W
LayerCount: 2
Fore
SplineSet
384 1603 m 1,0,-1
 407 1605 l 1,1,2
 558 1460 558 1460 794 1269 c 1,3,-1
 735 1182 l 1,4,-1
 712 1180 l 1,5,6
 529 1301 529 1301 306 1462 c 1,7,-1
 302 1484 l 1,8,-1
 384 1603 l 1,0,-1
EndSplineSet
EndChar

StartChar: a
Encoding: 97 97 68
Width: 1015
GlyphClass: 2
Flags: W
AnchorPoint: "Anchor-1" 0 0 basechar 0
AnchorPoint: "Anchor-0" 566 1047 basechar 0
LayerCount: 2
Fore
SplineSet
920 1052 m 1,0,-1
 809 252 l 1,1,-1
 800 7 l 1,2,-1
 582 -9 l 1,3,-1
 642 405 l 1,4,-1
 616 405 l 1,5,6
 467 152 467 152 297 -18 c 1,7,-1
 262 -18 l 1,8,9
 63 76 63 76 63 347 c 0,10,11
 63 439 63 439 84 530.5 c 128,-1,12
 105 622 105 622 148.5 709 c 128,-1,13
 192 796 192 796 254.5 867.5 c 128,-1,14
 317 939 317 939 406 991 c 128,-1,15
 495 1043 495 1043 601 1063 c 1,16,-1
 612 1063 l 1,17,-1
 764 1009 l 1,18,-1
 898 1067 l 1,19,-1
 920 1052 l 1,0,-1
323 211 m 0,20,21
 344 211 344 211 382 248.5 c 128,-1,22
 420 286 420 286 469.5 355.5 c 128,-1,23
 519 425 519 425 580.5 543 c 128,-1,24
 642 661 642 661 700 803 c 1,25,-1
 700 809 l 1,26,-1
 700 837 l 1,27,-1
 557 891 l 1,28,29
 466 891 466 891 398.5 827 c 128,-1,30
 331 763 331 763 296.5 654.5 c 128,-1,31
 262 546 262 546 262 410 c 0,32,33
 262 353 262 353 267 312.5 c 128,-1,34
 272 272 272 272 281 251 c 128,-1,35
 290 230 290 230 300.5 220.5 c 128,-1,36
 311 211 311 211 323 211 c 0,20,21
EndSplineSet
Substitution2: "'ss02' Style Set 2 lookup 36 subtable" left
Substitution2: "'case' Case-Sensitive Forms lookup 28 subtable" A
Substitution2: "'ordn' Ordinals lookup 22 subtable" a.sups
Substitution2: "'sups' Superscript lookup 16 subtable" a.sups
AlternateSubs2: "'aalt' Access All Alternates lookup 1 subtable" a.sups A left
EndChar

StartChar: b
Encoding: 98 98 69
Width: 1020
GlyphClass: 2
Flags: W
LayerCount: 2
Fore
SplineSet
718 1063 m 1,0,-1
 755 1063 l 1,1,2
 950 970 950 970 950 698 c 0,3,4
 950 605 950 605 929.5 513.5 c 128,-1,5
 909 422 909 422 865.5 334.5 c 128,-1,6
 822 247 822 247 760 176 c 128,-1,7
 698 105 698 105 609.5 53.5 c 128,-1,8
 521 2 521 2 416 -18 c 1,9,-1
 405 -18 l 1,10,-1
 236 18 l 1,11,-1
 100 43 l 1,12,-1
 286 1355 l 1,13,-1
 289 1584 l 1,14,-1
 507 1601 l 1,15,-1
 373 642 l 1,16,-1
 400 642 l 1,17,18
 538 884 538 884 718 1063 c 1,0,-1
316 193 m 1,19,-1
 460 152 l 1,20,21
 550 152 550 152 618 217 c 128,-1,22
 686 282 686 282 720.5 390 c 128,-1,23
 755 498 755 498 755 634 c 0,24,25
 755 691 755 691 749.5 732 c 128,-1,26
 744 773 744 773 735 795 c 128,-1,27
 726 817 726 817 716 827 c 128,-1,28
 706 837 706 837 694 837 c 0,29,30
 675 837 675 837 637.5 800 c 128,-1,31
 600 763 600 763 550.5 695.5 c 128,-1,32
 501 628 501 628 439.5 513.5 c 128,-1,33
 378 399 378 399 321 262 c 1,34,-1
 316 193 l 1,19,-1
EndSplineSet
Substitution2: "'ss02' Style Set 2 lookup 36 subtable" up
Substitution2: "'case' Case-Sensitive Forms lookup 28 subtable" B
Substitution2: "'ordn' Ordinals lookup 22 subtable" b.sups
Substitution2: "'sups' Superscript lookup 16 subtable" b.sups
AlternateSubs2: "'aalt' Access All Alternates lookup 1 subtable" b.sups B up
EndChar

StartChar: c
Encoding: 99 99 70
Width: 774
GlyphClass: 2
Flags: W
AnchorPoint: "Anchor-1" 401 0 basechar 0
AnchorPoint: "Anchor-0" 531 1047 basechar 0
LayerCount: 2
Fore
SplineSet
770 1013 m 1,0,-1
 785 985 l 1,1,-1
 725 816 l 1,2,-1
 679 811 l 1,3,4
 649 844 649 844 624 862.5 c 128,-1,5
 599 881 599 881 576.5 888.5 c 128,-1,6
 554 896 554 896 527 896 c 0,7,8
 409 896 409 896 340 767 c 128,-1,9
 271 638 271 638 271 412 c 0,10,11
 271 279 271 279 300 222.5 c 128,-1,12
 329 166 329 166 393 166 c 0,13,14
 504 166 504 166 605 360 c 1,15,-1
 636 357 l 1,16,-1
 705 266 l 1,17,18
 634 145 634 145 557 81.5 c 128,-1,19
 480 18 480 18 373 -16 c 1,20,-1
 341 -16 l 1,21,22
 243 0 243 0 185 40 c 128,-1,23
 127 80 127 80 97.5 160.5 c 128,-1,24
 68 241 68 241 68 371 c 0,25,26
 68 485 68 485 88 586.5 c 128,-1,27
 108 688 108 688 151 776 c 128,-1,28
 194 864 194 864 257.5 927.5 c 128,-1,29
 321 991 321 991 412.5 1027 c 128,-1,30
 504 1063 504 1063 616 1063 c 1,31,-1
 770 1013 l 1,0,-1
EndSplineSet
Substitution2: "Single Substitution lookup 41 subtable" C.ss01
Substitution2: "'ss02' Style Set 2 lookup 36 subtable" right
Substitution2: "'ss01' Style Set 1 lookup 35 subtable" C.ss01
Substitution2: "'case' Case-Sensitive Forms lookup 28 subtable" C
Substitution2: "'ordn' Ordinals lookup 22 subtable" c.sups
Substitution2: "'sups' Superscript lookup 16 subtable" c.sups
AlternateSubs2: "'aalt' Access All Alternates lookup 1 subtable" c.sups C C.ss01 right
EndChar

StartChar: d
Encoding: 100 100 71
Width: 1020
GlyphClass: 2
Flags: W
AnchorPoint: "Anchor-1" 761 0 basechar 0
AnchorPoint: "Anchor-0" 763 1047 basechar 0
LayerCount: 2
Fore
SplineSet
1002 1601 m 1,0,-1
 811 252 l 1,1,-1
 803 7 l 1,2,-1
 584 -9 l 1,3,-1
 644 405 l 1,4,-1
 618 405 l 1,5,6
 473 158 473 158 297 -18 c 1,7,-1
 259 -18 l 1,8,9
 61 75 61 75 61 347 c 0,10,11
 61 439 61 439 82 530.5 c 128,-1,12
 103 622 103 622 147.5 709.5 c 128,-1,13
 192 797 192 797 254.5 868.5 c 128,-1,14
 317 940 317 940 407 992 c 128,-1,15
 497 1044 497 1044 603 1063 c 1,16,-1
 614 1063 l 1,17,-1
 729 1021 l 1,18,-1
 777 1355 l 1,19,-1
 783 1584 l 1,20,-1
 1002 1601 l 1,0,-1
321 209 m 0,21,22
 340 209 340 209 378 246 c 128,-1,23
 416 283 416 283 465.5 351 c 128,-1,24
 515 419 515 419 577.5 534 c 128,-1,25
 640 649 640 649 698 787 c 1,26,-1
 705 837 l 1,27,-1
 559 891 l 1,28,29
 466 891 466 891 396.5 827 c 128,-1,30
 327 763 327 763 291.5 655 c 128,-1,31
 256 547 256 547 256 412 c 0,32,33
 256 355 256 355 262 313.5 c 128,-1,34
 268 272 268 272 277.5 250 c 128,-1,35
 287 228 287 228 298 218.5 c 128,-1,36
 309 209 309 209 321 209 c 0,21,22
EndSplineSet
Substitution2: "Single Substitution lookup 41 subtable" D.ss01
Substitution2: "'ss02' Style Set 2 lookup 36 subtable" down
Substitution2: "'ss01' Style Set 1 lookup 35 subtable" D.ss01
Substitution2: "'case' Case-Sensitive Forms lookup 28 subtable" D
Substitution2: "'ordn' Ordinals lookup 22 subtable" d.sups
Substitution2: "'sups' Superscript lookup 16 subtable" d.sups
AlternateSubs2: "'aalt' Access All Alternates lookup 1 subtable" d.sups D D.ss01 down
EndChar

StartChar: e
Encoding: 101 101 72
Width: 874
GlyphClass: 2
Flags: W
AnchorPoint: "Anchor-1" 399 0 basechar 0
AnchorPoint: "Anchor-0" 536 1047 basechar 0
LayerCount: 2
Fore
SplineSet
700 360 m 1,0,-1
 773 264 l 1,1,2
 606 34 606 34 405 -16 c 1,3,-1
 375 -16 l 1,4,5
 68 7 68 7 68 362 c 0,6,7
 68 561 68 561 133 719 c 128,-1,8
 198 877 198 877 319 969 c 128,-1,9
 440 1061 440 1061 598 1069 c 1,10,-1
 623 1067 l 1,11,12
 721 1050 721 1050 775.5 994.5 c 128,-1,13
 830 939 830 939 830 846 c 0,14,15
 830 712 830 712 696 602 c 128,-1,16
 562 492 562 492 273 397 c 1,17,18
 276 274 276 274 309 217.5 c 128,-1,19
 342 161 342 161 410 161 c 0,20,21
 481 161 481 161 551 217 c 128,-1,22
 621 273 621 273 668 362 c 1,23,-1
 700 360 l 1,0,-1
538 916 m 0,24,25
 472 916 472 916 418 871.5 c 128,-1,26
 364 827 364 827 328 744 c 128,-1,27
 292 661 292 661 280 548 c 1,28,29
 456 600 456 600 546 672.5 c 128,-1,30
 636 745 636 745 636 830.5 c 128,-1,31
 636 916 636 916 538 916 c 0,24,25
EndSplineSet
Substitution2: "'ss02' Style Set 2 lookup 36 subtable" square1
Substitution2: "'case' Case-Sensitive Forms lookup 28 subtable" E
Substitution2: "'ordn' Ordinals lookup 22 subtable" e.sups
Substitution2: "'sups' Superscript lookup 16 subtable" e.sups
AlternateSubs2: "'aalt' Access All Alternates lookup 1 subtable" e.sups E square1
EndChar

StartChar: f
Encoding: 102 102 73
Width: 658
GlyphClass: 2
Flags: W
LayerCount: 2
Fore
SplineSet
1000 1548 m 1,0,-1
 941 1393 l 1,1,-1
 911 1389 l 1,2,3
 868 1413 868 1413 816.5 1427 c 128,-1,4
 765 1441 765 1441 725 1441 c 0,5,6
 641 1441 641 1441 585 1380.5 c 128,-1,7
 529 1320 529 1320 516 1207 c 1,8,-1
 491 1026 l 1,9,-1
 729 1026 l 1,10,-1
 746 1007 l 1,11,-1
 727 887 l 1,12,-1
 473 887 l 1,13,-1
 414 457 l 1,14,-1
 345 -20 l 1,15,-1
 336 -266 l 1,16,-1
 118 -282 l 1,17,-1
 221 432 l 1,18,-1
 282 887 l 1,19,-1
 125 887 l 1,20,-1
 113 902 l 1,21,-1
 130 1026 l 1,22,-1
 300 1026 l 1,23,-1
 319 1152 l 1,24,25
 349 1373 349 1373 458 1487 c 128,-1,26
 567 1601 567 1601 770 1601 c 1,27,-1
 991 1566 l 1,28,-1
 1000 1548 l 1,0,-1
EndSplineSet
Substitution2: "Single Substitution lookup 41 subtable" f.t
Substitution2: "Single Substitution lookup 40 subtable" f.l
Substitution2: "Single Substitution lookup 39 subtable" f.f
Substitution2: "'ss02' Style Set 2 lookup 36 subtable" square2
Substitution2: "'case' Case-Sensitive Forms lookup 28 subtable" F
Substitution2: "'ordn' Ordinals lookup 22 subtable" f.sups
Substitution2: "'sups' Superscript lookup 16 subtable" f.sups
AlternateSubs2: "'aalt' Access All Alternates lookup 1 subtable" f.sups F square2
EndChar

StartChar: g
Encoding: 103 103 74
Width: 1022
GlyphClass: 2
Flags: W
AnchorPoint: "Anchor-1" 0 0 basechar 0
AnchorPoint: "Anchor-0" 590 1045 basechar 0
LayerCount: 2
Fore
SplineSet
928 1052 m 1,0,-1
 814 254 l 1,1,-1
 798 91 l 1,2,3
 781 -34 781 -34 730.5 -137 c 128,-1,4
 680 -240 680 -240 608 -308 c 128,-1,5
 536 -376 536 -376 445 -413.5 c 128,-1,6
 354 -451 354 -451 254 -451 c 0,7,8
 99 -451 99 -451 -0.5 -362.5 c 128,-1,9
 -100 -274 -100 -274 -128 -113 c 1,10,-1
 -118 -91 l 1,11,-1
 198 87 l 1,12,-1
 200 107 l 1,13,14
 148 150 148 150 124 217 c 128,-1,15
 100 284 100 284 100 382 c 0,16,17
 100 476 100 476 120 566 c 128,-1,18
 140 656 140 656 182 737.5 c 128,-1,19
 224 819 224 819 283 884.5 c 128,-1,20
 342 950 342 950 425.5 996.5 c 128,-1,21
 509 1043 509 1043 607 1061 c 1,22,-1
 618 1061 l 1,23,-1
 770 1007 l 1,24,-1
 902 1067 l 1,25,-1
 928 1052 l 1,0,-1
709 839 m 1,26,-1
 566 896 l 1,27,28
 477 896 477 896 413.5 837 c 128,-1,29
 350 778 350 778 320.5 681 c 128,-1,30
 291 584 291 584 291 460 c 0,31,32
 291 414 291 414 295 376.5 c 128,-1,33
 299 339 299 339 305.5 315.5 c 128,-1,34
 312 292 312 292 320.5 275.5 c 128,-1,35
 329 259 329 259 337 252 c 128,-1,36
 345 245 345 245 352 245 c 0,37,38
 369 245 369 245 403.5 281.5 c 128,-1,39
 438 318 438 318 484 382.5 c 128,-1,40
 530 447 530 447 588.5 551 c 128,-1,41
 647 655 647 655 703 777 c 1,42,-1
 707 811 l 1,43,-1
 709 839 l 1,26,-1
653 430 m 1,44,-1
 625 430 l 1,45,46
 498 194 498 194 323 50 c 1,47,-1
 128 -93 l 1,48,49
 102 -116 102 -116 102 -137 c 0,50,51
 102 -197 102 -197 157 -243 c 128,-1,52
 212 -289 212 -289 302 -289 c 0,53,54
 377 -289 377 -289 438 -253 c 128,-1,55
 499 -217 499 -217 541.5 -144 c 128,-1,56
 584 -71 584 -71 598 32 c 2,57,-1
 653 430 l 1,44,-1
EndSplineSet
Substitution2: "'ss02' Style Set 2 lookup 36 subtable" circle1
Substitution2: "'case' Case-Sensitive Forms lookup 28 subtable" G
Substitution2: "'ordn' Ordinals lookup 22 subtable" g.sups
Substitution2: "'sups' Superscript lookup 16 subtable" g.sups
AlternateSubs2: "'aalt' Access All Alternates lookup 1 subtable" g.sups G circle1
EndChar

StartChar: h
Encoding: 104 104 75
Width: 1087
GlyphClass: 2
Flags: W
AnchorPoint: "Anchor-1" 0 0 basechar 0
AnchorPoint: "Anchor-0" 390 1591 basechar 0
LayerCount: 2
Fore
SplineSet
755 1059 m 1,0,-1
 779 1059 l 1,1,2
 870 1041 870 1041 926 988 c 128,-1,3
 982 935 982 935 980 855 c 1,4,-1
 978 825 l 1,5,-1
 887 250 l 1,6,-1
 875 7 l 1,7,-1
 653 -9 l 1,8,-1
 773 741 l 1,9,-1
 775 766 l 1,10,11
 775 786 775 786 771.5 798 c 128,-1,12
 768 810 768 810 759 817.5 c 128,-1,13
 750 825 750 825 735 825 c 0,14,15
 671 825 671 825 562 675.5 c 128,-1,16
 453 526 453 526 319 243 c 1,17,-1
 310 7 l 1,18,-1
 91 -9 l 1,19,-1
 286 1355 l 1,20,-1
 289 1584 l 1,21,-1
 507 1601 l 1,22,-1
 366 588 l 1,23,-1
 388 588 l 1,24,25
 490 762 490 762 575.5 872.5 c 128,-1,26
 661 983 661 983 755 1059 c 1,0,-1
EndSplineSet
Substitution2: "'ss02' Style Set 2 lookup 36 subtable" circle2
Substitution2: "'case' Case-Sensitive Forms lookup 28 subtable" H
Substitution2: "'ordn' Ordinals lookup 22 subtable" h.sups
Substitution2: "'sups' Superscript lookup 16 subtable" h.sups
AlternateSubs2: "'aalt' Access All Alternates lookup 1 subtable" h.sups H circle2
EndChar

StartChar: i
Encoding: 105 105 76
Width: 510
GlyphClass: 2
Flags: W
AnchorPoint: "Anchor-1" 0 0 basechar 0
AnchorPoint: "Anchor-0" 316 1045 basechar 0
LayerCount: 2
Fore
SplineSet
364 1532 m 0,0,1
 420 1532 420 1532 451 1500.5 c 128,-1,2
 482 1469 482 1469 482 1414 c 0,3,4
 482 1354 482 1354 448 1319 c 128,-1,5
 414 1284 414 1284 357 1284 c 256,6,7
 300 1284 300 1284 269.5 1316 c 128,-1,8
 239 1348 239 1348 239 1405 c 0,9,10
 239 1464 239 1464 272.5 1498 c 128,-1,11
 306 1532 306 1532 364 1532 c 0,0,1
312 252 m 1,12,-1
 302 7 l 1,13,-1
 87 -9 l 1,14,-1
 202 811 l 1,15,-1
 211 1041 l 1,16,-1
 425 1057 l 1,17,-1
 312 252 l 1,12,-1
EndSplineSet
Substitution2: "Single Substitution lookup 41 subtable" I.ss01
Substitution2: "'ss01' Style Set 1 lookup 35 subtable" I.ss01
Substitution2: "'case' Case-Sensitive Forms lookup 28 subtable" I
Substitution2: "'ordn' Ordinals lookup 22 subtable" i.sups
Substitution2: "'sups' Superscript lookup 16 subtable" i.sups
Substitution2: "'locl' Localized Forms in Latin lookup 9 subtable" idotaccent
Substitution2: "'locl' Localized Forms in Latin lookup 8 subtable" idotaccent
Substitution2: "'locl' Localized Forms in Latin lookup 7 subtable" idotaccent
Substitution2: "'locl' Localized Forms in Latin lookup 6 subtable" idotaccent
Substitution2: "'locl' Localized Forms in Latin lookup 5 subtable" idotaccent
AlternateSubs2: "'aalt' Access All Alternates lookup 1 subtable" idotaccent i.sups I I.ss01
EndChar

StartChar: j
Encoding: 106 106 77
Width: 549
GlyphClass: 2
Flags: W
AnchorPoint: "Anchor-1" 0 0 basechar 0
AnchorPoint: "Anchor-0" 340 1045 basechar 0
LayerCount: 2
Fore
SplineSet
388 1532 m 0,0,1
 445 1532 445 1532 476 1500.5 c 128,-1,2
 507 1469 507 1469 507 1414 c 0,3,4
 507 1355 507 1355 473 1319.5 c 128,-1,5
 439 1284 439 1284 382 1284 c 0,6,7
 324 1284 324 1284 294 1316 c 128,-1,8
 264 1348 264 1348 264 1405 c 0,9,10
 264 1464 264 1464 297 1498 c 128,-1,11
 330 1532 330 1532 388 1532 c 0,0,1
460 1046 m 1,12,-1
 345 254 l 1,13,-1
 325 46 l 1,14,15
 303 -132 303 -132 223 -240.5 c 128,-1,16
 143 -349 143 -349 -30 -441 c 1,17,-1
 -100 -343 l 1,18,-1
 -98 -321 l 1,19,20
 10 -253 10 -253 62 -173.5 c 128,-1,21
 114 -94 114 -94 130 37 c 1,22,-1
 236 809 l 1,23,-1
 241 887 l 1,24,-1
 75 887 l 1,25,-1
 63 902 l 1,26,-1
 82 1026 l 1,27,-1
 236 1026 l 1,28,-1
 451 1054 l 1,29,-1
 460 1046 l 1,12,-1
EndSplineSet
Substitution2: "'case' Case-Sensitive Forms lookup 28 subtable" J
Substitution2: "'ordn' Ordinals lookup 22 subtable" j.sups
Substitution2: "'sups' Superscript lookup 16 subtable" j.sups
AlternateSubs2: "'aalt' Access All Alternates lookup 1 subtable" j.sups J
EndChar

StartChar: k
Encoding: 107 107 78
Width: 1083
GlyphClass: 2
Flags: W
AnchorPoint: "Anchor-1" 522 0 basechar 0
AnchorPoint: "Anchor-0" 264 1045 basechar 0
LayerCount: 2
Fore
SplineSet
1028 820 m 0,0,1
 1028 603 1028 603 718 414 c 1,2,3
 829 216 829 216 959 20 c 1,4,-1
 950 4 l 1,5,-1
 768 -28 l 1,6,-1
 748 -18 l 1,7,8
 637 167 637 167 527 400 c 1,9,-1
 534 434 l 1,10,11
 814 614 814 614 814 761 c 0,12,13
 814 825 814 825 768 825 c 0,14,15
 696 825 696 825 579.5 677 c 128,-1,16
 463 529 463 529 319 225 c 1,17,-1
 312 7 l 1,18,-1
 93 -9 l 1,19,-1
 286 1355 l 1,20,-1
 291 1584 l 1,21,-1
 509 1601 l 1,22,-1
 369 601 l 1,23,-1
 395 601 l 1,24,25
 507 770 507 770 599 879.5 c 128,-1,26
 691 989 691 989 787 1057 c 1,27,-1
 818 1059 l 1,28,29
 882 1046 882 1046 927.5 1017.5 c 128,-1,30
 973 989 973 989 1000.5 939 c 128,-1,31
 1028 889 1028 889 1028 820 c 0,0,1
EndSplineSet
Substitution2: "'case' Case-Sensitive Forms lookup 28 subtable" K
Substitution2: "'ordn' Ordinals lookup 22 subtable" k.sups
Substitution2: "'sups' Superscript lookup 16 subtable" k.sups
AlternateSubs2: "'aalt' Access All Alternates lookup 1 subtable" k.sups K
EndChar

StartChar: l
Encoding: 108 108 79
Width: 525
GlyphClass: 2
Flags: W
AnchorPoint: "Anchor-1" 202 0 basechar 0
AnchorPoint: "Anchor-0" 395 1591 basechar 0
LayerCount: 2
Fore
SplineSet
319 252 m 1,0,-1
 310 7 l 1,1,-1
 93 -9 l 1,2,-1
 286 1355 l 1,3,-1
 291 1584 l 1,4,-1
 507 1601 l 1,5,-1
 319 252 l 1,0,-1
EndSplineSet
Substitution2: "Single Substitution lookup 41 subtable" L.ss01
Substitution2: "'ss01' Style Set 1 lookup 35 subtable" L.ss01
Substitution2: "'case' Case-Sensitive Forms lookup 28 subtable" L
Substitution2: "'ordn' Ordinals lookup 22 subtable" l.sups
Substitution2: "'sups' Superscript lookup 16 subtable" l.sups
AlternateSubs2: "'aalt' Access All Alternates lookup 1 subtable" l.sups L L.ss01
EndChar

StartChar: m
Encoding: 109 109 80
Width: 1659
GlyphClass: 2
Flags: W
AnchorPoint: "Anchor-1" 0 0 basechar 0
AnchorPoint: "Anchor-0" 316 1045 basechar 0
LayerCount: 2
Fore
SplineSet
1325 1059 m 1,0,-1
 1351 1059 l 1,1,2
 1409 1048 1409 1048 1453.5 1021.5 c 128,-1,3
 1498 995 1498 995 1525 951.5 c 128,-1,4
 1552 908 1552 908 1551 855 c 1,5,-1
 1548 825 l 1,6,-1
 1455 250 l 1,7,-1
 1443 7 l 1,8,-1
 1223 -9 l 1,9,-1
 1341 741 l 1,10,-1
 1343 766 l 1,11,12
 1343 785 1343 785 1340 797.5 c 128,-1,13
 1337 810 1337 810 1328.5 817.5 c 128,-1,14
 1320 825 1320 825 1305 825 c 0,15,16
 1240 825 1240 825 1129 671.5 c 128,-1,17
 1018 518 1018 518 882 228 c 1,18,-1
 870 7 l 1,19,-1
 648 -9 l 1,20,-1
 768 741 l 1,21,-1
 770 766 l 1,22,23
 770 795 770 795 761 810 c 128,-1,24
 752 825 752 825 729 825 c 0,25,26
 666 825 666 825 557.5 675.5 c 128,-1,27
 449 526 449 526 314 243 c 1,28,-1
 304 7 l 1,29,-1
 87 -9 l 1,30,-1
 204 811 l 1,31,-1
 214 1041 l 1,32,-1
 427 1057 l 1,33,-1
 362 588 l 1,34,-1
 384 588 l 1,35,36
 486 762 486 762 571.5 872.5 c 128,-1,37
 657 983 657 983 750 1059 c 1,38,-1
 775 1059 l 1,39,40
 865 1041 865 1041 921 988 c 128,-1,41
 977 935 977 935 976 855 c 1,42,-1
 973 825 l 1,43,-1
 937 588 l 1,44,-1
 959 588 l 1,45,46
 1061 762 1061 762 1146.5 872.5 c 128,-1,47
 1232 983 1232 983 1325 1059 c 1,0,-1
EndSplineSet
Substitution2: "Single Substitution lookup 41 subtable" M.ss01
Substitution2: "'ss01' Style Set 1 lookup 35 subtable" M.ss01
Substitution2: "'case' Case-Sensitive Forms lookup 28 subtable" M
Substitution2: "'ordn' Ordinals lookup 22 subtable" m.sups
Substitution2: "'sups' Superscript lookup 16 subtable" m.sups
AlternateSubs2: "'aalt' Access All Alternates lookup 1 subtable" m.sups M M.ss01
EndChar

StartChar: n
Encoding: 110 110 81
Width: 1083
GlyphClass: 2
Flags: W
AnchorPoint: "Anchor-1" 483 0 basechar 0
AnchorPoint: "Anchor-0" 611 1045 basechar 0
LayerCount: 2
Fore
SplineSet
750 1059 m 1,0,-1
 775 1059 l 1,1,2
 863 1041 863 1041 920 987.5 c 128,-1,3
 977 934 977 934 976 855 c 1,4,-1
 973 825 l 1,5,-1
 882 250 l 1,6,-1
 870 7 l 1,7,-1
 648 -9 l 1,8,-1
 768 741 l 1,9,-1
 770 766 l 1,10,11
 770 795 770 795 761 810 c 128,-1,12
 752 825 752 825 729 825 c 0,13,14
 666 825 666 825 557.5 675.5 c 128,-1,15
 449 526 449 526 314 243 c 1,16,-1
 304 7 l 1,17,-1
 87 -9 l 1,18,-1
 204 811 l 1,19,-1
 214 1041 l 1,20,-1
 427 1057 l 1,21,-1
 362 588 l 1,22,-1
 384 588 l 1,23,24
 486 762 486 762 571.5 872.5 c 128,-1,25
 657 983 657 983 750 1059 c 1,0,-1
EndSplineSet
Substitution2: "'case' Case-Sensitive Forms lookup 28 subtable" N
Substitution2: "'ordn' Ordinals lookup 22 subtable" n.sups
Substitution2: "'sups' Superscript lookup 16 subtable" n.sups
AlternateSubs2: "'aalt' Access All Alternates lookup 1 subtable" n.sups N
EndChar

StartChar: o
Encoding: 111 111 82
Width: 954
GlyphClass: 2
Flags: W
AnchorPoint: "Anchor-1" 0 0 basechar 0
AnchorPoint: "Anchor-0" 563 1045 basechar 0
LayerCount: 2
Fore
SplineSet
598 1067 m 1,0,-1
 620 1067 l 1,1,2
 752 1042 752 1042 818.5 955 c 128,-1,3
 885 868 885 868 885 709 c 0,4,5
 885 551 885 551 849.5 420.5 c 128,-1,6
 814 290 814 290 748 195.5 c 128,-1,7
 682 101 682 101 584 45 c 128,-1,8
 486 -11 486 -11 364 -20 c 1,9,-1
 341 -18 l 1,10,11
 206 9 206 9 139.5 97 c 128,-1,12
 73 185 73 185 73 352 c 0,13,14
 73 556 73 556 136 714.5 c 128,-1,15
 199 873 199 873 318.5 965.5 c 128,-1,16
 438 1058 438 1058 598 1067 c 1,0,-1
557 894 m 0,17,18
 461 894 461 894 397 827.5 c 128,-1,19
 333 761 333 761 303 641.5 c 128,-1,20
 273 522 273 522 273 352 c 0,21,22
 273 315 273 315 276 286 c 128,-1,23
 279 257 279 257 285 234 c 128,-1,24
 291 211 291 211 301 195 c 128,-1,25
 311 179 311 179 325 168.5 c 128,-1,26
 339 158 339 158 356.5 153 c 128,-1,27
 374 148 374 148 397 148 c 0,28,29
 469 148 469 148 523 186 c 128,-1,30
 577 224 577 224 611 296 c 128,-1,31
 645 368 645 368 662 468 c 128,-1,32
 679 568 679 568 679 694 c 0,33,34
 679 802 679 802 651 848 c 128,-1,35
 623 894 623 894 557 894 c 0,17,18
EndSplineSet
Substitution2: "'case' Case-Sensitive Forms lookup 28 subtable" O
Substitution2: "'ordn' Ordinals lookup 22 subtable" o.sups
Substitution2: "'sups' Superscript lookup 16 subtable" o.sups
AlternateSubs2: "'aalt' Access All Alternates lookup 1 subtable" o.sups O
EndChar

StartChar: p
Encoding: 112 112 83
Width: 1013
GlyphClass: 2
Flags: W
LayerCount: 2
Fore
SplineSet
720 1063 m 1,0,-1
 757 1063 l 1,1,2
 952 968 952 968 952 698 c 0,3,4
 952 606 952 606 931.5 513.5 c 128,-1,5
 911 421 911 421 867 334 c 128,-1,6
 823 247 823 247 761 176 c 128,-1,7
 699 105 699 105 610 53.5 c 128,-1,8
 521 2 521 2 416 -18 c 1,9,-1
 405 -18 l 1,10,-1
 282 9 l 1,11,-1
 256 -171 l 1,12,-1
 248 -421 l 1,13,-1
 30 -436 l 1,14,-1
 206 811 l 1,15,-1
 216 1041 l 1,16,-1
 430 1057 l 1,17,-1
 371 642 l 1,18,-1
 400 642 l 1,19,20
 542 890 542 890 720 1063 c 1,0,-1
310 195 m 1,21,-1
 460 152 l 1,22,23
 529 152 529 152 585 189.5 c 128,-1,24
 641 227 641 227 678 292.5 c 128,-1,25
 715 358 715 358 735 445.5 c 128,-1,26
 755 533 755 533 755 634 c 0,27,28
 755 691 755 691 749.5 732 c 128,-1,29
 744 773 744 773 735 795 c 128,-1,30
 726 817 726 817 716 827 c 128,-1,31
 706 837 706 837 694 837 c 0,32,33
 674 837 674 837 635.5 799 c 128,-1,34
 597 761 597 761 547.5 691 c 128,-1,35
 498 621 498 621 435.5 503 c 128,-1,36
 373 385 373 385 316 245 c 1,37,-1
 310 195 l 1,21,-1
EndSplineSet
Substitution2: "'case' Case-Sensitive Forms lookup 28 subtable" P
Substitution2: "'ordn' Ordinals lookup 22 subtable" p.sups
Substitution2: "'sups' Superscript lookup 16 subtable" p.sups
AlternateSubs2: "'aalt' Access All Alternates lookup 1 subtable" p.sups P
EndChar

StartChar: q
Encoding: 113 113 84
Width: 1013
GlyphClass: 2
Flags: W
LayerCount: 2
Fore
SplineSet
920 1052 m 1,0,-1
 748 -178 l 1,1,-1
 739 -421 l 1,2,-1
 521 -436 l 1,3,-1
 642 405 l 1,4,-1
 614 405 l 1,5,6
 465 152 465 152 295 -18 c 1,7,-1
 259 -18 l 1,8,9
 61 75 61 75 61 347 c 0,10,11
 61 439 61 439 81.5 530.5 c 128,-1,12
 102 622 102 622 146 709.5 c 128,-1,13
 190 797 190 797 252.5 868.5 c 128,-1,14
 315 940 315 940 404 992 c 128,-1,15
 493 1044 493 1044 598 1063 c 1,16,-1
 612 1063 l 1,17,-1
 764 1009 l 1,18,-1
 898 1067 l 1,19,-1
 920 1052 l 1,0,-1
319 209 m 0,20,21
 339 209 339 209 378 247 c 128,-1,22
 417 285 417 285 467 354.5 c 128,-1,23
 517 424 517 424 579 542.5 c 128,-1,24
 641 661 641 661 698 803 c 1,25,-1
 698 809 l 1,26,-1
 700 837 l 1,27,-1
 555 891 l 1,28,29
 463 891 463 891 394.5 827 c 128,-1,30
 326 763 326 763 291 655 c 128,-1,31
 256 547 256 547 256 412 c 0,32,33
 256 355 256 355 262 313.5 c 128,-1,34
 268 272 268 272 277.5 250 c 128,-1,35
 287 228 287 228 297 218.5 c 128,-1,36
 307 209 307 209 319 209 c 0,20,21
EndSplineSet
Substitution2: "'case' Case-Sensitive Forms lookup 28 subtable" Q
Substitution2: "'ordn' Ordinals lookup 22 subtable" q.sups
Substitution2: "'sups' Superscript lookup 16 subtable" q.sups
AlternateSubs2: "'aalt' Access All Alternates lookup 1 subtable" q.sups Q
EndChar

StartChar: r
Encoding: 114 114 85
Width: 768
GlyphClass: 2
Flags: W
AnchorPoint: "Anchor-1" 214 0 basechar 0
AnchorPoint: "Anchor-0" 529 1045 basechar 0
LayerCount: 2
Fore
SplineSet
816 1052 m 1,0,-1
 775 766 l 1,1,-1
 757 755 l 1,2,-1
 731 759 l 1,3,4
 676 751 676 751 631 725 c 128,-1,5
 586 699 586 699 536 640 c 128,-1,6
 486 581 486 581 433.5 481.5 c 128,-1,7
 381 382 381 382 319 230 c 1,8,-1
 310 7 l 1,9,-1
 91 -9 l 1,10,-1
 209 811 l 1,11,-1
 219 1041 l 1,12,-1
 432 1057 l 1,13,-1
 369 605 l 1,14,-1
 388 605 l 1,15,16
 463 744 463 744 549.5 853 c 128,-1,17
 636 962 636 962 757 1057 c 1,18,-1
 816 1052 l 1,0,-1
EndSplineSet
Substitution2: "'case' Case-Sensitive Forms lookup 28 subtable" R
Substitution2: "'ordn' Ordinals lookup 22 subtable" r.sups
Substitution2: "'sups' Superscript lookup 16 subtable" r.sups
AlternateSubs2: "'aalt' Access All Alternates lookup 1 subtable" r.sups R
EndChar

StartChar: s
Encoding: 115 115 86
Width: 740
GlyphClass: 2
Flags: W
AnchorPoint: "Anchor-1" 323 0 basechar 0
AnchorPoint: "Anchor-0" 455 1045 basechar 0
LayerCount: 2
Fore
SplineSet
518 1063 m 1,0,1
 621 1042 621 1042 723 1005 c 1,2,-1
 664 811 l 1,3,-1
 632 803 l 1,4,5
 538 911 538 911 438 911 c 0,6,7
 400 911 400 911 367.5 891.5 c 128,-1,8
 335 872 335 872 317.5 841.5 c 128,-1,9
 300 811 300 811 300 777 c 0,10,11
 300 750 300 750 314.5 724.5 c 128,-1,12
 329 699 329 699 353.5 678.5 c 128,-1,13
 378 658 378 658 408.5 635.5 c 128,-1,14
 439 613 439 613 471.5 592 c 128,-1,15
 504 571 504 571 535 543 c 128,-1,16
 566 515 566 515 590 485 c 128,-1,17
 614 455 614 455 629 413 c 128,-1,18
 644 371 644 371 644 323 c 0,19,20
 644 176 644 176 527 80 c 128,-1,21
 410 -16 410 -16 228 -18 c 1,22,23
 93 0 93 0 -16 57 c 1,24,-1
 39 256 l 1,25,-1
 68 269 l 1,26,27
 116 201 116 201 177 164.5 c 128,-1,28
 238 128 238 128 297 128 c 0,29,30
 363 128 363 128 404 170 c 128,-1,31
 445 212 445 212 445 266 c 0,32,33
 445 300 445 300 426 330.5 c 128,-1,34
 407 361 407 361 376.5 385.5 c 128,-1,35
 346 410 346 410 309 435 c 128,-1,36
 272 460 272 460 235 488.5 c 128,-1,37
 198 517 198 517 167.5 549.5 c 128,-1,38
 137 582 137 582 118 627.5 c 128,-1,39
 99 673 99 673 100 727 c 1,40,41
 100 824 100 824 157.5 902.5 c 128,-1,42
 215 981 215 981 310.5 1022.5 c 128,-1,43
 406 1064 406 1064 518 1063 c 1,0,1
EndSplineSet
Substitution2: "'case' Case-Sensitive Forms lookup 28 subtable" S
Substitution2: "'ordn' Ordinals lookup 22 subtable" s.sups
Substitution2: "'sups' Superscript lookup 16 subtable" s.sups
AlternateSubs2: "'aalt' Access All Alternates lookup 1 subtable" s.sups S
EndChar

StartChar: t
Encoding: 116 116 87
Width: 749
GlyphClass: 2
Flags: W
AnchorPoint: "Anchor-1" 405 0 basechar 0
AnchorPoint: "Anchor-0" 0 0 basechar 0
LayerCount: 2
Fore
SplineSet
369 295 m 1,0,-1
 364 256 l 1,1,2
 364 235 364 235 369.5 221.5 c 128,-1,3
 375 208 375 208 387 201.5 c 128,-1,4
 399 195 399 195 418 195 c 0,5,6
 491 195 491 195 603 347 c 1,7,-1
 634 345 l 1,8,-1
 698 259 l 1,9,10
 556 80 556 80 402 -9 c 1,11,-1
 373 -11 l 1,12,13
 163 22 163 22 163 195 c 1,14,-1
 166 232 l 1,15,-1
 262 816 l 1,16,-1
 269 887 l 1,17,-1
 123 887 l 1,18,-1
 109 902 l 1,19,-1
 123 1026 l 1,20,-1
 282 1026 l 1,21,-1
 304 1262 l 1,22,-1
 512 1343 l 1,23,-1
 534 1330 l 1,24,-1
 486 1026 l 1,25,-1
 750 1026 l 1,26,-1
 766 1007 l 1,27,-1
 753 887 l 1,28,-1
 464 887 l 1,29,-1
 369 295 l 1,0,-1
EndSplineSet
Substitution2: "'case' Case-Sensitive Forms lookup 28 subtable" T
Substitution2: "'ordn' Ordinals lookup 22 subtable" t.sups
Substitution2: "'sups' Superscript lookup 16 subtable" t.sups
AlternateSubs2: "'aalt' Access All Alternates lookup 1 subtable" t.sups T
EndChar

StartChar: u
Encoding: 117 117 88
Width: 1085
GlyphClass: 2
Flags: W
AnchorPoint: "Anchor-1" 0 0 basechar 0
AnchorPoint: "Anchor-0" 609 1045 basechar 0
LayerCount: 2
Fore
SplineSet
991 1057 m 1,0,-1
 875 252 l 1,1,-1
 868 7 l 1,2,-1
 650 -9 l 1,3,-1
 716 455 l 1,4,-1
 698 455 l 1,5,6
 597 285 597 285 512 177 c 128,-1,7
 427 69 427 69 334 -7 c 1,8,-1
 310 -7 l 1,9,10
 218 11 218 11 161.5 63.5 c 128,-1,11
 105 116 105 116 107 195 c 1,12,-1
 109 228 l 1,13,-1
 202 803 l 1,14,-1
 219 1043 l 1,15,-1
 432 1061 l 1,16,-1
 319 330 l 1,17,-1
 314 282 l 1,18,19
 311 228 311 228 354 228 c 0,20,21
 418 228 418 228 524.5 374 c 128,-1,22
 631 520 631 520 764 800 c 1,23,-1
 766 811 l 1,24,-1
 775 1041 l 1,25,-1
 991 1057 l 1,0,-1
EndSplineSet
Substitution2: "'case' Case-Sensitive Forms lookup 28 subtable" U
Substitution2: "'ordn' Ordinals lookup 22 subtable" u.sups
Substitution2: "'sups' Superscript lookup 16 subtable" u.sups
AlternateSubs2: "'aalt' Access All Alternates lookup 1 subtable" u.sups U
EndChar

StartChar: v
Encoding: 118 118 89
Width: 952
GlyphClass: 2
Flags: W
LayerCount: 2
Fore
SplineSet
689 1019 m 1,0,-1
 889 1061 l 1,1,2
 937 974 937 974 937 880 c 0,3,4
 937 754 937 754 837 575 c 1,5,-1
 503 0 l 1,6,-1
 264 0 l 1,7,-1
 148 1041 l 1,8,-1
 362 1057 l 1,9,-1
 369 870 l 1,10,-1
 416 228 l 1,11,-1
 434 228 l 1,12,-1
 662 634 l 1,13,14
 729 759 729 759 729 844 c 0,15,16
 729 916 729 916 679 993 c 1,17,-1
 689 1019 l 1,0,-1
EndSplineSet
Substitution2: "Single Substitution lookup 41 subtable" V.ss01
Substitution2: "'ss01' Style Set 1 lookup 35 subtable" V.ss01
Substitution2: "'case' Case-Sensitive Forms lookup 28 subtable" V
Substitution2: "'ordn' Ordinals lookup 22 subtable" v.sups
Substitution2: "'sups' Superscript lookup 16 subtable" v.sups
AlternateSubs2: "'aalt' Access All Alternates lookup 1 subtable" v.sups V V.ss01
EndChar

StartChar: w
Encoding: 119 119 90
Width: 1572
GlyphClass: 2
Flags: W
AnchorPoint: "Anchor-1" 0 0 basechar 0
AnchorPoint: "Anchor-0" 854 1045 basechar 0
LayerCount: 2
Fore
SplineSet
1148 0 m 1,0,-1
 918 0 l 1,1,-1
 848 757 l 1,2,-1
 827 757 l 1,3,-1
 503 0 l 1,4,-1
 269 0 l 1,5,-1
 148 1041 l 1,6,-1
 360 1057 l 1,7,-1
 362 909 l 1,8,-1
 418 243 l 1,9,-1
 438 243 l 1,10,-1
 720 896 l 1,11,-1
 773 1048 l 1,12,-1
 1000 1048 l 1,13,-1
 1007 909 l 1,14,-1
 1067 245 l 1,15,-1
 1082 245 l 1,16,-1
 1286 634 l 1,17,18
 1321 703 1321 703 1338 752 c 128,-1,19
 1355 801 1355 801 1355 844 c 0,20,21
 1355 916 1355 916 1305 993 c 1,22,-1
 1314 1019 l 1,23,-1
 1514 1061 l 1,24,25
 1562 974 1562 974 1562 880 c 0,26,27
 1562 760 1562 760 1462 575 c 2,28,-1
 1148 0 l 1,0,-1
EndSplineSet
Substitution2: "'case' Case-Sensitive Forms lookup 28 subtable" W
Substitution2: "'ordn' Ordinals lookup 22 subtable" w.sups
Substitution2: "'sups' Superscript lookup 16 subtable" w.sups
AlternateSubs2: "'aalt' Access All Alternates lookup 1 subtable" w.sups W
EndChar

StartChar: x
Encoding: 120 120 91
Width: 1024
GlyphClass: 2
Flags: W
LayerCount: 2
Fore
SplineSet
898 9 m 1,0,-1
 662 -13 l 1,1,-1
 627 109 l 1,2,-1
 491 400 l 1,3,-1
 278 107 l 1,4,-1
 221 0 l 1,5,-1
 -16 0 l 1,6,-1
 375 541 l 1,7,-1
 148 1039 l 1,8,-1
 377 1063 l 1,9,-1
 407 963 l 1,10,-1
 538 682 l 1,11,-1
 741 952 l 1,12,-1
 796 1048 l 1,13,-1
 1023 1048 l 1,14,-1
 644 527 l 1,15,-1
 898 9 l 1,0,-1
EndSplineSet
Substitution2: "Single Substitution lookup 41 subtable" X.ss01
Substitution2: "'ss01' Style Set 1 lookup 35 subtable" X.ss01
Substitution2: "'case' Case-Sensitive Forms lookup 28 subtable" X
Substitution2: "'ordn' Ordinals lookup 22 subtable" x.sups
Substitution2: "'sups' Superscript lookup 16 subtable" x.sups
AlternateSubs2: "'aalt' Access All Alternates lookup 1 subtable" x.sups X X.ss01
EndChar

StartChar: y
Encoding: 121 121 92
Width: 956
GlyphClass: 2
Flags: W
AnchorPoint: "Anchor-1" 0 0 basechar 0
AnchorPoint: "Anchor-0" 481 1045 basechar 0
LayerCount: 2
Fore
SplineSet
694 1019 m 1,0,-1
 894 1061 l 1,1,2
 941 980 941 980 941 880 c 0,3,4
 941 732 941 732 827 529 c 1,5,-1
 582 87 l 1,6,7
 472 -109 472 -109 375.5 -225 c 128,-1,8
 279 -341 279 -341 186 -392 c 128,-1,9
 93 -443 93 -443 -13 -443 c 0,10,11
 -116 -443 -116 -443 -204 -407 c 1,12,-1
 -214 -225 l 1,13,-1
 -191 -206 l 1,14,15
 -93 -239 -93 -239 -20 -239 c 0,16,17
 172 -239 172 -239 330 -28 c 1,18,-1
 115 1041 l 1,19,-1
 327 1057 l 1,20,-1
 352 870 l 1,21,-1
 451 245 l 1,22,-1
 482 245 l 1,23,-1
 655 591 l 1,24,25
 735 747 735 747 735 841 c 0,26,27
 735 919 735 919 684 993 c 1,28,-1
 694 1019 l 1,0,-1
EndSplineSet
Substitution2: "'case' Case-Sensitive Forms lookup 28 subtable" Y
Substitution2: "'ordn' Ordinals lookup 22 subtable" y.sups
Substitution2: "'sups' Superscript lookup 16 subtable" y.sups
AlternateSubs2: "'aalt' Access All Alternates lookup 1 subtable" y.sups Y
EndChar

StartChar: z
Encoding: 122 122 93
Width: 940
GlyphClass: 2
Flags: W
AnchorPoint: "Anchor-1" 0 0 basechar 0
AnchorPoint: "Anchor-0" 536 1045 basechar 0
LayerCount: 2
Fore
SplineSet
898 1021 m 1,0,-1
 275 204 l 1,1,-1
 343 221 l 1,2,3
 372 221 372 221 441.5 199.5 c 128,-1,4
 511 178 511 178 538 178 c 0,5,6
 631 178 631 178 672.5 235 c 128,-1,7
 714 292 714 292 723 436 c 1,8,-1
 753 453 l 1,9,-1
 855 405 l 1,10,11
 847 190 847 190 764 84 c 128,-1,12
 681 -22 681 -22 538 -22 c 0,13,14
 496 -22 496 -22 445.5 -10.5 c 128,-1,15
 395 1 395 1 357 15 c 128,-1,16
 319 29 319 29 274 40.5 c 128,-1,17
 229 52 229 52 195 52 c 0,18,19
 155 52 155 52 123 37.5 c 128,-1,20
 91 23 91 23 54 -13 c 1,21,-1
 30 -13 l 1,22,-1
 -37 48 l 1,23,-1
 582 868 l 1,24,-1
 310 866 l 1,25,-1
 141 844 l 1,26,-1
 123 859 l 1,27,-1
 163 1052 l 1,28,-1
 184 1067 l 1,29,-1
 347 1054 l 1,30,-1
 768 1048 l 1,31,-1
 832 1084 l 1,32,-1
 898 1021 l 1,0,-1
EndSplineSet
Substitution2: "'case' Case-Sensitive Forms lookup 28 subtable" Z
Substitution2: "'ordn' Ordinals lookup 22 subtable" z.sups
Substitution2: "'sups' Superscript lookup 16 subtable" z.sups
AlternateSubs2: "'aalt' Access All Alternates lookup 1 subtable" z.sups Z
EndChar

StartChar: braceleft
Encoding: 123 123 94
Width: 660
GlyphClass: 2
Flags: W
LayerCount: 2
Fore
SplineSet
603 1489 m 0,0,1
 655 1489 655 1489 727 1473 c 1,2,-1
 735 1455 l 1,3,-1
 700 1339 l 1,4,5
 645 1351 645 1351 618 1351 c 0,6,7
 538 1351 538 1351 499 1299 c 128,-1,8
 460 1247 460 1247 460 1137 c 0,9,10
 460 1098 460 1098 466.5 1008.5 c 128,-1,11
 473 919 473 919 473 885 c 0,12,13
 473 683 473 683 289 605 c 1,14,-1
 286 596 l 1,15,16
 349 566 349 566 381.5 513 c 128,-1,17
 414 460 414 460 414 391 c 0,18,19
 414 342 414 342 389 264 c 128,-1,20
 364 186 364 186 339 106.5 c 128,-1,21
 314 27 314 27 314 -26 c 0,22,23
 314 -152 314 -152 434 -152 c 0,24,25
 465 -152 465 -152 518 -141 c 1,26,-1
 525 -256 l 1,27,-1
 512 -273 l 1,28,29
 454 -291 454 -291 382 -291 c 0,30,31
 260 -291 260 -291 198.5 -234.5 c 128,-1,32
 137 -178 137 -178 137 -70 c 0,33,34
 137 -5 137 -5 160.5 83.5 c 128,-1,35
 184 172 184 172 208 253 c 128,-1,36
 232 334 232 334 232 380 c 0,37,38
 232 514 232 514 80 543 c 1,39,-1
 93 653 l 1,40,41
 163 668 163 668 207 698 c 128,-1,42
 251 728 251 728 272 777.5 c 128,-1,43
 293 827 293 827 293 900 c 0,44,45
 293 933 293 933 289.5 1020.5 c 128,-1,46
 286 1108 286 1108 286 1148 c 0,47,48
 286 1489 286 1489 603 1489 c 0,0,1
EndSplineSet
EndChar

StartChar: bar
Encoding: 124 124 95
Width: 708
GlyphClass: 2
Flags: W
LayerCount: 2
Fore
SplineSet
598 1803 m 1,0,-1
 455 657 l 1,1,-1
 302 -584 l 1,2,-1
 148 -594 l 1,3,-1
 134 -573 l 1,4,-1
 282 644 l 1,5,-1
 427 1805 l 1,6,-1
 584 1816 l 1,7,-1
 598 1803 l 1,0,-1
EndSplineSet
EndChar

StartChar: braceright
Encoding: 125 125 96
Width: 660
GlyphClass: 2
Flags: W
LayerCount: 2
Fore
SplineSet
80 -291 m 0,0,1
 20 -291 20 -291 -46 -273 c 1,2,-1
 -52 -256 l 1,3,-1
 -18 -139 l 1,4,5
 32 -150 32 -150 63 -150 c 0,6,7
 223 -150 223 -150 223 61 c 0,8,9
 223 99 223 99 216 189.5 c 128,-1,10
 209 280 209 280 209 314 c 0,11,12
 209 514 209 514 393 596 c 1,13,-1
 395 605 l 1,14,15
 333 634 333 634 301 686.5 c 128,-1,16
 269 739 269 739 269 807 c 0,17,18
 269 857 269 857 293 935 c 128,-1,19
 317 1013 317 1013 341.5 1092 c 128,-1,20
 366 1171 366 1171 366 1223 c 0,21,22
 366 1353 366 1353 248 1353 c 0,23,24
 222 1353 222 1353 163 1341 c 1,25,-1
 157 1455 l 1,26,-1
 171 1473 l 1,27,28
 232 1489 232 1489 300 1489 c 0,29,30
 380 1489 380 1489 435 1464.5 c 128,-1,31
 490 1440 490 1440 518 1391 c 128,-1,32
 546 1342 546 1342 546 1271 c 0,33,34
 546 1206 546 1206 521.5 1117 c 128,-1,35
 497 1028 497 1028 472 946.5 c 128,-1,36
 447 865 447 865 447 820 c 0,37,38
 447 688 447 688 603 655 c 1,39,-1
 588 546 l 1,40,41
 484 525 484 525 435 465.5 c 128,-1,42
 386 406 386 406 386 297 c 0,43,44
 386 266 386 266 390.5 178.5 c 128,-1,45
 395 91 395 91 395 52 c 0,46,47
 395 -291 395 -291 80 -291 c 0,0,1
EndSplineSet
EndChar

StartChar: asciitilde
Encoding: 126 126 97
Width: 1091
GlyphClass: 2
Flags: W
LayerCount: 2
Fore
SplineSet
345 568 m 0,0,1
 333 568 333 568 319 562.5 c 128,-1,2
 305 557 305 557 287.5 544 c 128,-1,3
 270 531 270 531 256 519 c 128,-1,4
 242 507 242 507 216 484 c 128,-1,5
 190 461 190 461 173 447 c 1,6,-1
 150 447 l 1,7,-1
 100 523 l 1,8,-1
 102 546 l 1,9,-1
 297 725 l 1,10,-1
 323 737 l 1,11,12
 375 729 375 729 552 676 c 128,-1,13
 729 623 729 623 768 623 c 0,14,15
 777 623 777 623 786.5 625.5 c 128,-1,16
 796 628 796 628 807 635 c 128,-1,17
 818 642 818 642 828 649 c 128,-1,18
 838 656 838 656 853 668 c 128,-1,19
 868 680 868 680 879 690 c 128,-1,20
 890 700 890 700 909 716 c 128,-1,21
 928 732 928 732 941 744 c 1,22,-1
 963 744 l 1,23,-1
 1011 668 l 1,24,-1
 1009 646 l 1,25,-1
 816 464 l 1,26,-1
 789 455 l 1,27,28
 743 461 743 461 645.5 490 c 128,-1,29
 548 519 548 519 462 543.5 c 128,-1,30
 376 568 376 568 345 568 c 0,0,1
EndSplineSet
EndChar

StartChar: exclamdown
Encoding: 161 161 99
Width: 603
GlyphClass: 2
Flags: W
LayerCount: 2
Fore
SplineSet
345 820 m 0,0,1
 290 820 290 820 260 852 c 128,-1,2
 230 884 230 884 230 941 c 0,3,4
 230 980 230 980 244.5 1009 c 128,-1,5
 259 1038 259 1038 287.5 1053.5 c 128,-1,6
 316 1069 316 1069 354 1069 c 0,7,8
 411 1069 411 1069 442 1037.5 c 128,-1,9
 473 1006 473 1006 473 948 c 0,10,11
 473 889 473 889 439 854.5 c 128,-1,12
 405 820 405 820 345 820 c 0,0,1
54 -421 m 1,13,-1
 234 548 l 1,14,-1
 366 564 l 1,15,-1
 386 538 l 1,16,-1
 275 -412 l 1,17,-1
 250 -436 l 1,18,-1
 78 -447 l 1,19,-1
 54 -421 l 1,13,-1
EndSplineSet
EndChar

StartChar: cent
Encoding: 162 162 100
Width: 885
GlyphClass: 2
Flags: W
LayerCount: 2
Fore
SplineSet
787 939 m 1,0,-1
 748 932 l 1,1,2
 685 996 685 996 618 1007 c 1,3,-1
 493 254 l 1,4,5
 585 299 585 299 664 436 c 1,6,-1
 692 434 l 1,7,-1
 750 354 l 1,8,9
 688 252 688 252 621 193 c 128,-1,10
 554 134 554 134 468 102 c 1,11,-1
 407 -275 l 1,12,-1
 297 -275 l 1,13,-1
 284 -254 l 1,14,-1
 336 84 l 1,15,16
 249 102 249 102 196 142.5 c 128,-1,17
 143 183 143 183 113.5 263.5 c 128,-1,18
 84 344 84 344 84 471 c 0,19,20
 84 594 84 594 110 702 c 128,-1,21
 136 810 136 810 186.5 899 c 128,-1,22
 237 988 237 988 319.5 1050 c 128,-1,23
 402 1112 402 1112 509 1137 c 1,24,-1
 566 1484 l 1,25,-1
 675 1484 l 1,26,-1
 692 1464 l 1,27,-1
 642 1152 l 1,28,-1
 659 1152 l 1,29,-1
 823 1104 l 1,30,-1
 837 1080 l 1,31,-1
 787 939 l 1,0,-1
256 503 m 0,32,33
 256 423 256 423 268 368.5 c 128,-1,34
 280 314 280 314 303 283 c 128,-1,35
 326 252 326 252 362 241 c 1,36,-1
 486 993 l 1,37,38
 433 974 433 974 390 931.5 c 128,-1,39
 347 889 347 889 317.5 827 c 128,-1,40
 288 765 288 765 272 682.5 c 128,-1,41
 256 600 256 600 256 503 c 0,32,33
EndSplineSet
EndChar

StartChar: sterling
Encoding: 163 163 101
Width: 976
GlyphClass: 2
Flags: W
LayerCount: 2
Fore
SplineSet
731 1348 m 0,0,1
 857 1348 857 1348 978 1312 c 1,2,-1
 946 1146 l 1,3,-1
 932 1134 l 1,4,5
 810 1210 810 1210 703 1210 c 0,6,7
 605 1210 605 1210 547 1155.5 c 128,-1,8
 489 1101 489 1101 477 996 c 1,9,-1
 447 768 l 1,10,-1
 739 768 l 1,11,-1
 746 755 l 1,12,-1
 720 648 l 1,13,-1
 432 648 l 1,14,-1
 397 386 l 2,15,16
 387 304 387 304 359.5 251.5 c 128,-1,17
 332 199 332 199 280 163 c 1,18,-1
 280 154 l 1,19,-1
 638 154 l 1,20,-1
 855 171 l 1,21,-1
 861 154 l 1,22,-1
 827 -4 l 1,23,-1
 584 0 l 1,24,-1
 4 0 l 1,25,-1
 -4 13 l 1,26,-1
 20 130 l 1,27,28
 191 169 191 169 214 369 c 1,29,-1
 248 648 l 1,30,-1
 87 648 l 1,31,-1
 80 662 l 1,32,-1
 102 768 l 1,33,-1
 262 768 l 1,34,-1
 286 966 l 2,35,36
 300 1089 300 1089 357 1174.5 c 128,-1,37
 414 1260 414 1260 508.5 1304 c 128,-1,38
 603 1348 603 1348 731 1348 c 0,0,1
EndSplineSet
EndChar

StartChar: currency
Encoding: 164 164 102
Width: 990
GlyphClass: 2
Flags: W
LayerCount: 2
Fore
SplineSet
1005 1152 m 1,0,-1
 1000 1130 l 1,1,-1
 830 987 l 1,2,3
 868 926 868 926 868 839 c 0,4,5
 868 727 868 727 789 634 c 1,6,-1
 930 495 l 1,7,-1
 930 473 l 1,8,-1
 820 373 l 1,9,-1
 798 375 l 1,10,-1
 675 527 l 1,11,12
 584 468 584 468 486 468 c 256,13,14
 388 468 388 468 321 525 c 1,15,-1
 163 369 l 1,16,-1
 141 369 l 1,17,-1
 50 464 l 1,18,-1
 57 486 l 1,19,-1
 225 627 l 1,20,21
 186 690 186 690 186 777 c 0,22,23
 186 881 186 881 269 982 c 1,24,-1
 130 1121 l 1,25,-1
 130 1143 l 1,26,-1
 236 1243 l 1,27,-1
 259 1243 l 1,28,-1
 386 1087 l 1,29,30
 470 1143 470 1143 571 1143 c 0,31,32
 669 1143 669 1143 735 1091 c 1,33,-1
 894 1245 l 1,34,-1
 916 1248 l 1,35,-1
 1005 1152 l 1,0,-1
555 1019 m 0,36,37
 457 1019 457 1019 385.5 951 c 128,-1,38
 314 883 314 883 314 785 c 0,39,40
 314 702 314 702 367 649 c 128,-1,41
 420 596 420 596 503 596 c 0,42,43
 604 596 604 596 675 663 c 128,-1,44
 746 730 746 730 746 830 c 0,45,46
 746 912 746 912 692.5 965.5 c 128,-1,47
 639 1019 639 1019 555 1019 c 0,36,37
EndSplineSet
EndChar

StartChar: yen
Encoding: 165 165 103
Width: 1213
GlyphClass: 2
Flags: W
LayerCount: 2
Fore
SplineSet
1141 677 m 1,0,-1
 1150 668 l 1,1,-1
 1130 573 l 1,2,-1
 791 573 l 1,3,-1
 659 384 l 1,4,-1
 659 375 l 1,5,-1
 1100 375 l 1,6,-1
 1111 362 l 1,7,-1
 1093 269 l 1,8,-1
 644 269 l 1,9,-1
 616 0 l 1,10,-1
 432 0 l 1,11,-1
 473 269 l 1,12,-1
 68 269 l 1,13,-1
 59 280 l 1,14,-1
 78 375 l 1,15,-1
 486 375 l 1,16,-1
 488 393 l 1,17,-1
 416 573 l 1,18,-1
 104 573 l 1,19,-1
 98 586 l 1,20,-1
 115 677 l 1,21,-1
 373 677 l 1,22,-1
 186 1134 l 1,23,-1
 382 1134 l 1,24,-1
 400 1067 l 1,25,-1
 596 591 l 1,26,-1
 612 591 l 1,27,-1
 950 1059 l 1,28,-1
 991 1134 l 1,29,-1
 1184 1134 l 1,30,-1
 866 677 l 1,31,-1
 1141 677 l 1,0,-1
EndSplineSet
EndChar

StartChar: brokenbar
Encoding: 166 166 104
Width: 708
GlyphClass: 2
Flags: W
LayerCount: 2
Fore
SplineSet
598 1803 m 1,0,-1
 480 850 l 1,1,-1
 323 832 l 1,2,-1
 310 846 l 1,3,-1
 425 1805 l 1,4,-1
 584 1816 l 1,5,-1
 598 1803 l 1,0,-1
416 341 m 1,6,-1
 302 -584 l 1,7,-1
 150 -594 l 1,8,-1
 134 -573 l 1,9,-1
 248 345 l 1,10,-1
 400 364 l 1,11,-1
 416 341 l 1,6,-1
EndSplineSet
EndChar

StartChar: section
Encoding: 167 167 105
Width: 970
GlyphClass: 2
Flags: W
LayerCount: 2
Fore
SplineSet
455 1178 m 0,0,1
 455 1143 455 1143 479.5 1109 c 128,-1,2
 504 1075 504 1075 543.5 1046 c 128,-1,3
 583 1017 583 1017 630.5 986 c 128,-1,4
 678 955 678 955 725.5 919.5 c 128,-1,5
 773 884 773 884 812 845 c 128,-1,6
 851 806 851 806 875.5 753.5 c 128,-1,7
 900 701 900 701 900 642 c 0,8,9
 900 541 900 541 833.5 453 c 128,-1,10
 767 365 767 365 653 314 c 1,11,12
 746 221 746 221 746 111 c 0,13,14
 746 21 746 21 689.5 -57 c 128,-1,15
 633 -135 633 -135 533.5 -181.5 c 128,-1,16
 434 -228 434 -228 316 -228 c 0,17,18
 267 -228 267 -228 212.5 -219.5 c 128,-1,19
 158 -211 158 -211 103.5 -195 c 128,-1,20
 49 -179 49 -179 7 -157 c 1,21,-1
 54 26 l 1,22,-1
 78 41 l 1,23,24
 139 -20 139 -20 210.5 -53.5 c 128,-1,25
 282 -87 282 -87 352 -87 c 0,26,27
 439 -87 439 -87 497 -39 c 128,-1,28
 555 9 555 9 555 65 c 0,29,30
 555 97 555 97 535.5 128 c 128,-1,31
 516 159 516 159 484.5 184 c 128,-1,32
 453 209 453 209 412.5 238 c 128,-1,33
 372 267 372 267 329.5 293.5 c 128,-1,34
 287 320 287 320 246.5 354 c 128,-1,35
 206 388 206 388 174.5 423.5 c 128,-1,36
 143 459 143 459 123.5 506 c 128,-1,37
 104 553 104 553 104 605 c 0,38,39
 104 707 104 707 172.5 796 c 128,-1,40
 241 885 241 885 354 939 c 1,41,42
 264 1029 264 1029 264 1134 c 0,43,44
 264 1225 264 1225 319 1302.5 c 128,-1,45
 374 1380 374 1380 471.5 1426.5 c 128,-1,46
 569 1473 569 1473 686 1473 c 0,47,48
 825 1473 825 1473 941 1423 c 1,49,-1
 894 1243 l 1,50,-1
 864 1237 l 1,51,52
 744 1328 744 1328 642 1328 c 0,53,54
 564 1328 564 1328 509.5 1280 c 128,-1,55
 455 1232 455 1232 455 1178 c 0,0,1
541 402 m 1,56,57
 712 472 712 472 712 584 c 0,58,59
 712 607 712 607 705.5 628 c 128,-1,60
 699 649 699 649 683 670 c 128,-1,61
 667 691 667 691 653.5 706.5 c 128,-1,62
 640 722 640 722 612.5 743.5 c 128,-1,63
 585 765 585 765 569 777 c 128,-1,64
 553 789 553 789 518 813 c 128,-1,65
 483 837 483 837 468 848 c 1,66,67
 384 810 384 810 340.5 761 c 128,-1,68
 297 712 297 712 297 659 c 0,69,70
 297 638 297 638 304 617.5 c 128,-1,71
 311 597 311 597 326 577 c 128,-1,72
 341 557 341 557 355.5 541 c 128,-1,73
 370 525 370 525 396 505 c 128,-1,74
 422 485 422 485 440 472 c 128,-1,75
 458 459 458 459 490.5 436.5 c 128,-1,76
 523 414 523 414 541 402 c 1,56,57
EndSplineSet
EndChar

StartChar: dieresis
Encoding: 168 168 106
Width: 885
GlyphClass: 2
Flags: W
LayerCount: 2
Fore
SplineSet
369 1505 m 0,0,1
 417 1505 417 1505 446 1474 c 128,-1,2
 475 1443 475 1443 475 1393 c 0,3,4
 475 1337 475 1337 443.5 1304 c 128,-1,5
 412 1271 412 1271 360 1271 c 0,6,7
 305 1271 305 1271 276.5 1300 c 128,-1,8
 248 1329 248 1329 248 1384 c 0,9,10
 248 1440 248 1440 280 1472.5 c 128,-1,11
 312 1505 312 1505 369 1505 c 0,0,1
741 1503 m 0,12,13
 792 1503 792 1503 820 1472.5 c 128,-1,14
 848 1442 848 1442 848 1391 c 0,15,16
 848 1334 848 1334 817.5 1301.5 c 128,-1,17
 787 1269 787 1269 735 1269 c 0,18,19
 708 1269 708 1269 686.5 1276.5 c 128,-1,20
 665 1284 665 1284 651 1299 c 128,-1,21
 637 1314 637 1314 630 1335 c 128,-1,22
 623 1356 623 1356 623 1382 c 0,23,24
 623 1438 623 1438 654.5 1470.5 c 128,-1,25
 686 1503 686 1503 741 1503 c 0,12,13
EndSplineSet
EndChar

StartChar: copyright
Encoding: 169 169 107
Width: 1572
GlyphClass: 2
Flags: W
LayerCount: 2
Fore
SplineSet
803 1360 m 256,0,1
 954 1360 954 1360 1080 1309.5 c 128,-1,2
 1206 1259 1206 1259 1293.5 1169 c 128,-1,3
 1381 1079 1381 1079 1429 949.5 c 128,-1,4
 1477 820 1477 820 1477 666 c 128,-1,5
 1477 512 1477 512 1429 382.5 c 128,-1,6
 1381 253 1381 253 1293.5 163 c 128,-1,7
 1206 73 1206 73 1080 22.5 c 128,-1,8
 954 -28 954 -28 803 -28 c 256,9,10
 652 -28 652 -28 526.5 22.5 c 128,-1,11
 401 73 401 73 313 163 c 128,-1,12
 225 253 225 253 176.5 382.5 c 128,-1,13
 128 512 128 512 128 666 c 128,-1,14
 128 820 128 820 176.5 949.5 c 128,-1,15
 225 1079 225 1079 313 1169 c 128,-1,16
 401 1259 401 1259 526.5 1309.5 c 128,-1,17
 652 1360 652 1360 803 1360 c 256,0,1
802.5 1273 m 128,-1,19
 628 1273 628 1273 494.5 1197.5 c 128,-1,20
 361 1122 361 1122 287.5 984 c 128,-1,21
 214 846 214 846 214 666 c 128,-1,22
 214 486 214 486 287.5 348 c 128,-1,23
 361 210 361 210 494.5 134.5 c 128,-1,24
 628 59 628 59 802.5 59 c 128,-1,25
 977 59 977 59 1110.5 134.5 c 128,-1,26
 1244 210 1244 210 1317.5 348 c 128,-1,27
 1391 486 1391 486 1391 666 c 128,-1,28
 1391 846 1391 846 1317.5 984 c 128,-1,29
 1244 1122 1244 1122 1110.5 1197.5 c 128,-1,18
 977 1273 977 1273 802.5 1273 c 128,-1,19
844 1057 m 0,30,31
 943 1057 943 1057 1052 1009 c 1,32,-1
 1023 889 l 1,33,-1
 1009 882 l 1,34,35
 986 897 986 897 956 908 c 128,-1,36
 926 919 926 919 895.5 924.5 c 128,-1,37
 865 930 865 930 837 930 c 0,38,39
 623 930 623 930 623 682 c 0,40,41
 623 414 623 414 839 414 c 0,42,43
 934 414 934 414 1023 460 c 1,44,-1
 1039 455 l 1,45,-1
 1026 332 l 1,46,47
 933 286 933 286 830 286 c 0,48,49
 651 286 651 286 558.5 384.5 c 128,-1,50
 466 483 466 483 466 668 c 0,51,52
 466 854 466 854 564 955.5 c 128,-1,53
 662 1057 662 1057 844 1057 c 0,30,31
EndSplineSet
EndChar

StartChar: ordfeminine
Encoding: 170 170 108
Width: 720
GlyphClass: 2
Flags: W
AnchorPoint: "Anchor-1" 0 0 basechar 0
AnchorPoint: "Anchor-0" 624 1052 basechar 0
LayerCount: 2
Fore
SplineSet
739 1464 m 1,0,-1
 666 926 l 1,1,-1
 655 761 l 1,2,-1
 491 748 l 1,3,-1
 529 1043 l 1,4,-1
 527 1035 l 1,5,-1
 509 1035 l 1,6,7
 409 849 409 849 306 746 c 1,8,-1
 282 746 l 1,9,10
 197 776 197 776 164.5 830.5 c 128,-1,11
 132 885 132 885 132 980 c 0,12,13
 132 1064 132 1064 154.5 1141.5 c 128,-1,14
 177 1219 177 1219 219.5 1285.5 c 128,-1,15
 262 1352 262 1352 330.5 1399.5 c 128,-1,16
 399 1447 399 1447 486 1466 c 1,17,-1
 498 1466 l 1,18,-1
 618 1451 l 1,19,-1
 723 1475 l 1,20,-1
 739 1464 l 1,0,-1
330 898 m 0,21,22
 343 898 343 898 375 936 c 128,-1,23
 407 974 407 974 456.5 1056.5 c 128,-1,24
 506 1139 506 1139 555 1243 c 1,25,-1
 562 1295 l 1,26,-1
 564 1330 l 1,27,-1
 466 1348 l 1,28,29
 381 1346 381 1346 332.5 1261 c 128,-1,30
 284 1176 284 1176 284 1043 c 0,31,32
 284 1013 284 1013 287 987.5 c 128,-1,33
 290 962 290 962 295 946 c 128,-1,34
 300 930 300 930 306 918.5 c 128,-1,35
 312 907 312 907 318 902.5 c 128,-1,36
 324 898 324 898 330 898 c 0,21,22
EndSplineSet
EndChar

StartChar: guillemetleft
Encoding: 171 171 109
Width: 929
GlyphClass: 2
Flags: W
LayerCount: 2
Fore
SplineSet
80 501 m 1,0,-1
 84 541 l 1,1,-1
 455 930 l 1,2,-1
 553 870 l 1,3,-1
 553 846 l 1,4,-1
 245 514 l 1,5,-1
 473 182 l 1,6,-1
 464 157 l 1,7,-1
 352 100 l 1,8,-1
 80 501 l 1,0,-1
471 501 m 1,9,-1
 475 541 l 1,10,-1
 846 930 l 1,11,-1
 944 870 l 1,12,-1
 944 846 l 1,13,-1
 636 514 l 1,14,-1
 864 182 l 1,15,-1
 855 157 l 1,16,-1
 744 100 l 1,17,-1
 471 501 l 1,9,-1
EndSplineSet
EndChar

StartChar: logicalnot
Encoding: 172 172 110
Width: 1091
GlyphClass: 2
Flags: W
LayerCount: 2
Fore
SplineSet
987 659 m 1,0,-1
 920 130 l 1,1,-1
 785 118 l 1,2,-1
 768 134 l 1,3,-1
 816 523 l 1,4,-1
 78 523 l 1,5,-1
 63 538 l 1,6,-1
 91 675 l 1,7,-1
 976 675 l 1,8,-1
 987 659 l 1,0,-1
EndSplineSet
EndChar

StartChar: softhyphen
Encoding: 173 173 111
Width: 694
GlyphClass: 2
Flags: W
LayerCount: 2
Fore
SplineSet
650 677 m 1,0,-1
 632 538 l 1,1,-1
 78 460 l 1,2,-1
 59 477 l 1,3,-1
 78 618 l 1,4,-1
 632 696 l 1,5,-1
 650 677 l 1,0,-1
EndSplineSet
EndChar

StartChar: registered
Encoding: 174 174 112
Width: 1002
GlyphClass: 2
Flags: W
LayerCount: 2
Fore
SplineSet
502.5 1596 m 128,-1,1
 690 1596 690 1596 804 1482.5 c 128,-1,2
 918 1369 918 1369 918 1182 c 0,3,4
 918 993 918 993 804 878.5 c 128,-1,5
 690 764 690 764 503 764 c 0,6,7
 379 764 379 764 284.5 815.5 c 128,-1,8
 190 867 190 867 138.5 962 c 128,-1,9
 87 1057 87 1057 87 1182 c 0,10,11
 87 1369 87 1369 201 1482.5 c 128,-1,0
 315 1596 315 1596 502.5 1596 c 128,-1,1
505 830 m 0,12,13
 662 830 662 830 758.5 926 c 128,-1,14
 855 1022 855 1022 855 1182 c 0,15,16
 855 1340 855 1340 758.5 1435 c 128,-1,17
 662 1530 662 1530 505 1530 c 0,18,19
 346 1530 346 1530 249 1435 c 128,-1,20
 152 1340 152 1340 152 1182 c 0,21,22
 152 1022 152 1022 249 926 c 128,-1,23
 346 830 346 830 505 830 c 0,12,13
673 1284 m 0,24,25
 673 1257 673 1257 662.5 1232 c 128,-1,26
 652 1207 652 1207 632 1186 c 128,-1,27
 612 1165 612 1165 584 1150 c 1,28,29
 656 1047 656 1047 703 993 c 1,30,-1
 700 985 l 1,31,32
 664 972 664 972 612 968 c 1,33,-1
 603 976 l 1,34,35
 567 1025 567 1025 509 1128 c 1,36,-1
 434 1128 l 1,37,-1
 434 1117 l 1,38,-1
 438 976 l 1,39,-1
 347 976 l 1,40,-1
 350 1107 l 1,41,-1
 347 1416 l 1,42,-1
 523 1416 l 2,43,44
 596 1416 596 1416 634.5 1382.5 c 128,-1,45
 673 1349 673 1349 673 1284 c 0,24,25
436 1200 m 1,46,-1
 514 1195 l 1,47,48
 547 1207 547 1207 563 1226 c 128,-1,49
 579 1245 579 1245 579 1275 c 0,50,51
 579 1344 579 1344 493 1348 c 1,52,-1
 438 1345 l 1,53,-1
 436 1200 l 1,46,-1
EndSplineSet
EndChar

StartChar: macron
Encoding: 175 175 113
Width: 885
GlyphClass: 2
Flags: W
LayerCount: 2
Fore
SplineSet
882 1446 m 1,0,-1
 870 1319 l 1,1,-1
 230 1319 l 1,2,-1
 214 1336 l 1,3,-1
 228 1462 l 1,4,-1
 868 1462 l 1,5,-1
 882 1446 l 1,0,-1
EndSplineSet
EndChar

StartChar: degree
Encoding: 176 176 114
Width: 666
GlyphClass: 2
Flags: W
LayerCount: 2
Fore
SplineSet
451 1475 m 0,0,1
 562 1475 562 1475 634.5 1402 c 128,-1,2
 707 1329 707 1329 707 1219 c 0,3,4
 707 1134 707 1134 661.5 1060.5 c 128,-1,5
 616 987 616 987 541 944.5 c 128,-1,6
 466 902 466 902 382 902 c 0,7,8
 307 902 307 902 247.5 936 c 128,-1,9
 188 970 188 970 155.5 1028.5 c 128,-1,10
 123 1087 123 1087 123 1159 c 0,11,12
 123 1244 123 1244 168.5 1317.5 c 128,-1,13
 214 1391 214 1391 289.5 1433 c 128,-1,14
 365 1475 365 1475 451 1475 c 0,0,1
438 1373 m 0,15,16
 354 1373 354 1373 291 1313.5 c 128,-1,17
 228 1254 228 1254 228 1171 c 0,18,19
 228 1126 228 1126 249 1088 c 128,-1,20
 270 1050 270 1050 307.5 1027.5 c 128,-1,21
 345 1005 345 1005 391 1005 c 0,22,23
 476 1005 476 1005 539.5 1064.5 c 128,-1,24
 603 1124 603 1124 603 1207 c 0,25,26
 603 1277 603 1277 555.5 1325 c 128,-1,27
 508 1373 508 1373 438 1373 c 0,15,16
EndSplineSet
EndChar

StartChar: plusminus
Encoding: 177 177 115
Width: 1085
GlyphClass: 2
Flags: W
LayerCount: 2
Fore
SplineSet
686 1063 m 1,0,-1
 636 675 l 1,1,-1
 1023 675 l 1,2,-1
 1041 659 l 1,3,-1
 1011 523 l 1,4,-1
 618 523 l 1,5,-1
 573 130 l 1,6,-1
 432 118 l 1,7,-1
 418 134 l 1,8,-1
 466 523 l 1,9,-1
 75 523 l 1,10,-1
 63 538 l 1,11,-1
 93 675 l 1,12,-1
 484 675 l 1,13,-1
 532 1069 l 1,14,-1
 670 1082 l 1,15,-1
 686 1063 l 1,0,-1
944 -91 m 1,16,-1
 930 -228 l 1,17,-1
 -4 -228 l 1,18,-1
 -20 -211 l 1,19,-1
 -7 -75 l 1,20,-1
 926 -75 l 1,21,-1
 944 -91 l 1,16,-1
EndSplineSet
EndChar

StartChar: twosuperior
Encoding: 178 178 116
Width: 801
GlyphClass: 2
Flags: W
LayerCount: 2
Fore
SplineSet
473 1601 m 0,0,1
 523 1601 523 1601 568 1587.5 c 128,-1,2
 613 1574 613 1574 646 1550 c 128,-1,3
 679 1526 679 1526 698.5 1490 c 128,-1,4
 718 1454 718 1454 718 1412 c 0,5,6
 718 1364 718 1364 690.5 1310 c 128,-1,7
 663 1256 663 1256 616 1198.5 c 128,-1,8
 569 1141 569 1141 482 1048 c 2,9,-1
 316 872 l 1,10,-1
 319 868 l 1,11,-1
 582 868 l 1,12,-1
 731 875 l 1,13,-1
 739 861 l 1,14,-1
 703 720 l 1,15,-1
 509 727 l 1,16,-1
 132 727 l 1,17,-1
 70 725 l 1,18,-1
 61 731 l 1,19,-1
 73 841 l 1,20,-1
 325 1089 l 1,21,22
 436 1201 436 1201 481.5 1261 c 128,-1,23
 527 1321 527 1321 527 1371 c 0,24,25
 527 1388 527 1388 520.5 1403 c 128,-1,26
 514 1418 514 1418 502 1429 c 128,-1,27
 490 1440 490 1440 470.5 1446.5 c 128,-1,28
 451 1453 451 1453 427 1453 c 0,29,30
 375 1453 375 1453 312.5 1423 c 128,-1,31
 250 1393 250 1393 193 1341 c 1,32,-1
 173 1341 l 1,33,-1
 157 1477 l 1,34,35
 324 1601 324 1601 473 1601 c 0,0,1
EndSplineSet
EndChar

StartChar: threesuperior
Encoding: 179 179 117
Width: 708
GlyphClass: 2
Flags: W
LayerCount: 2
Fore
SplineSet
457 1603 m 0,0,1
 566 1603 566 1603 640 1550 c 128,-1,2
 714 1497 714 1497 714 1412 c 0,3,4
 714 1349 714 1349 672 1289.5 c 128,-1,5
 630 1230 630 1230 546 1193 c 1,6,-1
 543 1187 l 1,7,8
 694 1145 694 1145 694 1005 c 0,9,10
 694 877 694 877 579.5 797.5 c 128,-1,11
 465 718 465 718 284 718 c 0,12,13
 198 718 198 718 123 735 c 1,14,-1
 130 861 l 1,15,-1
 143 872 l 1,16,17
 238 850 238 850 302 850 c 0,18,19
 401 850 401 850 459.5 889.5 c 128,-1,20
 518 929 518 929 518 996 c 0,21,22
 518 1046 518 1046 482 1073.5 c 128,-1,23
 446 1101 446 1101 377 1104 c 1,24,-1
 275 1104 l 1,25,-1
 266 1114 l 1,26,-1
 282 1234 l 1,27,-1
 354 1234 l 1,28,29
 417 1236 417 1236 471 1278 c 128,-1,30
 525 1320 525 1320 525 1378 c 0,31,32
 525 1418 525 1418 498 1440 c 128,-1,33
 471 1462 471 1462 423 1462 c 0,34,35
 343 1462 343 1462 232 1393 c 1,36,-1
 211 1393 l 1,37,-1
 198 1514 l 1,38,39
 269 1560 269 1560 329.5 1581.5 c 128,-1,40
 390 1603 390 1603 457 1603 c 0,0,1
EndSplineSet
EndChar

StartChar: acute
Encoding: 180 180 118
Width: 885
GlyphClass: 2
Flags: W
LayerCount: 2
Fore
SplineSet
709 1603 m 1,0,-1
 794 1484 l 1,1,-1
 787 1462 l 1,2,3
 565 1301 565 1301 382 1180 c 1,4,-1
 360 1182 l 1,5,-1
 302 1269 l 1,6,7
 552 1475 552 1475 689 1605 c 1,8,-1
 709 1603 l 1,0,-1
EndSplineSet
EndChar

StartChar: micro
Encoding: 181 181 119
Width: 1108
GlyphClass: 2
Flags: W
LayerCount: 2
Fore
SplineSet
1009 1054 m 1,0,-1
 898 252 l 1,1,-1
 889 7 l 1,2,-1
 679 -9 l 1,3,-1
 748 471 l 1,4,-1
 725 471 l 1,5,6
 618 290 618 290 530 178 c 128,-1,7
 442 66 442 66 345 -9 c 1,8,-1
 321 -9 l 1,9,10
 302 -6 302 -6 282 2 c 1,11,-1
 256 -175 l 1,12,-1
 248 -425 l 1,13,-1
 39 -441 l 1,14,-1
 214 811 l 1,15,-1
 223 1041 l 1,16,-1
 427 1054 l 1,17,-1
 323 291 l 1,18,-1
 319 266 l 1,19,20
 320 239 320 239 333 226.5 c 128,-1,21
 346 214 346 214 364 214 c 0,22,23
 406 214 406 214 469 279 c 128,-1,24
 532 344 532 344 617 483.5 c 128,-1,25
 702 623 702 623 796 823 c 1,26,-1
 805 1041 l 1,27,-1
 1009 1054 l 1,0,-1
EndSplineSet
EndChar

StartChar: paragraph
Encoding: 182 182 120
Width: 1133
GlyphClass: 2
Flags: W
LayerCount: 2
Fore
SplineSet
1193 1439 m 1,0,-1
 1157 1286 l 1,1,-1
 996 1286 l 1,2,-1
 882 425 l 1,3,-1
 868 300 l 1,4,5
 848 140 848 140 746 27 c 128,-1,6
 644 -86 644 -86 423 -182 c 1,7,-1
 373 -80 l 1,8,-1
 377 -57 l 1,9,10
 513 19 513 19 579 100 c 128,-1,11
 645 181 645 181 657 286 c 2,12,-1
 670 393 l 1,13,-1
 775 1289 l 1,14,-1
 653 1289 l 1,15,16
 563 1279 563 1279 498.5 1234.5 c 128,-1,17
 434 1190 434 1190 401.5 1117 c 128,-1,18
 369 1044 369 1044 369 948 c 0,19,20
 369 835 369 835 428 752.5 c 128,-1,21
 487 670 487 670 601 629 c 1,22,-1
 512 509 l 1,23,24
 329 549 329 549 231.5 658.5 c 128,-1,25
 134 768 134 768 134 937 c 0,26,27
 134 1181 134 1181 294.5 1320.5 c 128,-1,28
 455 1460 455 1460 731 1460 c 2,29,-1
 1180 1460 l 1,30,-1
 1193 1439 l 1,0,-1
EndSplineSet
EndChar

StartChar: periodcentered
Encoding: 183 183 121
Width: 522
GlyphClass: 2
Flags: W
LayerCount: 2
Fore
SplineSet
271 686 m 0,0,1
 327 686 327 686 357.5 655 c 128,-1,2
 388 624 388 624 388 568 c 0,3,4
 388 509 388 509 354.5 473.5 c 128,-1,5
 321 438 321 438 264 438 c 256,6,7
 207 438 207 438 176 470 c 128,-1,8
 145 502 145 502 145 559 c 0,9,10
 145 618 145 618 179 652 c 128,-1,11
 213 686 213 686 271 686 c 0,0,1
EndSplineSet
EndChar

StartChar: cedilla
Encoding: 184 184 122
Width: 885
GlyphClass: 2
Flags: W
LayerCount: 2
Fore
SplineSet
354 -113 m 1,0,-1
 432 -159 l 1,1,2
 521 -208 521 -208 521 -289 c 0,3,4
 521 -359 521 -359 467 -403 c 128,-1,5
 413 -447 413 -447 325 -447 c 0,6,7
 230 -447 230 -447 152 -377 c 1,8,-1
 173 -275 l 1,9,-1
 184 -271 l 1,10,11
 248 -339 248 -339 314 -339 c 0,12,13
 346 -339 346 -339 364 -325 c 128,-1,14
 382 -311 382 -311 382 -284 c 0,15,16
 382 -265 382 -265 370 -253.5 c 128,-1,17
 358 -242 358 -242 336 -232 c 1,18,-1
 225 -166 l 1,19,-1
 280 48 l 1,20,-1
 400 48 l 1,21,-1
 354 -113 l 1,0,-1
EndSplineSet
EndChar

StartChar: onesuperior
Encoding: 185 185 123
Width: 599
GlyphClass: 2
Flags: W
LayerCount: 2
Fore
SplineSet
541 1584 m 1,0,-1
 468 1035 l 1,1,-1
 436 727 l 1,2,-1
 252 727 l 1,3,-1
 293 1013 l 1,4,-1
 341 1403 l 1,5,-1
 145 1358 l 1,6,-1
 134 1366 l 1,7,-1
 152 1507 l 1,8,-1
 521 1605 l 1,9,-1
 541 1584 l 1,0,-1
EndSplineSet
EndChar

StartChar: ordmasculine
Encoding: 186 186 124
Width: 685
GlyphClass: 2
Flags: W
LayerCount: 2
Fore
SplineSet
491 1473 m 1,0,-1
 509 1473 l 1,1,2
 694 1441 694 1441 694 1230 c 0,3,4
 694 1015 694 1015 596.5 883.5 c 128,-1,5
 499 752 499 752 332 744 c 1,6,-1
 319 746 l 1,7,8
 228 758 228 758 180 820 c 128,-1,9
 132 882 132 882 132 996 c 0,10,11
 132 1205 132 1205 229 1335 c 128,-1,12
 326 1465 326 1465 491 1473 c 1,0,-1
462 1351 m 0,13,14
 404 1351 404 1351 364.5 1307 c 128,-1,15
 325 1263 325 1263 305.5 1184 c 128,-1,16
 286 1105 286 1105 286 996 c 0,17,18
 286 925 286 925 304 893 c 128,-1,19
 322 861 322 861 362 861 c 0,20,21
 532 861 532 861 532 1219 c 0,22,23
 532 1266 532 1266 525 1294.5 c 128,-1,24
 518 1323 518 1323 503 1337 c 128,-1,25
 488 1351 488 1351 462 1351 c 0,13,14
EndSplineSet
EndChar

StartChar: guillemetright
Encoding: 187 187 125
Width: 917
GlyphClass: 2
Flags: W
LayerCount: 2
Fore
SplineSet
464 532 m 1,0,-1
 460 491 l 1,1,-1
 89 102 l 1,2,-1
 -9 161 l 1,3,-1
 -9 186 l 1,4,-1
 297 518 l 1,5,-1
 70 850 l 1,6,-1
 80 875 l 1,7,-1
 191 932 l 1,8,-1
 464 532 l 1,0,-1
857 532 m 1,9,-1
 850 491 l 1,10,-1
 480 102 l 1,11,-1
 382 161 l 1,12,-1
 382 186 l 1,13,-1
 689 518 l 1,14,-1
 464 850 l 1,15,-1
 471 875 l 1,16,-1
 582 932 l 1,17,-1
 857 532 l 1,9,-1
EndSplineSet
EndChar

StartChar: onequarter
Encoding: 188 188 126
Width: 1627
GlyphClass: 2
Flags: W
LayerCount: 2
Fore
SplineSet
1412 1457 m 1,0,-1
 137 -206 l 1,1,-1
 50 -150 l 1,2,-1
 41 -123 l 1,3,-1
 1316 1548 l 1,4,-1
 1401 1491 l 1,5,-1
 1412 1457 l 1,0,-1
128 1225 m 1,6,-1
 115 1234 l 1,7,-1
 134 1375 l 1,8,-1
 503 1473 l 1,9,-1
 523 1453 l 1,10,-1
 451 902 l 1,11,-1
 418 596 l 1,12,-1
 234 596 l 1,13,-1
 275 882 l 1,14,-1
 323 1271 l 1,15,-1
 128 1225 l 1,6,-1
1510 216 m 1,16,-1
 1380 221 l 1,17,-1
 1364 11 l 1,18,-1
 1351 0 l 1,19,-1
 1207 -7 l 1,20,-1
 1198 2 l 1,21,-1
 1230 221 l 1,22,-1
 973 221 l 1,23,-1
 848 216 l 1,24,-1
 837 230 l 1,25,-1
 850 343 l 1,26,-1
 1293 866 l 1,27,-1
 1460 866 l 1,28,-1
 1393 357 l 1,29,-1
 1523 357 l 1,30,-1
 1532 339 l 1,31,-1
 1510 216 l 1,16,-1
1013 357 m 1,32,-1
 1248 357 l 1,33,-1
 1286 666 l 1,34,-1
 1275 666 l 1,35,-1
 1013 357 l 1,32,-1
EndSplineSet
EndChar

StartChar: onehalf
Encoding: 189 189 127
Width: 1666
GlyphClass: 2
Flags: W
LayerCount: 2
Fore
SplineSet
1401 1491 m 1,0,-1
 1412 1457 l 1,1,-1
 137 -206 l 1,2,-1
 50 -150 l 1,3,-1
 41 -123 l 1,4,-1
 1316 1548 l 1,5,-1
 1401 1491 l 1,0,-1
523 1453 m 1,6,-1
 451 902 l 1,7,-1
 418 596 l 1,8,-1
 234 596 l 1,9,-1
 275 882 l 1,10,-1
 323 1271 l 1,11,-1
 128 1225 l 1,12,-1
 115 1234 l 1,13,-1
 134 1375 l 1,14,-1
 503 1473 l 1,15,-1
 523 1453 l 1,6,-1
1295 872 m 0,16,17
 1399 872 1399 872 1470.5 820 c 128,-1,18
 1542 768 1542 768 1542 684 c 0,19,20
 1542 615 1542 615 1489 537.5 c 128,-1,21
 1436 460 1436 460 1305 321 c 2,22,-1
 1139 145 l 1,23,-1
 1141 141 l 1,24,-1
 1405 141 l 1,25,-1
 1555 148 l 1,26,-1
 1562 134 l 1,27,-1
 1525 -7 l 1,28,-1
 1332 0 l 1,29,-1
 955 0 l 1,30,-1
 894 -2 l 1,31,-1
 885 4 l 1,32,-1
 896 113 l 1,33,-1
 1148 362 l 1,34,35
 1205 420 1205 420 1234 451 c 128,-1,36
 1263 482 1263 482 1294.5 521 c 128,-1,37
 1326 560 1326 560 1338.5 588.5 c 128,-1,38
 1351 617 1351 617 1351 644 c 0,39,40
 1351 679 1351 679 1324 702 c 128,-1,41
 1297 725 1297 725 1250 725 c 0,42,43
 1197 725 1197 725 1134.5 695.5 c 128,-1,44
 1072 666 1072 666 1016 614 c 1,45,-1
 996 614 l 1,46,-1
 980 750 l 1,47,48
 1146 872 1146 872 1295 872 c 0,16,17
EndSplineSet
EndChar

StartChar: threequarters
Encoding: 190 190 128
Width: 1713
GlyphClass: 2
Flags: W
LayerCount: 2
Fore
SplineSet
1498 1457 m 1,0,-1
 223 -206 l 1,1,-1
 137 -150 l 1,2,-1
 128 -123 l 1,3,-1
 1403 1548 l 1,4,-1
 1486 1491 l 1,5,-1
 1498 1457 l 1,0,-1
657 872 m 0,6,7
 657 745 657 745 543 665.5 c 128,-1,8
 429 586 429 586 248 586 c 0,9,10
 162 586 162 586 87 603 c 1,11,-1
 93 729 l 1,12,-1
 107 741 l 1,13,14
 206 718 206 718 266 718 c 0,15,16
 365 718 365 718 423.5 757.5 c 128,-1,17
 482 797 482 797 482 864 c 0,18,19
 482 914 482 914 445.5 942 c 128,-1,20
 409 970 409 970 341 973 c 1,21,-1
 239 973 l 1,22,-1
 230 982 l 1,23,-1
 245 1102 l 1,24,-1
 319 1102 l 1,25,26
 382 1104 382 1104 435 1146 c 128,-1,27
 488 1188 488 1188 488 1245 c 0,28,29
 488 1272 488 1272 476 1291 c 128,-1,30
 464 1310 464 1310 441 1320 c 128,-1,31
 418 1330 418 1330 386 1330 c 0,32,33
 304 1330 304 1330 195 1262 c 1,34,-1
 175 1262 l 1,35,-1
 161 1382 l 1,36,37
 208 1412 208 1412 248.5 1431 c 128,-1,38
 289 1450 289 1450 332 1460.5 c 128,-1,39
 375 1471 375 1471 421 1471 c 0,40,41
 529 1471 529 1471 603 1418 c 128,-1,42
 677 1365 677 1365 677 1280 c 0,43,44
 677 1217 677 1217 635 1157.5 c 128,-1,45
 593 1098 593 1098 509 1061 c 1,46,-1
 507 1054 l 1,47,48
 657 1013 657 1013 657 872 c 0,6,7
1598 216 m 1,49,-1
 1469 221 l 1,50,-1
 1453 11 l 1,51,-1
 1439 0 l 1,52,-1
 1295 -7 l 1,53,-1
 1286 2 l 1,54,-1
 1319 221 l 1,55,-1
 1061 221 l 1,56,-1
 937 216 l 1,57,-1
 926 230 l 1,58,-1
 939 343 l 1,59,-1
 1382 866 l 1,60,-1
 1548 866 l 1,61,-1
 1482 357 l 1,62,-1
 1612 357 l 1,63,-1
 1621 339 l 1,64,-1
 1598 216 l 1,49,-1
1102 357 m 1,65,-1
 1336 357 l 1,66,-1
 1375 666 l 1,67,-1
 1364 666 l 1,68,-1
 1102 357 l 1,65,-1
EndSplineSet
EndChar

StartChar: questiondown
Encoding: 191 191 129
Width: 759
GlyphClass: 2
Flags: W
LayerCount: 2
Fore
SplineSet
480 820 m 0,0,1
 425 820 425 820 394.5 852 c 128,-1,2
 364 884 364 884 364 941 c 0,3,4
 364 980 364 980 379 1009 c 128,-1,5
 394 1038 394 1038 422 1053.5 c 128,-1,6
 450 1069 450 1069 488 1069 c 0,7,8
 545 1069 545 1069 576 1037.5 c 128,-1,9
 607 1006 607 1006 607 948 c 0,10,11
 607 889 607 889 573 854.5 c 128,-1,12
 539 820 539 820 480 820 c 0,0,1
503 -438 m 1,13,-1
 477 -453 l 1,14,15
 214 -438 214 -438 73 -352 c 128,-1,16
 -68 -266 -68 -266 -68 -121 c 0,17,18
 -68 -22 -68 -22 -6 65.5 c 128,-1,19
 56 153 56 153 169 216 c 1,20,-1
 364 332 l 1,21,-1
 369 341 l 1,22,-1
 382 551 l 1,23,-1
 538 571 l 1,24,-1
 555 553 l 1,25,-1
 541 286 l 1,26,-1
 527 264 l 1,27,-1
 297 141 l 1,28,29
 221 99 221 99 179 43.5 c 128,-1,30
 137 -12 137 -12 137 -78 c 0,31,32
 137 -142 137 -142 180.5 -187 c 128,-1,33
 224 -232 224 -232 315 -259 c 128,-1,34
 406 -286 406 -286 546 -295 c 1,35,-1
 559 -319 l 1,36,-1
 503 -438 l 1,13,-1
EndSplineSet
EndChar

StartChar: Agrave
Encoding: 192 192 130
Width: 1274
GlyphClass: 2
Flags: W
AnchorPoint: "Anchor-1" 0 0 basechar 0
AnchorPoint: "Anchor-0" 761 1459 basechar 0
LayerCount: 2
Fore
SplineSet
1030 1651 m 1,0,-1
 1005 1642 l 1,1,2
 702 1761 702 1761 548 1830 c 1,3,-1
 538 1853 l 1,4,-1
 596 1982 l 1,5,-1
 618 1987 l 1,6,7
 796 1883 796 1883 1069 1746 c 1,8,-1
 1030 1651 l 1,0,-1
1171 0 m 1,9,-1
 946 0 l 1,10,-1
 932 161 l 1,11,-1
 896 371 l 1,12,-1
 601 377 l 1,13,-1
 334 373 l 1,14,-1
 243 171 l 1,15,-1
 184 0 l 1,16,-1
 -37 0 l 1,17,-1
 642 1460 l 1,18,-1
 902 1460 l 1,19,-1
 1171 0 l 1,9,-1
864 555 m 1,20,-1
 748 1237 l 1,21,-1
 729 1237 l 1,22,-1
 421 557 l 1,23,-1
 638 553 l 1,24,-1
 864 555 l 1,20,-1
EndSplineSet
Position2: "'cpsp' Capital Spacing lookup 0 subtable" dx=16 dy=0 dh=33 dv=0
EndChar

StartChar: Aacute
Encoding: 193 193 131
Width: 1274
GlyphClass: 2
Flags: W
AnchorPoint: "Anchor-1" 0 0 basechar 0
AnchorPoint: "Anchor-0" 761 1459 basechar 0
LayerCount: 2
Fore
SplineSet
598 1644 m 1,0,-1
 559 1739 l 1,1,2
 866 1896 866 1896 1009 1982 c 1,3,-1
 1032 1976 l 1,4,-1
 1089 1846 l 1,5,-1
 1080 1823 l 1,6,7
 912 1749 912 1749 623 1635 c 1,8,-1
 598 1644 l 1,0,-1
1171 0 m 1,9,-1
 946 0 l 1,10,-1
 932 161 l 1,11,-1
 896 371 l 1,12,-1
 601 377 l 1,13,-1
 334 373 l 1,14,-1
 243 171 l 1,15,-1
 184 0 l 1,16,-1
 -37 0 l 1,17,-1
 642 1460 l 1,18,-1
 902 1460 l 1,19,-1
 1171 0 l 1,9,-1
864 555 m 1,20,-1
 748 1237 l 1,21,-1
 729 1237 l 1,22,-1
 421 557 l 1,23,-1
 638 553 l 1,24,-1
 864 555 l 1,20,-1
EndSplineSet
Position2: "'cpsp' Capital Spacing lookup 0 subtable" dx=16 dy=0 dh=33 dv=0
EndChar

StartChar: Acircumflex
Encoding: 194 194 132
Width: 1274
GlyphClass: 2
Flags: W
AnchorPoint: "Anchor-1" 0 0 basechar 0
AnchorPoint: "Anchor-0" 761 1459 basechar 0
LayerCount: 2
Fore
SplineSet
532 1659 m 1,0,-1
 501 1753 l 1,1,2
 647 1844 647 1844 798 1969 c 1,3,-1
 852 1969 l 1,4,5
 972 1856 972 1856 1111 1753 c 1,6,-1
 1054 1659 l 1,7,-1
 1032 1659 l 1,8,9
 947 1716 947 1716 816 1809 c 1,10,11
 791 1794 791 1794 557 1659 c 1,12,-1
 532 1659 l 1,0,-1
1171 0 m 1,13,-1
 946 0 l 1,14,-1
 932 161 l 1,15,-1
 896 371 l 1,16,-1
 601 377 l 1,17,-1
 334 373 l 1,18,-1
 243 171 l 1,19,-1
 184 0 l 1,20,-1
 -37 0 l 1,21,-1
 642 1460 l 1,22,-1
 902 1460 l 1,23,-1
 1171 0 l 1,13,-1
864 555 m 1,24,-1
 748 1237 l 1,25,-1
 729 1237 l 1,26,-1
 421 557 l 1,27,-1
 638 553 l 1,28,-1
 864 555 l 1,24,-1
EndSplineSet
Position2: "'cpsp' Capital Spacing lookup 0 subtable" dx=16 dy=0 dh=33 dv=0
EndChar

StartChar: Atilde
Encoding: 195 195 133
Width: 1274
GlyphClass: 2
Flags: W
AnchorPoint: "Anchor-1" 0 0 basechar 0
AnchorPoint: "Anchor-0" 761 1459 basechar 0
LayerCount: 2
Fore
SplineSet
1173 1887 m 1,0,-1
 1173 1866 l 1,1,-1
 1028 1694 l 1,2,-1
 1005 1685 l 1,3,4
 977 1688 977 1688 936 1698 c 128,-1,5
 895 1708 895 1708 854 1719.5 c 128,-1,6
 813 1731 813 1731 773.5 1742 c 128,-1,7
 734 1753 734 1753 701.5 1760.5 c 128,-1,8
 669 1768 669 1768 653 1768 c 0,9,10
 641 1768 641 1768 630 1763 c 128,-1,11
 619 1758 619 1758 604.5 1745.5 c 128,-1,12
 590 1733 590 1733 580 1722.5 c 128,-1,13
 570 1712 570 1712 549.5 1690.5 c 128,-1,14
 529 1669 529 1669 518 1657 c 1,15,-1
 498 1657 l 1,16,-1
 430 1725 l 1,17,-1
 430 1746 l 1,18,-1
 575 1919 l 1,19,-1
 601 1926 l 1,20,21
 651 1920 651 1920 787.5 1883 c 128,-1,22
 924 1846 924 1846 952 1846 c 0,23,24
 964 1846 964 1846 974.5 1850.5 c 128,-1,25
 985 1855 985 1855 1000.5 1868 c 128,-1,26
 1016 1881 1016 1881 1024.5 1889 c 128,-1,27
 1033 1897 1033 1897 1055 1921 c 128,-1,28
 1077 1945 1077 1945 1087 1955 c 1,29,-1
 1107 1955 l 1,30,-1
 1173 1887 l 1,0,-1
902 1460 m 1,31,-1
 1171 0 l 1,32,-1
 946 0 l 1,33,-1
 932 161 l 1,34,-1
 896 371 l 1,35,-1
 601 377 l 1,36,-1
 334 373 l 1,37,-1
 243 171 l 1,38,-1
 184 0 l 1,39,-1
 -37 0 l 1,40,-1
 642 1460 l 1,41,-1
 902 1460 l 1,31,-1
864 555 m 1,42,-1
 748 1237 l 1,43,-1
 729 1237 l 1,44,-1
 421 557 l 1,45,-1
 638 553 l 1,46,-1
 864 555 l 1,42,-1
EndSplineSet
Position2: "'cpsp' Capital Spacing lookup 0 subtable" dx=16 dy=0 dh=33 dv=0
EndChar

StartChar: Adieresis
Encoding: 196 196 134
Width: 1274
GlyphClass: 2
Flags: W
AnchorPoint: "Anchor-1" 0 0 basechar 0
AnchorPoint: "Anchor-0" 761 1459 basechar 0
LayerCount: 2
Fore
SplineSet
614 1683 m 0,0,1
 559 1683 559 1683 531 1712 c 128,-1,2
 503 1741 503 1741 503 1796 c 128,-1,3
 503 1851 503 1851 534.5 1883.5 c 128,-1,4
 566 1916 566 1916 623 1916 c 0,5,6
 671 1916 671 1916 700 1885 c 128,-1,7
 729 1854 729 1854 729 1805 c 0,8,9
 729 1749 729 1749 698 1716 c 128,-1,10
 667 1683 667 1683 614 1683 c 0,0,1
989 1679 m 0,11,12
 935 1679 935 1679 906.5 1709.5 c 128,-1,13
 878 1740 878 1740 878 1794 c 0,14,15
 878 1849 878 1849 909 1881.5 c 128,-1,16
 940 1914 940 1914 996 1914 c 0,17,18
 1016 1914 1016 1914 1033 1909 c 128,-1,19
 1050 1904 1050 1904 1062.5 1894.5 c 128,-1,20
 1075 1885 1075 1885 1084 1871 c 128,-1,21
 1093 1857 1093 1857 1097.5 1840 c 128,-1,22
 1102 1823 1102 1823 1102 1803 c 0,23,24
 1102 1765 1102 1765 1088.5 1737 c 128,-1,25
 1075 1709 1075 1709 1049.5 1694 c 128,-1,26
 1024 1679 1024 1679 989 1679 c 0,11,12
1171 0 m 1,27,-1
 946 0 l 1,28,-1
 932 161 l 1,29,-1
 896 371 l 1,30,-1
 601 377 l 1,31,-1
 334 373 l 1,32,-1
 243 171 l 1,33,-1
 184 0 l 1,34,-1
 -37 0 l 1,35,-1
 642 1460 l 1,36,-1
 902 1460 l 1,37,-1
 1171 0 l 1,27,-1
864 555 m 1,38,-1
 748 1237 l 1,39,-1
 729 1237 l 1,40,-1
 421 557 l 1,41,-1
 638 553 l 1,42,-1
 864 555 l 1,38,-1
EndSplineSet
Position2: "'cpsp' Capital Spacing lookup 0 subtable" dx=16 dy=0 dh=33 dv=0
EndChar

StartChar: Aring
Encoding: 197 197 135
Width: 1274
GlyphClass: 2
Flags: W
AnchorPoint: "Anchor-1" 0 0 basechar 0
AnchorPoint: "Anchor-0" 761 1459 basechar 0
LayerCount: 2
Fore
SplineSet
800 1623 m 0,0,1
 713 1623 713 1623 660 1674 c 128,-1,2
 607 1725 607 1725 607 1818 c 128,-1,3
 607 1911 607 1911 660 1964 c 128,-1,4
 713 2017 713 2017 809 2017 c 0,5,6
 904 2017 904 2017 954.5 1964.5 c 128,-1,7
 1005 1912 1005 1912 1005 1826 c 0,8,9
 1005 1731 1005 1731 948 1677 c 128,-1,10
 891 1623 891 1623 800 1623 c 0,0,1
803 1914 m 0,11,12
 756 1914 756 1914 731.5 1889.5 c 128,-1,13
 707 1865 707 1865 707 1820 c 0,14,15
 707 1772 707 1772 733.5 1747.5 c 128,-1,16
 760 1723 760 1723 807 1723 c 0,17,18
 851 1723 851 1723 878 1746.5 c 128,-1,19
 905 1770 905 1770 905 1816 c 128,-1,20
 905 1862 905 1862 879 1888 c 128,-1,21
 853 1914 853 1914 803 1914 c 0,11,12
1171 0 m 1,22,-1
 946 0 l 1,23,-1
 932 161 l 1,24,-1
 896 371 l 1,25,-1
 601 377 l 1,26,-1
 334 373 l 1,27,-1
 243 171 l 1,28,-1
 184 0 l 1,29,-1
 -37 0 l 1,30,-1
 642 1460 l 1,31,-1
 902 1460 l 1,32,-1
 1171 0 l 1,22,-1
864 555 m 1,33,-1
 748 1237 l 1,34,-1
 729 1237 l 1,35,-1
 421 557 l 1,36,-1
 638 553 l 1,37,-1
 864 555 l 1,33,-1
EndSplineSet
Position2: "'cpsp' Capital Spacing lookup 0 subtable" dx=16 dy=0 dh=33 dv=0
EndChar

StartChar: AE
Encoding: 198 198 136
Width: 1768
GlyphClass: 2
Flags: W
AnchorPoint: "Anchor-1" 0 0 basechar 0
AnchorPoint: "Anchor-0" 1199 1459 basechar 0
LayerCount: 2
Fore
SplineSet
1698 173 m 1,0,-1
 1659 0 l 1,1,-1
 868 0 l 1,2,-1
 878 161 l 1,3,-1
 875 562 l 1,4,-1
 369 438 l 1,5,-1
 206 171 l 1,6,-1
 125 0 l 1,7,-1
 -100 0 l 1,8,-1
 794 1460 l 1,9,-1
 1662 1460 l 1,10,-1
 1673 1439 l 1,11,-1
 1635 1267 l 1,12,-1
 1289 1278 l 1,13,-1
 1087 1278 l 1,14,-1
 1087 783 l 1,15,-1
 1551 889 l 1,16,-1
 1566 875 l 1,17,-1
 1562 714 l 1,18,-1
 1089 612 l 1,19,-1
 1089 178 l 1,20,-1
 1330 178 l 1,21,-1
 1687 191 l 1,22,-1
 1698 173 l 1,0,-1
872 731 m 1,23,-1
 868 1237 l 1,24,-1
 855 1237 l 1,25,-1
 493 644 l 1,26,-1
 872 731 l 1,23,-1
EndSplineSet
Position2: "'cpsp' Capital Spacing lookup 0 subtable" dx=16 dy=0 dh=33 dv=0
EndChar

StartChar: Ccedilla
Encoding: 199 199 137
Width: 1143
GlyphClass: 2
Flags: W
AnchorPoint: "Anchor-1" 693 0 basechar 0
AnchorPoint: "Anchor-0" 768 1459 basechar 0
LayerCount: 2
Fore
SplineSet
832 1473 m 0,0,1
 1052 1473 1052 1473 1204 1371 c 1,2,-1
 1139 1173 l 1,3,-1
 1117 1167 l 1,4,5
 986 1286 986 1286 805 1286 c 0,6,7
 579 1286 579 1286 456.5 1113 c 128,-1,8
 334 940 334 940 334 618 c 0,9,10
 334 401 334 401 420.5 287 c 128,-1,11
 507 173 507 173 668 173 c 0,12,13
 761 173 761 173 856.5 206 c 128,-1,14
 952 239 952 239 1035 300 c 1,15,-1
 1054 286 l 1,16,-1
 1009 82 l 1,17,18
 931 41 931 41 860 18 c 128,-1,19
 789 -5 789 -5 714 -11 c 1,20,-1
 686 -111 l 1,21,-1
 764 -157 l 1,22,23
 852 -206 852 -206 852 -286 c 0,24,25
 852 -357 852 -357 798.5 -401 c 128,-1,26
 745 -445 745 -445 657 -445 c 0,27,28
 562 -445 562 -445 484 -375 c 1,29,-1
 505 -273 l 1,30,-1
 516 -269 l 1,31,32
 580 -336 580 -336 646 -336 c 0,33,34
 678 -336 678 -336 696 -322.5 c 128,-1,35
 714 -309 714 -309 714 -282 c 0,36,37
 714 -263 714 -263 702 -251 c 128,-1,38
 690 -239 690 -239 668 -230 c 1,39,-1
 557 -163 l 1,40,-1
 596 -16 l 1,41,42
 357 -2 357 -2 227.5 153.5 c 128,-1,43
 98 309 98 309 98 584 c 0,44,45
 98 860 98 860 184.5 1060 c 128,-1,46
 271 1260 271 1260 436.5 1366.5 c 128,-1,47
 602 1473 602 1473 832 1473 c 0,0,1
EndSplineSet
Position2: "'cpsp' Capital Spacing lookup 0 subtable" dx=16 dy=0 dh=33 dv=0
EndChar

StartChar: Egrave
Encoding: 200 200 138
Width: 1078
GlyphClass: 2
Flags: W
AnchorPoint: "Anchor-1" 624 0 basechar 0
AnchorPoint: "Anchor-0" 711 1459 basechar 0
LayerCount: 2
Fore
SplineSet
980 1651 m 1,0,-1
 955 1642 l 1,1,2
 652 1761 652 1761 498 1830 c 1,3,-1
 488 1853 l 1,4,-1
 546 1982 l 1,5,-1
 568 1987 l 1,6,7
 746 1883 746 1883 1019 1746 c 1,8,-1
 980 1651 l 1,0,-1
514 1273 m 1,9,-1
 453 837 l 1,10,-1
 709 832 l 1,11,-1
 937 839 l 1,12,-1
 950 823 l 1,13,-1
 911 650 l 1,14,-1
 666 657 l 1,15,-1
 427 653 l 1,16,-1
 400 457 l 1,17,-1
 373 184 l 1,18,-1
 646 180 l 1,19,-1
 978 191 l 1,20,-1
 987 173 l 1,21,-1
 950 0 l 1,22,-1
 130 0 l 1,23,-1
 198 438 l 1,24,-1
 314 1460 l 1,25,-1
 1137 1460 l 1,26,-1
 1148 1439 l 1,27,-1
 1109 1267 l 1,28,-1
 779 1275 l 1,29,-1
 514 1273 l 1,9,-1
EndSplineSet
Position2: "'cpsp' Capital Spacing lookup 0 subtable" dx=16 dy=0 dh=33 dv=0
EndChar

StartChar: Eacute
Encoding: 201 201 139
Width: 1078
GlyphClass: 2
Flags: W
AnchorPoint: "Anchor-1" 624 0 basechar 0
AnchorPoint: "Anchor-0" 711 1459 basechar 0
LayerCount: 2
Fore
SplineSet
548 1644 m 1,0,-1
 509 1739 l 1,1,2
 816 1896 816 1896 959 1982 c 1,3,-1
 982 1976 l 1,4,-1
 1039 1846 l 1,5,-1
 1030 1823 l 1,6,7
 862 1749 862 1749 573 1635 c 1,8,-1
 548 1644 l 1,0,-1
514 1273 m 1,9,-1
 453 837 l 1,10,-1
 709 832 l 1,11,-1
 937 839 l 1,12,-1
 950 823 l 1,13,-1
 911 650 l 1,14,-1
 666 657 l 1,15,-1
 427 653 l 1,16,-1
 400 457 l 1,17,-1
 373 184 l 1,18,-1
 646 180 l 1,19,-1
 978 191 l 1,20,-1
 987 173 l 1,21,-1
 950 0 l 1,22,-1
 130 0 l 1,23,-1
 198 438 l 1,24,-1
 314 1460 l 1,25,-1
 1137 1460 l 1,26,-1
 1148 1439 l 1,27,-1
 1109 1267 l 1,28,-1
 779 1275 l 1,29,-1
 514 1273 l 1,9,-1
EndSplineSet
Position2: "'cpsp' Capital Spacing lookup 0 subtable" dx=16 dy=0 dh=33 dv=0
EndChar

StartChar: Ecircumflex
Encoding: 202 202 140
Width: 1078
GlyphClass: 2
Flags: W
AnchorPoint: "Anchor-1" 624 0 basechar 0
AnchorPoint: "Anchor-0" 711 1459 basechar 0
LayerCount: 2
Fore
SplineSet
482 1659 m 1,0,-1
 451 1753 l 1,1,2
 597 1844 597 1844 748 1969 c 1,3,-1
 803 1969 l 1,4,5
 922 1856 922 1856 1061 1753 c 1,6,-1
 1005 1659 l 1,7,-1
 982 1659 l 1,8,9
 897 1716 897 1716 766 1809 c 1,10,11
 741 1794 741 1794 507 1659 c 1,12,-1
 482 1659 l 1,0,-1
514 1273 m 1,13,-1
 453 837 l 1,14,-1
 709 832 l 1,15,-1
 937 839 l 1,16,-1
 950 823 l 1,17,-1
 911 650 l 1,18,-1
 666 657 l 1,19,-1
 427 653 l 1,20,-1
 400 457 l 1,21,-1
 373 184 l 1,22,-1
 646 180 l 1,23,-1
 978 191 l 1,24,-1
 987 173 l 1,25,-1
 950 0 l 1,26,-1
 130 0 l 1,27,-1
 198 438 l 1,28,-1
 314 1460 l 1,29,-1
 1137 1460 l 1,30,-1
 1148 1439 l 1,31,-1
 1109 1267 l 1,32,-1
 779 1275 l 1,33,-1
 514 1273 l 1,13,-1
EndSplineSet
Position2: "'cpsp' Capital Spacing lookup 0 subtable" dx=16 dy=0 dh=33 dv=0
EndChar

StartChar: Edieresis
Encoding: 203 203 141
Width: 1078
GlyphClass: 2
Flags: W
AnchorPoint: "Anchor-1" 624 0 basechar 0
AnchorPoint: "Anchor-0" 711 1459 basechar 0
LayerCount: 2
Fore
SplineSet
564 1683 m 0,0,1
 509 1683 509 1683 481 1712 c 128,-1,2
 453 1741 453 1741 453 1796 c 128,-1,3
 453 1851 453 1851 485 1883.5 c 128,-1,4
 517 1916 517 1916 573 1916 c 0,5,6
 597 1916 597 1916 617 1908 c 128,-1,7
 637 1900 637 1900 650.5 1885 c 128,-1,8
 664 1870 664 1870 671.5 1849.5 c 128,-1,9
 679 1829 679 1829 679 1805 c 0,10,11
 679 1768 679 1768 665 1740 c 128,-1,12
 651 1712 651 1712 625 1697.5 c 128,-1,13
 599 1683 599 1683 564 1683 c 0,0,1
939 1679 m 0,14,15
 885 1679 885 1679 856 1709.5 c 128,-1,16
 827 1740 827 1740 827 1794 c 0,17,18
 827 1830 827 1830 841 1857 c 128,-1,19
 855 1884 855 1884 881.5 1899 c 128,-1,20
 908 1914 908 1914 946 1914 c 0,21,22
 996 1914 996 1914 1024 1884 c 128,-1,23
 1052 1854 1052 1854 1052 1803 c 0,24,25
 1052 1746 1052 1746 1021.5 1712.5 c 128,-1,26
 991 1679 991 1679 939 1679 c 0,14,15
514 1273 m 1,27,-1
 453 837 l 1,28,-1
 709 832 l 1,29,-1
 937 839 l 1,30,-1
 950 823 l 1,31,-1
 911 650 l 1,32,-1
 666 657 l 1,33,-1
 427 653 l 1,34,-1
 400 457 l 1,35,-1
 373 184 l 1,36,-1
 646 180 l 1,37,-1
 978 191 l 1,38,-1
 987 173 l 1,39,-1
 950 0 l 1,40,-1
 130 0 l 1,41,-1
 198 438 l 1,42,-1
 314 1460 l 1,43,-1
 1137 1460 l 1,44,-1
 1148 1439 l 1,45,-1
 1109 1267 l 1,46,-1
 779 1275 l 1,47,-1
 514 1273 l 1,27,-1
EndSplineSet
Position2: "'cpsp' Capital Spacing lookup 0 subtable" dx=16 dy=0 dh=33 dv=0
EndChar

StartChar: Igrave
Encoding: 204 204 142
Width: 612
GlyphClass: 2
Flags: W
AnchorPoint: "Anchor-1" 0 0 basechar 0
AnchorPoint: "Anchor-0" 422 1459 basechar 0
LayerCount: 2
Fore
SplineSet
256 1982 m 1,0,-1
 280 1987 l 1,1,2
 465 1879 465 1879 729 1746 c 1,3,-1
 692 1651 l 1,4,-1
 666 1642 l 1,5,6
 355 1764 355 1764 209 1830 c 1,7,-1
 200 1853 l 1,8,-1
 256 1982 l 1,0,-1
400 457 m 1,9,-1
 354 0 l 1,10,-1
 130 0 l 1,11,-1
 198 438 l 1,12,-1
 312 1460 l 1,13,-1
 536 1460 l 1,14,-1
 400 457 l 1,9,-1
EndSplineSet
Position2: "'cpsp' Capital Spacing lookup 0 subtable" dx=16 dy=0 dh=33 dv=0
EndChar

StartChar: Iacute
Encoding: 205 205 143
Width: 612
GlyphClass: 2
Flags: W
AnchorPoint: "Anchor-1" 0 0 basechar 0
AnchorPoint: "Anchor-0" 422 1459 basechar 0
LayerCount: 2
Fore
SplineSet
694 1976 m 1,0,-1
 750 1846 l 1,1,-1
 741 1823 l 1,2,3
 574 1749 574 1749 284 1635 c 1,4,-1
 259 1644 l 1,5,-1
 221 1739 l 1,6,7
 527 1896 527 1896 670 1982 c 1,8,-1
 694 1976 l 1,0,-1
400 457 m 1,9,-1
 354 0 l 1,10,-1
 130 0 l 1,11,-1
 198 438 l 1,12,-1
 312 1460 l 1,13,-1
 536 1460 l 1,14,-1
 400 457 l 1,9,-1
EndSplineSet
Position2: "'cpsp' Capital Spacing lookup 0 subtable" dx=16 dy=0 dh=33 dv=0
EndChar

StartChar: Icircumflex
Encoding: 206 206 144
Width: 612
GlyphClass: 2
Flags: W
AnchorPoint: "Anchor-1" 0 0 basechar 0
AnchorPoint: "Anchor-0" 422 1459 basechar 0
LayerCount: 2
Fore
SplineSet
193 1659 m 1,0,-1
 161 1753 l 1,1,2
 312 1846 312 1846 460 1969 c 1,3,-1
 514 1969 l 1,4,5
 634 1856 634 1856 773 1753 c 1,6,-1
 716 1659 l 1,7,-1
 694 1659 l 1,8,9
 609 1716 609 1716 477 1809 c 1,10,11
 452 1794 452 1794 219 1659 c 1,12,-1
 193 1659 l 1,0,-1
400 457 m 1,13,-1
 354 0 l 1,14,-1
 130 0 l 1,15,-1
 198 438 l 1,16,-1
 312 1460 l 1,17,-1
 536 1460 l 1,18,-1
 400 457 l 1,13,-1
EndSplineSet
Position2: "'cpsp' Capital Spacing lookup 0 subtable" dx=16 dy=0 dh=33 dv=0
EndChar

StartChar: Idieresis
Encoding: 207 207 145
Width: 612
GlyphClass: 2
Flags: W
AnchorPoint: "Anchor-1" 0 0 basechar 0
AnchorPoint: "Anchor-0" 422 1459 basechar 0
LayerCount: 2
Fore
SplineSet
316 1914 m 0,0,1
 367 1914 367 1914 396 1884 c 128,-1,2
 425 1854 425 1854 425 1803 c 0,3,4
 425 1746 425 1746 393.5 1712.5 c 128,-1,5
 362 1679 362 1679 310 1679 c 0,6,7
 255 1679 255 1679 226.5 1709 c 128,-1,8
 198 1739 198 1739 198 1794 c 0,9,10
 198 1830 198 1830 212 1857 c 128,-1,11
 226 1884 226 1884 253 1899 c 128,-1,12
 280 1914 280 1914 316 1914 c 0,0,1
623 1914 m 0,13,14
 656 1914 656 1914 680.5 1900 c 128,-1,15
 705 1886 705 1886 718 1861 c 128,-1,16
 731 1836 731 1836 731 1803 c 0,17,18
 731 1746 731 1746 700 1712.5 c 128,-1,19
 669 1679 669 1679 616 1679 c 0,20,21
 580 1679 580 1679 555 1692.5 c 128,-1,22
 530 1706 530 1706 517.5 1731.5 c 128,-1,23
 505 1757 505 1757 505 1794 c 0,24,25
 505 1849 505 1849 536.5 1881.5 c 128,-1,26
 568 1914 568 1914 623 1914 c 0,13,14
400 457 m 1,27,-1
 354 0 l 1,28,-1
 130 0 l 1,29,-1
 198 438 l 1,30,-1
 312 1460 l 1,31,-1
 536 1460 l 1,32,-1
 400 457 l 1,27,-1
EndSplineSet
Ligature2: "'liga' Standard Ligatures lookup 30 subtable" dieresis I
Position2: "'cpsp' Capital Spacing lookup 0 subtable" dx=16 dy=0 dh=33 dv=0
EndChar

StartChar: Eth
Encoding: 208 208 146
Width: 1484
GlyphClass: 2
Flags: W
AnchorPoint: "Anchor-1" 0 0 basechar 0
AnchorPoint: "Anchor-0" 811 1459 basechar 0
LayerCount: 2
Fore
SplineSet
371 1460 m 1,0,-1
 882 1469 l 1,1,2
 1149 1469 1149 1469 1296 1320.5 c 128,-1,3
 1443 1172 1443 1172 1443 898 c 0,4,5
 1443 617 1443 617 1354.5 413 c 128,-1,6
 1266 209 1266 209 1090.5 98 c 128,-1,7
 915 -13 915 -13 668 -13 c 0,8,9
 444 -13 444 -13 189 0 c 1,10,-1
 186 0 l 1,11,-1
 254 438 l 1,12,-1
 280 657 l 1,13,-1
 75 657 l 1,14,-1
 65 675 l 1,15,-1
 87 811 l 1,16,-1
 295 811 l 1,17,-1
 369 1460 l 1,18,-1
 371 1460 l 1,0,-1
714 166 m 0,19,20
 950 166 950 166 1078.5 342 c 128,-1,21
 1207 518 1207 518 1207 859 c 0,22,23
 1207 1074 1207 1074 1119.5 1179 c 128,-1,24
 1032 1284 1032 1284 857 1284 c 0,25,26
 739 1284 739 1284 571 1275 c 1,27,-1
 505 811 l 1,28,-1
 830 811 l 1,29,-1
 837 794 l 1,30,-1
 820 657 l 1,31,-1
 482 657 l 1,32,-1
 455 457 l 1,33,-1
 427 182 l 1,34,35
 602 166 602 166 714 166 c 0,19,20
EndSplineSet
Position2: "'cpsp' Capital Spacing lookup 0 subtable" dx=16 dy=0 dh=33 dv=0
EndChar

StartChar: Ntilde
Encoding: 209 209 147
Width: 1504
GlyphClass: 2
Flags: W
AnchorPoint: "Anchor-1" 691 0 basechar 0
AnchorPoint: "Anchor-0" 870 1459 basechar 0
LayerCount: 2
Fore
SplineSet
1282 1887 m 1,0,-1
 1282 1866 l 1,1,-1
 1137 1694 l 1,2,-1
 1114 1685 l 1,3,4
 1073 1690 1073 1690 996 1711 c 128,-1,5
 919 1732 919 1732 852.5 1750 c 128,-1,6
 786 1768 786 1768 761 1768 c 0,7,8
 750 1768 750 1768 738.5 1763 c 128,-1,9
 727 1758 727 1758 712.5 1745.5 c 128,-1,10
 698 1733 698 1733 688.5 1722.5 c 128,-1,11
 679 1712 679 1712 658.5 1690.5 c 128,-1,12
 638 1669 638 1669 627 1657 c 1,13,-1
 607 1657 l 1,14,-1
 538 1725 l 1,15,-1
 538 1746 l 1,16,-1
 684 1919 l 1,17,-1
 709 1926 l 1,18,19
 760 1920 760 1920 896.5 1883 c 128,-1,20
 1033 1846 1033 1846 1061 1846 c 0,21,22
 1072 1846 1072 1846 1083 1850.5 c 128,-1,23
 1094 1855 1094 1855 1109 1868 c 128,-1,24
 1124 1881 1124 1881 1132.5 1889 c 128,-1,25
 1141 1897 1141 1897 1163.5 1921 c 128,-1,26
 1186 1945 1186 1945 1195 1955 c 1,27,-1
 1217 1955 l 1,28,-1
 1282 1887 l 1,0,-1
1289 434 m 1,29,-1
 1243 0 l 1,30,-1
 1007 0 l 1,31,-1
 484 1109 l 1,32,-1
 468 1109 l 1,33,-1
 388 486 l 1,34,-1
 336 0 l 1,35,-1
 130 0 l 1,36,-1
 195 432 l 1,37,-1
 316 1460 l 1,38,-1
 551 1460 l 1,39,-1
 1073 347 l 1,40,-1
 1089 347 l 1,41,-1
 1223 1449 l 1,42,-1
 1432 1464 l 1,43,-1
 1289 434 l 1,29,-1
EndSplineSet
Position2: "'cpsp' Capital Spacing lookup 0 subtable" dx=16 dy=0 dh=33 dv=0
EndChar

StartChar: Ograve
Encoding: 210 210 148
Width: 1404
GlyphClass: 2
Flags: W
AnchorPoint: "Anchor-1" 0 0 basechar 0
AnchorPoint: "Anchor-0" 818 1459 basechar 0
LayerCount: 2
Fore
SplineSet
653 1982 m 1,0,-1
 675 1987 l 1,1,2
 853 1883 853 1883 1126 1746 c 1,3,-1
 1087 1651 l 1,4,-1
 1061 1642 l 1,5,6
 758 1761 758 1761 605 1830 c 1,7,-1
 596 1853 l 1,8,-1
 653 1982 l 1,0,-1
825 1475 m 0,9,10
 1082 1475 1082 1475 1224 1321.5 c 128,-1,11
 1366 1168 1366 1168 1366 885 c 0,12,13
 1366 608 1366 608 1282.5 405.5 c 128,-1,14
 1199 203 1199 203 1033.5 92.5 c 128,-1,15
 868 -18 868 -18 636 -18 c 0,16,17
 468 -18 468 -18 347.5 52 c 128,-1,18
 227 122 227 122 162.5 258 c 128,-1,19
 98 394 98 394 98 584 c 0,20,21
 98 791 98 791 146 956.5 c 128,-1,22
 194 1122 194 1122 285.5 1237 c 128,-1,23
 377 1352 377 1352 514 1413.5 c 128,-1,24
 651 1475 651 1475 825 1475 c 0,9,10
798 1291 m 0,25,26
 559 1291 559 1291 443 1118 c 128,-1,27
 327 945 327 945 327 596 c 0,28,29
 327 375 327 375 408 268 c 128,-1,30
 489 161 489 161 657 161 c 0,31,32
 1130 161 1130 161 1130 861 c 0,33,34
 1130 1008 1130 1008 1094 1103 c 128,-1,35
 1058 1198 1058 1198 984.5 1244.5 c 128,-1,36
 911 1291 911 1291 798 1291 c 0,25,26
EndSplineSet
Position2: "'cpsp' Capital Spacing lookup 0 subtable" dx=16 dy=0 dh=33 dv=0
EndChar

StartChar: Oacute
Encoding: 211 211 149
Width: 1404
GlyphClass: 2
Flags: W
AnchorPoint: "Anchor-1" 0 0 basechar 0
AnchorPoint: "Anchor-0" 818 1459 basechar 0
LayerCount: 2
Fore
SplineSet
1091 1976 m 1,0,-1
 1148 1846 l 1,1,-1
 1139 1823 l 1,2,3
 971 1749 971 1749 682 1635 c 1,4,-1
 657 1644 l 1,5,-1
 618 1739 l 1,6,7
 625 1743 625 1743 673.5 1767.5 c 128,-1,8
 722 1792 722 1792 733 1797.5 c 128,-1,9
 744 1803 744 1803 785.5 1825 c 128,-1,10
 827 1847 827 1847 844 1856 c 128,-1,11
 861 1865 861 1865 897 1884.5 c 128,-1,12
 933 1904 933 1904 956 1917 c 128,-1,13
 979 1930 979 1930 1010 1947.5 c 128,-1,14
 1041 1965 1041 1965 1069 1982 c 1,15,-1
 1091 1976 l 1,0,-1
825 1475 m 0,16,17
 1082 1475 1082 1475 1224 1321.5 c 128,-1,18
 1366 1168 1366 1168 1366 885 c 0,19,20
 1366 608 1366 608 1282.5 405.5 c 128,-1,21
 1199 203 1199 203 1033.5 92.5 c 128,-1,22
 868 -18 868 -18 636 -18 c 0,23,24
 468 -18 468 -18 347.5 52 c 128,-1,25
 227 122 227 122 162.5 258 c 128,-1,26
 98 394 98 394 98 584 c 0,27,28
 98 791 98 791 146 956.5 c 128,-1,29
 194 1122 194 1122 285.5 1237 c 128,-1,30
 377 1352 377 1352 514 1413.5 c 128,-1,31
 651 1475 651 1475 825 1475 c 0,16,17
798 1291 m 0,32,33
 559 1291 559 1291 443 1118 c 128,-1,34
 327 945 327 945 327 596 c 0,35,36
 327 375 327 375 408 268 c 128,-1,37
 489 161 489 161 657 161 c 0,38,39
 1130 161 1130 161 1130 861 c 0,40,41
 1130 1008 1130 1008 1094 1103 c 128,-1,42
 1058 1198 1058 1198 984.5 1244.5 c 128,-1,43
 911 1291 911 1291 798 1291 c 0,32,33
EndSplineSet
Position2: "'cpsp' Capital Spacing lookup 0 subtable" dx=16 dy=0 dh=33 dv=0
EndChar

StartChar: Ocircumflex
Encoding: 212 212 150
Width: 1404
GlyphClass: 2
Flags: W
AnchorPoint: "Anchor-1" 0 0 basechar 0
AnchorPoint: "Anchor-0" 818 1459 basechar 0
LayerCount: 2
Fore
SplineSet
588 1659 m 1,0,-1
 557 1753 l 1,1,2
 703 1844 703 1844 855 1969 c 1,3,-1
 909 1969 l 1,4,5
 1025 1860 1025 1860 1169 1753 c 1,6,-1
 1111 1659 l 1,7,-1
 1089 1659 l 1,8,9
 1004 1716 1004 1716 872 1809 c 1,10,11
 848 1794 848 1794 614 1659 c 1,12,-1
 588 1659 l 1,0,-1
825 1475 m 0,13,14
 1082 1475 1082 1475 1224 1321.5 c 128,-1,15
 1366 1168 1366 1168 1366 885 c 0,16,17
 1366 608 1366 608 1282.5 405.5 c 128,-1,18
 1199 203 1199 203 1033.5 92.5 c 128,-1,19
 868 -18 868 -18 636 -18 c 0,20,21
 468 -18 468 -18 347.5 52 c 128,-1,22
 227 122 227 122 162.5 258 c 128,-1,23
 98 394 98 394 98 584 c 0,24,25
 98 791 98 791 146 956.5 c 128,-1,26
 194 1122 194 1122 285.5 1237 c 128,-1,27
 377 1352 377 1352 514 1413.5 c 128,-1,28
 651 1475 651 1475 825 1475 c 0,13,14
798 1291 m 0,29,30
 559 1291 559 1291 443 1118 c 128,-1,31
 327 945 327 945 327 596 c 0,32,33
 327 375 327 375 408 268 c 128,-1,34
 489 161 489 161 657 161 c 0,35,36
 1130 161 1130 161 1130 861 c 0,37,38
 1130 1008 1130 1008 1094 1103 c 128,-1,39
 1058 1198 1058 1198 984.5 1244.5 c 128,-1,40
 911 1291 911 1291 798 1291 c 0,29,30
EndSplineSet
Position2: "'cpsp' Capital Spacing lookup 0 subtable" dx=16 dy=0 dh=33 dv=0
EndChar

StartChar: Otilde
Encoding: 213 213 151
Width: 1404
GlyphClass: 2
Flags: W
AnchorPoint: "Anchor-1" 0 0 basechar 0
AnchorPoint: "Anchor-0" 818 1459 basechar 0
LayerCount: 2
Fore
SplineSet
1230 1887 m 1,0,-1
 1230 1866 l 1,1,-1
 1084 1694 l 1,2,-1
 1061 1685 l 1,3,4
 1011 1691 1011 1691 874.5 1729.5 c 128,-1,5
 738 1768 738 1768 709 1768 c 0,6,7
 698 1768 698 1768 686.5 1763 c 128,-1,8
 675 1758 675 1758 660.5 1745.5 c 128,-1,9
 646 1733 646 1733 636 1722.5 c 128,-1,10
 626 1712 626 1712 606 1690.5 c 128,-1,11
 586 1669 586 1669 575 1657 c 1,12,-1
 555 1657 l 1,13,-1
 486 1725 l 1,14,-1
 486 1746 l 1,15,-1
 632 1919 l 1,16,-1
 657 1926 l 1,17,18
 708 1920 708 1920 844.5 1883 c 128,-1,19
 981 1846 981 1846 1009 1846 c 0,20,21
 1020 1846 1020 1846 1031 1850.5 c 128,-1,22
 1042 1855 1042 1855 1057 1868 c 128,-1,23
 1072 1881 1072 1881 1080.5 1889 c 128,-1,24
 1089 1897 1089 1897 1111.5 1921 c 128,-1,25
 1134 1945 1134 1945 1143 1955 c 1,26,-1
 1164 1955 l 1,27,-1
 1230 1887 l 1,0,-1
825 1475 m 0,28,29
 1082 1475 1082 1475 1224 1321.5 c 128,-1,30
 1366 1168 1366 1168 1366 885 c 0,31,32
 1366 608 1366 608 1282.5 405.5 c 128,-1,33
 1199 203 1199 203 1033.5 92.5 c 128,-1,34
 868 -18 868 -18 636 -18 c 0,35,36
 468 -18 468 -18 347.5 52 c 128,-1,37
 227 122 227 122 162.5 258 c 128,-1,38
 98 394 98 394 98 584 c 0,39,40
 98 791 98 791 146 956.5 c 128,-1,41
 194 1122 194 1122 285.5 1237 c 128,-1,42
 377 1352 377 1352 514 1413.5 c 128,-1,43
 651 1475 651 1475 825 1475 c 0,28,29
798 1291 m 0,44,45
 559 1291 559 1291 443 1118 c 128,-1,46
 327 945 327 945 327 596 c 0,47,48
 327 375 327 375 408 268 c 128,-1,49
 489 161 489 161 657 161 c 0,50,51
 1130 161 1130 161 1130 861 c 0,52,53
 1130 1008 1130 1008 1094 1103 c 128,-1,54
 1058 1198 1058 1198 984.5 1244.5 c 128,-1,55
 911 1291 911 1291 798 1291 c 0,44,45
EndSplineSet
Position2: "'cpsp' Capital Spacing lookup 0 subtable" dx=16 dy=0 dh=33 dv=0
EndChar

StartChar: Odieresis
Encoding: 214 214 152
Width: 1404
GlyphClass: 2
Flags: W
AnchorPoint: "Anchor-1" 0 0 basechar 0
AnchorPoint: "Anchor-0" 818 1459 basechar 0
LayerCount: 2
Fore
SplineSet
679 1916 m 0,0,1
 728 1916 728 1916 757.5 1885 c 128,-1,2
 787 1854 787 1854 787 1805 c 0,3,4
 787 1749 787 1749 755 1716 c 128,-1,5
 723 1683 723 1683 670 1683 c 0,6,7
 643 1683 643 1683 622 1690.5 c 128,-1,8
 601 1698 601 1698 587.5 1712 c 128,-1,9
 574 1726 574 1726 566.5 1747.5 c 128,-1,10
 559 1769 559 1769 559 1796 c 0,11,12
 559 1851 559 1851 591 1883.5 c 128,-1,13
 623 1916 623 1916 679 1916 c 0,0,1
1052 1914 m 0,14,15
 1086 1914 1086 1914 1110 1900 c 128,-1,16
 1134 1886 1134 1886 1146.5 1861 c 128,-1,17
 1159 1836 1159 1836 1159 1803 c 0,18,19
 1159 1746 1159 1746 1128.5 1712.5 c 128,-1,20
 1098 1679 1098 1679 1046 1679 c 0,21,22
 992 1679 992 1679 963.5 1709.5 c 128,-1,23
 935 1740 935 1740 935 1794 c 0,24,25
 935 1849 935 1849 965.5 1881.5 c 128,-1,26
 996 1914 996 1914 1052 1914 c 0,14,15
825 1475 m 0,27,28
 1082 1475 1082 1475 1224 1321.5 c 128,-1,29
 1366 1168 1366 1168 1366 885 c 0,30,31
 1366 608 1366 608 1282.5 405.5 c 128,-1,32
 1199 203 1199 203 1033.5 92.5 c 128,-1,33
 868 -18 868 -18 636 -18 c 0,34,35
 468 -18 468 -18 347.5 52 c 128,-1,36
 227 122 227 122 162.5 258 c 128,-1,37
 98 394 98 394 98 584 c 0,38,39
 98 791 98 791 146 956.5 c 128,-1,40
 194 1122 194 1122 285.5 1237 c 128,-1,41
 377 1352 377 1352 514 1413.5 c 128,-1,42
 651 1475 651 1475 825 1475 c 0,27,28
798 1291 m 0,43,44
 559 1291 559 1291 443 1118 c 128,-1,45
 327 945 327 945 327 596 c 0,46,47
 327 375 327 375 408 268 c 128,-1,48
 489 161 489 161 657 161 c 0,49,50
 1130 161 1130 161 1130 861 c 0,51,52
 1130 1008 1130 1008 1094 1103 c 128,-1,53
 1058 1198 1058 1198 984.5 1244.5 c 128,-1,54
 911 1291 911 1291 798 1291 c 0,43,44
EndSplineSet
Ligature2: "'liga' Standard Ligatures lookup 30 subtable" dieresis O
Position2: "'cpsp' Capital Spacing lookup 0 subtable" dx=16 dy=0 dh=33 dv=0
EndChar

StartChar: multiply
Encoding: 215 215 153
Width: 1093
GlyphClass: 2
Flags: W
LayerCount: 2
Fore
SplineSet
976 898 m 1,0,-1
 973 872 l 1,1,-1
 664 601 l 1,2,-1
 905 325 l 1,3,-1
 902 302 l 1,4,-1
 787 211 l 1,5,-1
 541 488 l 1,6,-1
 228 211 l 1,7,-1
 137 302 l 1,8,-1
 139 323 l 1,9,-1
 447 601 l 1,10,-1
 206 872 l 1,11,-1
 209 898 l 1,12,-1
 323 987 l 1,13,-1
 571 707 l 1,14,-1
 880 987 l 1,15,-1
 976 898 l 1,0,-1
EndSplineSet
EndChar

StartChar: Oslash
Encoding: 216 216 154
Width: 1406
GlyphClass: 2
Flags: W
AnchorPoint: "Anchor-1" 0 0 basechar 0
AnchorPoint: "Anchor-0" 791 1461 basechar 0
LayerCount: 2
Fore
SplineSet
1303 1580 m 1,0,-1
 1180 1364 l 1,1,2
 1366 1214 1366 1214 1366 885 c 0,3,4
 1366 608 1366 608 1282.5 405.5 c 128,-1,5
 1199 203 1199 203 1033.5 92.5 c 128,-1,6
 868 -18 868 -18 636 -18 c 0,7,8
 505 -18 505 -18 407 22 c 1,9,-1
 254 -243 l 1,10,-1
 130 -193 l 1,11,-1
 123 -173 l 1,12,-1
 280 100 l 1,13,14
 98 258 98 258 98 584 c 0,15,16
 98 791 98 791 146 956.5 c 128,-1,17
 194 1122 194 1122 285.5 1237 c 128,-1,18
 377 1352 377 1352 514 1413.5 c 128,-1,19
 651 1475 651 1475 825 1475 c 0,20,21
 954 1475 954 1475 1048 1439 c 1,22,-1
 1171 1655 l 1,23,-1
 1293 1605 l 1,24,-1
 1303 1580 l 1,0,-1
327 596 m 0,25,26
 327 400 327 400 391 293 c 1,27,-1
 948 1264 l 1,28,29
 883 1291 883 1291 798 1291 c 0,30,31
 559 1291 559 1291 443 1118 c 128,-1,32
 327 945 327 945 327 596 c 0,25,26
657 161 m 0,33,34
 1130 161 1130 161 1130 861 c 0,35,36
 1130 1057 1130 1057 1063 1164 c 1,37,-1
 505 191 l 1,38,39
 570 161 570 161 657 161 c 0,33,34
EndSplineSet
Position2: "'cpsp' Capital Spacing lookup 0 subtable" dx=16 dy=0 dh=33 dv=0
EndChar

StartChar: Ugrave
Encoding: 217 217 155
Width: 1377
GlyphClass: 2
Flags: W
AnchorPoint: "Anchor-1" 0 0 basechar 0
AnchorPoint: "Anchor-0" 806 1459 basechar 0
LayerCount: 2
Fore
SplineSet
642 1982 m 1,0,-1
 664 1987 l 1,1,2
 842 1883 842 1883 1114 1746 c 1,3,-1
 1076 1651 l 1,4,-1
 1050 1642 l 1,5,6
 747 1761 747 1761 594 1830 c 1,7,-1
 584 1853 l 1,8,-1
 642 1982 l 1,0,-1
1243 716 m 1,9,-1
 1223 548 l 1,10,11
 1194 276 1194 276 1041.5 129 c 128,-1,12
 889 -18 889 -18 627 -18 c 0,13,14
 403 -18 403 -18 275.5 93.5 c 128,-1,15
 148 205 148 205 148 410 c 0,16,17
 148 472 148 472 157 529 c 1,18,-1
 184 729 l 1,19,-1
 271 1460 l 1,20,-1
 491 1460 l 1,21,-1
 369 559 l 2,22,23
 362 504 362 504 362 462 c 0,24,25
 362 175 362 175 644 175 c 0,26,27
 974 175 974 175 1016 536 c 2,28,-1
 1121 1460 l 1,29,-1
 1343 1460 l 1,30,-1
 1243 716 l 1,9,-1
EndSplineSet
Position2: "'cpsp' Capital Spacing lookup 0 subtable" dx=16 dy=0 dh=33 dv=0
EndChar

StartChar: Uacute
Encoding: 218 218 156
Width: 1377
GlyphClass: 2
Flags: W
AnchorPoint: "Anchor-1" 0 0 basechar 0
AnchorPoint: "Anchor-0" 806 1459 basechar 0
LayerCount: 2
Fore
SplineSet
1078 1976 m 1,0,-1
 1134 1846 l 1,1,-1
 1126 1823 l 1,2,3
 958 1749 958 1749 668 1635 c 1,4,-1
 644 1644 l 1,5,-1
 605 1739 l 1,6,7
 911 1896 911 1896 1054 1982 c 1,8,-1
 1078 1976 l 1,0,-1
1243 716 m 1,9,-1
 1223 548 l 1,10,11
 1194 276 1194 276 1041.5 129 c 128,-1,12
 889 -18 889 -18 627 -18 c 0,13,14
 403 -18 403 -18 275.5 93.5 c 128,-1,15
 148 205 148 205 148 410 c 0,16,17
 148 472 148 472 157 529 c 1,18,-1
 184 729 l 1,19,-1
 271 1460 l 1,20,-1
 491 1460 l 1,21,-1
 369 559 l 2,22,23
 362 504 362 504 362 462 c 0,24,25
 362 175 362 175 644 175 c 0,26,27
 974 175 974 175 1016 536 c 2,28,-1
 1121 1460 l 1,29,-1
 1343 1460 l 1,30,-1
 1243 716 l 1,9,-1
EndSplineSet
Position2: "'cpsp' Capital Spacing lookup 0 subtable" dx=16 dy=0 dh=33 dv=0
EndChar

StartChar: Ucircumflex
Encoding: 219 219 157
Width: 1377
GlyphClass: 2
Flags: W
AnchorPoint: "Anchor-1" 0 0 basechar 0
AnchorPoint: "Anchor-0" 806 1459 basechar 0
LayerCount: 2
Fore
SplineSet
577 1659 m 1,0,-1
 546 1753 l 1,1,2
 692 1844 692 1844 844 1969 c 1,3,-1
 898 1969 l 1,4,5
 1018 1856 1018 1856 1157 1753 c 1,6,-1
 1100 1659 l 1,7,-1
 1078 1659 l 1,8,9
 993 1716 993 1716 861 1809 c 1,10,11
 836 1794 836 1794 603 1659 c 1,12,-1
 577 1659 l 1,0,-1
1243 716 m 1,13,-1
 1223 548 l 1,14,15
 1194 276 1194 276 1041.5 129 c 128,-1,16
 889 -18 889 -18 627 -18 c 0,17,18
 403 -18 403 -18 275.5 93.5 c 128,-1,19
 148 205 148 205 148 410 c 0,20,21
 148 472 148 472 157 529 c 1,22,-1
 184 729 l 1,23,-1
 271 1460 l 1,24,-1
 491 1460 l 1,25,-1
 369 559 l 2,26,27
 362 504 362 504 362 462 c 0,28,29
 362 175 362 175 644 175 c 0,30,31
 974 175 974 175 1016 536 c 2,32,-1
 1121 1460 l 1,33,-1
 1343 1460 l 1,34,-1
 1243 716 l 1,13,-1
EndSplineSet
Position2: "'cpsp' Capital Spacing lookup 0 subtable" dx=16 dy=0 dh=33 dv=0
EndChar

StartChar: Udieresis
Encoding: 220 220 158
Width: 1377
GlyphClass: 2
Flags: W
AnchorPoint: "Anchor-1" 0 0 basechar 0
AnchorPoint: "Anchor-0" 806 1459 basechar 0
LayerCount: 2
Fore
SplineSet
668 1916 m 0,0,1
 692 1916 692 1916 712 1908 c 128,-1,2
 732 1900 732 1900 746 1885 c 128,-1,3
 760 1870 760 1870 767.5 1849.5 c 128,-1,4
 775 1829 775 1829 775 1805 c 0,5,6
 775 1768 775 1768 760.5 1740 c 128,-1,7
 746 1712 746 1712 720 1697.5 c 128,-1,8
 694 1683 694 1683 659 1683 c 0,9,10
 605 1683 605 1683 576.5 1712 c 128,-1,11
 548 1741 548 1741 548 1796 c 128,-1,12
 548 1851 548 1851 580 1883.5 c 128,-1,13
 612 1916 612 1916 668 1916 c 0,0,1
1041 1914 m 0,14,15
 1061 1914 1061 1914 1078 1909 c 128,-1,16
 1095 1904 1095 1904 1108 1894.5 c 128,-1,17
 1121 1885 1121 1885 1130 1871 c 128,-1,18
 1139 1857 1139 1857 1143.5 1840 c 128,-1,19
 1148 1823 1148 1823 1148 1803 c 0,20,21
 1148 1765 1148 1765 1134 1737 c 128,-1,22
 1120 1709 1120 1709 1094.5 1694 c 128,-1,23
 1069 1679 1069 1679 1035 1679 c 0,24,25
 980 1679 980 1679 951 1709.5 c 128,-1,26
 922 1740 922 1740 922 1794 c 0,27,28
 922 1830 922 1830 936 1857 c 128,-1,29
 950 1884 950 1884 977 1899 c 128,-1,30
 1004 1914 1004 1914 1041 1914 c 0,14,15
1243 716 m 1,31,-1
 1223 548 l 1,32,33
 1194 276 1194 276 1041.5 129 c 128,-1,34
 889 -18 889 -18 627 -18 c 0,35,36
 403 -18 403 -18 275.5 93.5 c 128,-1,37
 148 205 148 205 148 410 c 0,38,39
 148 472 148 472 157 529 c 1,40,-1
 184 729 l 1,41,-1
 271 1460 l 1,42,-1
 491 1460 l 1,43,-1
 369 559 l 2,44,45
 362 504 362 504 362 462 c 0,46,47
 362 175 362 175 644 175 c 0,48,49
 974 175 974 175 1016 536 c 2,50,-1
 1121 1460 l 1,51,-1
 1343 1460 l 1,52,-1
 1243 716 l 1,31,-1
EndSplineSet
Position2: "'cpsp' Capital Spacing lookup 0 subtable" dx=16 dy=0 dh=33 dv=0
EndChar

StartChar: Yacute
Encoding: 221 221 159
Width: 1176
GlyphClass: 2
Flags: W
AnchorPoint: "Anchor-1" 0 0 basechar 0
AnchorPoint: "Anchor-0" 707 1459 basechar 0
LayerCount: 2
Fore
SplineSet
543 1644 m 1,0,-1
 505 1739 l 1,1,2
 811 1896 811 1896 955 1982 c 1,3,-1
 978 1976 l 1,4,-1
 1035 1846 l 1,5,-1
 1026 1823 l 1,6,7
 858 1749 858 1749 568 1635 c 1,8,-1
 543 1644 l 1,0,-1
673 516 m 1,9,-1
 657 418 l 1,10,-1
 614 0 l 1,11,-1
 388 0 l 1,12,-1
 457 418 l 1,13,-1
 466 518 l 1,14,-1
 141 1460 l 1,15,-1
 373 1460 l 1,16,-1
 391 1371 l 1,17,-1
 594 750 l 1,18,-1
 612 750 l 1,19,-1
 993 1364 l 1,20,-1
 1041 1460 l 1,21,-1
 1278 1460 l 1,22,-1
 673 516 l 1,9,-1
EndSplineSet
Ligature2: "'liga' Standard Ligatures lookup 30 subtable" acute Y
Position2: "'cpsp' Capital Spacing lookup 0 subtable" dx=16 dy=0 dh=33 dv=0
EndChar

StartChar: Thorn
Encoding: 222 222 160
Width: 1181
GlyphClass: 2
Flags: W
LayerCount: 2
Fore
SplineSet
505 1214 m 1,0,-1
 741 1217 l 1,1,2
 934 1217 934 1217 1042 1120.5 c 128,-1,3
 1150 1024 1150 1024 1150 832 c 0,4,5
 1150 709 1150 709 1107.5 602.5 c 128,-1,6
 1065 496 1065 496 988.5 419 c 128,-1,7
 912 342 912 342 798.5 298 c 128,-1,8
 685 254 685 254 548 254 c 2,9,-1
 380 254 l 1,10,-1
 354 0 l 1,11,-1
 132 0 l 1,12,-1
 195 438 l 1,13,-1
 316 1460 l 1,14,-1
 538 1460 l 1,15,-1
 505 1214 l 1,0,-1
397 434 m 1,16,-1
 648 427 l 1,17,18
 708 439 708 439 758 470.5 c 128,-1,19
 808 502 808 502 843.5 550 c 128,-1,20
 879 598 879 598 898.5 662 c 128,-1,21
 918 726 918 726 918 800 c 0,22,23
 918 916 918 916 863 974 c 128,-1,24
 808 1032 808 1032 679 1039 c 1,25,-1
 480 1032 l 1,26,-1
 400 457 l 1,27,-1
 397 434 l 1,16,-1
EndSplineSet
Position2: "'cpsp' Capital Spacing lookup 0 subtable" dx=16 dy=0 dh=33 dv=0
EndChar

StartChar: germandbls
Encoding: 223 223 161
Width: 1284
GlyphClass: 2
Flags: W
LayerCount: 2
Fore
SplineSet
875 803 m 0,0,1
 875 769 875 769 893 737.5 c 128,-1,2
 911 706 911 706 940 679 c 128,-1,3
 969 652 969 652 1004.5 624 c 128,-1,4
 1040 596 1040 596 1075 564.5 c 128,-1,5
 1110 533 1110 533 1139 498 c 128,-1,6
 1168 463 1168 463 1186 415.5 c 128,-1,7
 1204 368 1204 368 1204 314 c 0,8,9
 1204 172 1204 172 1089 78 c 128,-1,10
 974 -16 974 -16 796 -18 c 1,11,12
 657 -4 657 -4 548 57 c 1,13,-1
 596 245 l 1,14,-1
 623 259 l 1,15,16
 673 193 673 193 734 158 c 128,-1,17
 795 123 795 123 857 123 c 0,18,19
 926 123 926 123 971 164.5 c 128,-1,20
 1016 206 1016 206 1016 269 c 0,21,22
 1016 299 1016 299 1001.5 327.5 c 128,-1,23
 987 356 987 356 963.5 379 c 128,-1,24
 940 402 940 402 910.5 428 c 128,-1,25
 881 454 881 454 850 478 c 128,-1,26
 819 502 819 502 789 532.5 c 128,-1,27
 759 563 759 563 735.5 595 c 128,-1,28
 712 627 712 627 698 669.5 c 128,-1,29
 684 712 684 712 684 759 c 0,30,31
 684 816 684 816 699 865.5 c 128,-1,32
 714 915 714 915 737.5 951 c 128,-1,33
 761 987 761 987 790 1019 c 128,-1,34
 819 1051 819 1051 848 1080 c 128,-1,35
 877 1109 877 1109 901 1138.5 c 128,-1,36
 925 1168 925 1168 940 1205.5 c 128,-1,37
 955 1243 955 1243 955 1284 c 0,38,39
 955 1432 955 1432 779 1432 c 0,40,41
 676 1432 676 1432 607.5 1380.5 c 128,-1,42
 539 1329 539 1329 518 1225 c 1,43,-1
 414 457 l 1,44,-1
 345 -20 l 1,45,-1
 336 -266 l 1,46,-1
 121 -282 l 1,47,-1
 221 432 l 1,48,-1
 284 887 l 1,49,-1
 125 887 l 1,50,-1
 113 902 l 1,51,-1
 132 1026 l 1,52,-1
 302 1026 l 1,53,-1
 323 1175 l 1,54,55
 349 1378 349 1378 474 1489.5 c 128,-1,56
 599 1601 599 1601 800 1601 c 0,57,58
 970 1601 970 1601 1061 1526 c 128,-1,59
 1152 1451 1152 1451 1152 1316 c 0,60,61
 1152 1261 1152 1261 1137 1212 c 128,-1,62
 1122 1163 1122 1163 1097.5 1127 c 128,-1,63
 1073 1091 1073 1091 1043 1058.5 c 128,-1,64
 1013 1026 1013 1026 983.5 997 c 128,-1,65
 954 968 954 968 929.5 939.5 c 128,-1,66
 905 911 905 911 890 876 c 128,-1,67
 875 841 875 841 875 803 c 0,0,1
EndSplineSet
Substitution2: "Single Substitution lookup 41 subtable" germandbls.calt
Substitution2: "'case' Case-Sensitive Forms lookup 28 subtable" Germandbls
Substitution2: "'aalt' Access All Alternates lookup 0 subtable" Germandbls
EndChar

StartChar: agrave
Encoding: 224 224 162
Width: 1015
GlyphClass: 2
Flags: W
AnchorPoint: "Anchor-1" 0 0 basechar 0
AnchorPoint: "Anchor-0" 566 1047 basechar 0
LayerCount: 2
Fore
SplineSet
770 1184 m 1,0,-1
 748 1182 l 1,1,2
 565 1303 565 1303 343 1464 c 1,3,-1
 339 1486 l 1,4,-1
 421 1605 l 1,5,-1
 443 1607 l 1,6,7
 588 1467 588 1467 830 1271 c 1,8,-1
 770 1184 l 1,0,-1
920 1052 m 1,9,-1
 807 252 l 1,10,-1
 798 7 l 1,11,-1
 582 -9 l 1,12,-1
 642 405 l 1,13,-1
 614 405 l 1,14,15
 467 149 467 149 295 -18 c 1,16,-1
 259 -18 l 1,17,18
 63 76 63 76 63 347 c 0,19,20
 63 439 63 439 84 530.5 c 128,-1,21
 105 622 105 622 148.5 709 c 128,-1,22
 192 796 192 796 254.5 867.5 c 128,-1,23
 317 939 317 939 406 991 c 128,-1,24
 495 1043 495 1043 601 1063 c 1,25,-1
 612 1063 l 1,26,-1
 764 1009 l 1,27,-1
 898 1067 l 1,28,-1
 920 1052 l 1,9,-1
321 211 m 0,29,30
 341 211 341 211 379.5 248.5 c 128,-1,31
 418 286 418 286 468 355.5 c 128,-1,32
 518 425 518 425 579.5 543 c 128,-1,33
 641 661 641 661 698 803 c 1,34,-1
 698 809 l 1,35,-1
 700 837 l 1,36,-1
 557 891 l 1,37,38
 466 891 466 891 398.5 827 c 128,-1,39
 331 763 331 763 296.5 654.5 c 128,-1,40
 262 546 262 546 262 410 c 0,41,42
 262 354 262 354 267 313 c 128,-1,43
 272 272 272 272 281 251 c 128,-1,44
 290 230 290 230 300 220.5 c 128,-1,45
 310 211 310 211 321 211 c 0,29,30
EndSplineSet
Substitution2: "'case' Case-Sensitive Forms lookup 28 subtable" Agrave
Substitution2: "'aalt' Access All Alternates lookup 0 subtable" Agrave
EndChar

StartChar: aacute
Encoding: 225 225 163
Width: 1015
GlyphClass: 2
Flags: W
AnchorPoint: "Anchor-1" 0 0 basechar 0
AnchorPoint: "Anchor-0" 566 1047 basechar 0
LayerCount: 2
Fore
SplineSet
423 1184 m 1,0,-1
 366 1271 l 1,1,2
 608 1470 608 1470 753 1607 c 1,3,-1
 773 1605 l 1,4,-1
 857 1486 l 1,5,-1
 850 1464 l 1,6,7
 628 1303 628 1303 445 1182 c 1,8,-1
 423 1184 l 1,0,-1
920 1052 m 1,9,-1
 807 252 l 1,10,-1
 798 7 l 1,11,-1
 582 -9 l 1,12,-1
 642 405 l 1,13,-1
 614 405 l 1,14,15
 467 149 467 149 295 -18 c 1,16,-1
 259 -18 l 1,17,18
 63 76 63 76 63 347 c 0,19,20
 63 439 63 439 84 530.5 c 128,-1,21
 105 622 105 622 148.5 709 c 128,-1,22
 192 796 192 796 254.5 867.5 c 128,-1,23
 317 939 317 939 406 991 c 128,-1,24
 495 1043 495 1043 601 1063 c 1,25,-1
 612 1063 l 1,26,-1
 764 1009 l 1,27,-1
 898 1067 l 1,28,-1
 920 1052 l 1,9,-1
321 211 m 0,29,30
 341 211 341 211 379.5 248.5 c 128,-1,31
 418 286 418 286 468 355.5 c 128,-1,32
 518 425 518 425 579.5 543 c 128,-1,33
 641 661 641 661 698 803 c 1,34,-1
 698 809 l 1,35,-1
 700 837 l 1,36,-1
 557 891 l 1,37,38
 466 891 466 891 398.5 827 c 128,-1,39
 331 763 331 763 296.5 654.5 c 128,-1,40
 262 546 262 546 262 410 c 0,41,42
 262 354 262 354 267 313 c 128,-1,43
 272 272 272 272 281 251 c 128,-1,44
 290 230 290 230 300 220.5 c 128,-1,45
 310 211 310 211 321 211 c 0,29,30
EndSplineSet
Substitution2: "'case' Case-Sensitive Forms lookup 28 subtable" Aacute
Substitution2: "'aalt' Access All Alternates lookup 0 subtable" Aacute
EndChar

StartChar: acircumflex
Encoding: 226 226 164
Width: 1015
GlyphClass: 2
Flags: W
AnchorPoint: "Anchor-1" 0 0 basechar 0
AnchorPoint: "Anchor-0" 566 1047 basechar 0
LayerCount: 2
Fore
SplineSet
336 1193 m 1,0,-1
 291 1280 l 1,1,2
 411 1386 411 1386 616 1592 c 1,3,-1
 673 1592 l 1,4,5
 800 1419 800 1419 926 1280 c 1,6,-1
 857 1193 l 1,7,-1
 835 1193 l 1,8,9
 698 1330 698 1330 627 1421 c 1,10,11
 544 1342 544 1342 362 1193 c 1,12,-1
 336 1193 l 1,0,-1
898 1067 m 1,13,-1
 920 1052 l 1,14,-1
 807 252 l 1,15,-1
 798 7 l 1,16,-1
 582 -9 l 1,17,-1
 642 405 l 1,18,-1
 614 405 l 1,19,20
 467 149 467 149 295 -18 c 1,21,-1
 259 -18 l 1,22,23
 63 76 63 76 63 347 c 0,24,25
 63 439 63 439 84 530.5 c 128,-1,26
 105 622 105 622 148.5 709 c 128,-1,27
 192 796 192 796 254.5 867.5 c 128,-1,28
 317 939 317 939 406 991 c 128,-1,29
 495 1043 495 1043 601 1063 c 1,30,-1
 612 1063 l 1,31,-1
 764 1009 l 1,32,-1
 898 1067 l 1,13,-1
321 211 m 0,33,34
 341 211 341 211 379.5 248.5 c 128,-1,35
 418 286 418 286 468 355.5 c 128,-1,36
 518 425 518 425 579.5 543 c 128,-1,37
 641 661 641 661 698 803 c 1,38,-1
 698 809 l 1,39,-1
 700 837 l 1,40,-1
 557 891 l 1,41,42
 466 891 466 891 398.5 827 c 128,-1,43
 331 763 331 763 296.5 654.5 c 128,-1,44
 262 546 262 546 262 410 c 0,45,46
 262 354 262 354 267 313 c 128,-1,47
 272 272 272 272 281 251 c 128,-1,48
 290 230 290 230 300 220.5 c 128,-1,49
 310 211 310 211 321 211 c 0,33,34
EndSplineSet
Substitution2: "'case' Case-Sensitive Forms lookup 28 subtable" Acircumflex
Substitution2: "'aalt' Access All Alternates lookup 0 subtable" Acircumflex
EndChar

StartChar: atilde
Encoding: 227 227 165
Width: 1015
GlyphClass: 2
Flags: W
AnchorPoint: "Anchor-1" 0 0 basechar 0
AnchorPoint: "Anchor-0" 566 1047 basechar 0
LayerCount: 2
Fore
SplineSet
978 1477 m 1,0,-1
 978 1457 l 1,1,-1
 832 1284 l 1,2,-1
 809 1275 l 1,3,4
 768 1280 768 1280 691 1301.5 c 128,-1,5
 614 1323 614 1323 548 1341.5 c 128,-1,6
 482 1360 482 1360 457 1360 c 0,7,8
 446 1360 446 1360 434.5 1354.5 c 128,-1,9
 423 1349 423 1349 409 1336.5 c 128,-1,10
 395 1324 395 1324 384.5 1313.5 c 128,-1,11
 374 1303 374 1303 354.5 1281.5 c 128,-1,12
 335 1260 335 1260 323 1248 c 1,13,-1
 302 1248 l 1,14,-1
 234 1316 l 1,15,-1
 234 1336 l 1,16,-1
 380 1510 l 1,17,-1
 405 1516 l 1,18,19
 447 1512 447 1512 524 1491.5 c 128,-1,20
 601 1471 601 1471 667 1453.5 c 128,-1,21
 733 1436 733 1436 757 1436 c 0,22,23
 768 1436 768 1436 779 1441 c 128,-1,24
 790 1446 790 1446 805 1458.5 c 128,-1,25
 820 1471 820 1471 829 1480 c 128,-1,26
 838 1489 838 1489 859.5 1512 c 128,-1,27
 881 1535 881 1535 891 1546 c 1,28,-1
 911 1546 l 1,29,-1
 978 1477 l 1,0,-1
898 1067 m 1,30,-1
 920 1052 l 1,31,-1
 807 252 l 1,32,-1
 798 7 l 1,33,-1
 582 -9 l 1,34,-1
 642 405 l 1,35,-1
 614 405 l 1,36,37
 467 149 467 149 295 -18 c 1,38,-1
 259 -18 l 1,39,40
 63 76 63 76 63 347 c 0,41,42
 63 439 63 439 84 530.5 c 128,-1,43
 105 622 105 622 148.5 709 c 128,-1,44
 192 796 192 796 254.5 867.5 c 128,-1,45
 317 939 317 939 406 991 c 128,-1,46
 495 1043 495 1043 601 1063 c 1,47,-1
 612 1063 l 1,48,-1
 764 1009 l 1,49,-1
 898 1067 l 1,30,-1
321 211 m 0,50,51
 341 211 341 211 379.5 248.5 c 128,-1,52
 418 286 418 286 468 355.5 c 128,-1,53
 518 425 518 425 579.5 543 c 128,-1,54
 641 661 641 661 698 803 c 1,55,-1
 698 809 l 1,56,-1
 700 837 l 1,57,-1
 557 891 l 1,58,59
 466 891 466 891 398.5 827 c 128,-1,60
 331 763 331 763 296.5 654.5 c 128,-1,61
 262 546 262 546 262 410 c 0,62,63
 262 354 262 354 267 313 c 128,-1,64
 272 272 272 272 281 251 c 128,-1,65
 290 230 290 230 300 220.5 c 128,-1,66
 310 211 310 211 321 211 c 0,50,51
EndSplineSet
Substitution2: "'case' Case-Sensitive Forms lookup 28 subtable" Atilde
Substitution2: "'aalt' Access All Alternates lookup 0 subtable" Atilde
EndChar

StartChar: adieresis
Encoding: 228 228 166
Width: 1015
GlyphClass: 2
Flags: W
AnchorPoint: "Anchor-1" 0 0 basechar 0
AnchorPoint: "Anchor-0" 566 1047 basechar 0
LayerCount: 2
Fore
SplineSet
418 1273 m 0,0,1
 364 1273 364 1273 335 1302 c 128,-1,2
 306 1331 306 1331 306 1386 c 0,3,4
 306 1423 306 1423 320.5 1450 c 128,-1,5
 335 1477 335 1477 362.5 1492 c 128,-1,6
 390 1507 390 1507 427 1507 c 0,7,8
 452 1507 452 1507 472 1499 c 128,-1,9
 492 1491 492 1491 505.5 1476 c 128,-1,10
 519 1461 519 1461 526.5 1440.5 c 128,-1,11
 534 1420 534 1420 534 1395 c 0,12,13
 534 1339 534 1339 502.5 1306 c 128,-1,14
 471 1273 471 1273 418 1273 c 0,0,1
794 1271 m 0,15,16
 758 1271 758 1271 732.5 1284.5 c 128,-1,17
 707 1298 707 1298 694.5 1323.5 c 128,-1,18
 682 1349 682 1349 682 1384 c 0,19,20
 682 1440 682 1440 713 1472.5 c 128,-1,21
 744 1505 744 1505 800 1505 c 0,22,23
 850 1505 850 1505 878.5 1474.5 c 128,-1,24
 907 1444 907 1444 907 1393 c 0,25,26
 907 1336 907 1336 876.5 1303.5 c 128,-1,27
 846 1271 846 1271 794 1271 c 0,15,16
920 1052 m 1,28,-1
 807 252 l 1,29,-1
 798 7 l 1,30,-1
 582 -9 l 1,31,-1
 642 405 l 1,32,-1
 614 405 l 1,33,34
 467 149 467 149 295 -18 c 1,35,-1
 259 -18 l 1,36,37
 63 76 63 76 63 347 c 0,38,39
 63 439 63 439 84 530.5 c 128,-1,40
 105 622 105 622 148.5 709 c 128,-1,41
 192 796 192 796 254.5 867.5 c 128,-1,42
 317 939 317 939 406 991 c 128,-1,43
 495 1043 495 1043 601 1063 c 1,44,-1
 612 1063 l 1,45,-1
 764 1009 l 1,46,-1
 898 1067 l 1,47,-1
 920 1052 l 1,28,-1
321 211 m 0,48,49
 341 211 341 211 379.5 248.5 c 128,-1,50
 418 286 418 286 468 355.5 c 128,-1,51
 518 425 518 425 579.5 543 c 128,-1,52
 641 661 641 661 698 803 c 1,53,-1
 698 809 l 1,54,-1
 700 837 l 1,55,-1
 557 891 l 1,56,57
 466 891 466 891 398.5 827 c 128,-1,58
 331 763 331 763 296.5 654.5 c 128,-1,59
 262 546 262 546 262 410 c 0,60,61
 262 354 262 354 267 313 c 128,-1,62
 272 272 272 272 281 251 c 128,-1,63
 290 230 290 230 300 220.5 c 128,-1,64
 310 211 310 211 321 211 c 0,48,49
EndSplineSet
Substitution2: "'case' Case-Sensitive Forms lookup 28 subtable" Adieresis
Substitution2: "'aalt' Access All Alternates lookup 0 subtable" Adieresis
EndChar

StartChar: aring
Encoding: 229 229 167
Width: 1015
GlyphClass: 2
Flags: W
AnchorPoint: "Anchor-1" 0 0 basechar 0
AnchorPoint: "Anchor-0" 566 1047 basechar 0
LayerCount: 2
Fore
SplineSet
605 1214 m 0,0,1
 518 1214 518 1214 465 1265 c 128,-1,2
 412 1316 412 1316 412 1410 c 0,3,4
 412 1471 412 1471 435 1515.5 c 128,-1,5
 458 1560 458 1560 504 1583.5 c 128,-1,6
 550 1607 550 1607 614 1607 c 0,7,8
 677 1607 677 1607 721.5 1582.5 c 128,-1,9
 766 1558 766 1558 787.5 1515.5 c 128,-1,10
 809 1473 809 1473 809 1416 c 0,11,12
 809 1321 809 1321 752.5 1267.5 c 128,-1,13
 696 1214 696 1214 605 1214 c 0,0,1
607 1505 m 0,14,15
 560 1505 560 1505 536 1481 c 128,-1,16
 512 1457 512 1457 512 1412 c 0,17,18
 512 1380 512 1380 524 1358 c 128,-1,19
 536 1336 536 1336 558.5 1325 c 128,-1,20
 581 1314 581 1314 612 1314 c 0,21,22
 656 1314 656 1314 682.5 1338 c 128,-1,23
 709 1362 709 1362 709 1407 c 0,24,25
 709 1437 709 1437 698.5 1459 c 128,-1,26
 688 1481 688 1481 664.5 1493 c 128,-1,27
 641 1505 641 1505 607 1505 c 0,14,15
920 1052 m 1,28,-1
 807 252 l 1,29,-1
 798 7 l 1,30,-1
 582 -9 l 1,31,-1
 642 405 l 1,32,-1
 614 405 l 1,33,34
 467 149 467 149 295 -18 c 1,35,-1
 259 -18 l 1,36,37
 63 76 63 76 63 347 c 0,38,39
 63 439 63 439 84 530.5 c 128,-1,40
 105 622 105 622 148.5 709 c 128,-1,41
 192 796 192 796 254.5 867.5 c 128,-1,42
 317 939 317 939 406 991 c 128,-1,43
 495 1043 495 1043 601 1063 c 1,44,-1
 612 1063 l 1,45,-1
 764 1009 l 1,46,-1
 898 1067 l 1,47,-1
 920 1052 l 1,28,-1
321 211 m 0,48,49
 341 211 341 211 379.5 248.5 c 128,-1,50
 418 286 418 286 468 355.5 c 128,-1,51
 518 425 518 425 579.5 543 c 128,-1,52
 641 661 641 661 698 803 c 1,53,-1
 698 809 l 1,54,-1
 700 837 l 1,55,-1
 557 891 l 1,56,57
 466 891 466 891 398.5 827 c 128,-1,58
 331 763 331 763 296.5 654.5 c 128,-1,59
 262 546 262 546 262 410 c 0,60,61
 262 354 262 354 267 313 c 128,-1,62
 272 272 272 272 281 251 c 128,-1,63
 290 230 290 230 300 220.5 c 128,-1,64
 310 211 310 211 321 211 c 0,48,49
EndSplineSet
Substitution2: "'case' Case-Sensitive Forms lookup 28 subtable" Aring
Substitution2: "'aalt' Access All Alternates lookup 0 subtable" Aring
EndChar

StartChar: ae
Encoding: 230 230 168
Width: 1415
GlyphClass: 2
Flags: W
AnchorPoint: "Anchor-1" 1416 0 basechar 0
AnchorPoint: "Anchor-0" 809 1047 basechar 0
LayerCount: 2
Fore
SplineSet
629 1063 m 1,0,-1
 885 973 l 1,1,2
 1007 1062 1007 1062 1162 1069 c 1,3,-1
 1187 1067 l 1,4,5
 1285 1050 1285 1050 1339 994.5 c 128,-1,6
 1393 939 1393 939 1393 846 c 0,7,8
 1393 757 1393 757 1335.5 679.5 c 128,-1,9
 1278 602 1278 602 1153 531 c 128,-1,10
 1028 460 1028 460 832 395 c 1,11,-1
 832 371 l 1,12,13
 839 262 839 262 872.5 211.5 c 128,-1,14
 906 161 906 161 970 161 c 0,15,16
 1044 161 1044 161 1116.5 217.5 c 128,-1,17
 1189 274 1189 274 1234 362 c 1,18,-1
 1267 360 l 1,19,-1
 1336 264 l 1,20,21
 1170 35 1170 35 968 -16 c 1,22,-1
 939 -16 l 1,23,24
 776 1 776 1 704.5 94 c 128,-1,25
 633 187 633 187 629 362 c 1,26,-1
 629 364 l 1,27,-1
 625 377 l 1,28,29
 482 146 482 146 312 -18 c 1,30,-1
 275 -18 l 1,31,32
 78 75 78 75 78 347 c 0,33,34
 78 413 78 413 88.5 478.5 c 128,-1,35
 99 544 99 544 121 609 c 128,-1,36
 143 674 143 674 175 734 c 128,-1,37
 207 794 207 794 252 847.5 c 128,-1,38
 297 901 297 901 351 943.5 c 128,-1,39
 405 986 405 986 473.5 1017.5 c 128,-1,40
 542 1049 542 1049 618 1063 c 1,41,-1
 629 1063 l 1,0,-1
1102 916 m 0,42,43
 999 916 999 916 928.5 817 c 128,-1,44
 858 718 858 718 837 546 c 1,45,46
 1202 657 1202 657 1202 830 c 0,47,48
 1202 916 1202 916 1102 916 c 0,42,43
744 827 m 1,49,-1
 575 894 l 1,50,51
 505 894 505 894 447.5 856.5 c 128,-1,52
 390 819 390 819 352 753.5 c 128,-1,53
 314 688 314 688 293.5 600.5 c 128,-1,54
 273 513 273 513 273 412 c 0,55,56
 273 355 273 355 278.5 313.5 c 128,-1,57
 284 272 284 272 293.5 250 c 128,-1,58
 303 228 303 228 313.5 218.5 c 128,-1,59
 324 209 324 209 336 209 c 0,60,61
 355 209 355 209 391.5 243 c 128,-1,62
 428 277 428 277 475 339.5 c 128,-1,63
 522 402 522 402 581 507 c 128,-1,64
 640 612 640 612 696 737 c 0,65,66
 710 770 710 770 744 827 c 1,49,-1
EndSplineSet
Substitution2: "'case' Case-Sensitive Forms lookup 28 subtable" AE
Substitution2: "'aalt' Access All Alternates lookup 0 subtable" AE
EndChar

StartChar: ccedilla
Encoding: 231 231 169
Width: 774
GlyphClass: 2
Flags: W
AnchorPoint: "Anchor-1" 401 0 basechar 0
AnchorPoint: "Anchor-0" 531 1047 basechar 0
LayerCount: 2
Fore
SplineSet
529 896 m 0,0,1
 411 896 411 896 341 767 c 128,-1,2
 271 638 271 638 271 412 c 0,3,4
 271 279 271 279 300 222.5 c 128,-1,5
 329 166 329 166 393 166 c 0,6,7
 503 166 503 166 607 360 c 1,8,-1
 636 357 l 1,9,-1
 705 266 l 1,10,11
 642 160 642 160 576.5 98.5 c 128,-1,12
 511 37 511 37 427 4 c 1,13,-1
 395 -111 l 1,14,-1
 473 -157 l 1,15,16
 562 -206 562 -206 562 -286 c 0,17,18
 562 -357 562 -357 508 -401 c 128,-1,19
 454 -445 454 -445 366 -445 c 0,20,21
 272 -445 272 -445 193 -375 c 1,22,-1
 214 -273 l 1,23,-1
 225 -269 l 1,24,25
 241 -285 241 -285 255 -296.5 c 128,-1,26
 269 -308 269 -308 284.5 -317.5 c 128,-1,27
 300 -327 300 -327 317.5 -331.5 c 128,-1,28
 335 -336 335 -336 354 -336 c 0,29,30
 386 -336 386 -336 404.5 -322.5 c 128,-1,31
 423 -309 423 -309 423 -282 c 0,32,33
 423 -269 423 -269 416.5 -258.5 c 128,-1,34
 410 -248 410 -248 401 -242 c 128,-1,35
 392 -236 392 -236 377 -230 c 1,36,-1
 266 -163 l 1,37,-1
 304 -9 l 1,38,39
 180 19 180 19 124 105.5 c 128,-1,40
 68 192 68 192 68 371 c 0,41,42
 68 485 68 485 88 586.5 c 128,-1,43
 108 688 108 688 151.5 775.5 c 128,-1,44
 195 863 195 863 258.5 927 c 128,-1,45
 322 991 322 991 413.5 1027 c 128,-1,46
 505 1063 505 1063 616 1063 c 1,47,-1
 773 1013 l 1,48,-1
 787 985 l 1,49,-1
 725 816 l 1,50,-1
 679 811 l 1,51,52
 636 859 636 859 603 877.5 c 128,-1,53
 570 896 570 896 529 896 c 0,0,1
EndSplineSet
Substitution2: "'case' Case-Sensitive Forms lookup 28 subtable" Ccedilla
Substitution2: "'aalt' Access All Alternates lookup 0 subtable" Ccedilla
EndChar

StartChar: egrave
Encoding: 232 232 170
Width: 874
GlyphClass: 2
Flags: W
AnchorPoint: "Anchor-1" 399 0 basechar 0
AnchorPoint: "Anchor-0" 536 1047 basechar 0
LayerCount: 2
Fore
SplineSet
741 1184 m 1,0,-1
 718 1182 l 1,1,2
 548 1295 548 1295 314 1464 c 1,3,-1
 310 1486 l 1,4,-1
 391 1605 l 1,5,-1
 414 1607 l 1,6,7
 565 1462 565 1462 800 1271 c 1,8,-1
 741 1184 l 1,0,-1
700 360 m 1,9,-1
 773 264 l 1,10,11
 610 35 610 35 405 -16 c 1,12,-1
 375 -16 l 1,13,14
 68 7 68 7 68 362 c 0,15,16
 68 561 68 561 133 719 c 128,-1,17
 198 877 198 877 319 969 c 128,-1,18
 440 1061 440 1061 598 1069 c 1,19,-1
 623 1067 l 1,20,21
 721 1050 721 1050 775.5 994.5 c 128,-1,22
 830 939 830 939 830 846 c 0,23,24
 830 712 830 712 696 602 c 128,-1,25
 562 492 562 492 273 397 c 1,26,27
 276 274 276 274 309 217.5 c 128,-1,28
 342 161 342 161 410 161 c 0,29,30
 481 161 481 161 551 217 c 128,-1,31
 621 273 621 273 668 362 c 1,32,-1
 700 360 l 1,9,-1
541 916 m 0,33,34
 438 916 438 916 368.5 817.5 c 128,-1,35
 299 719 299 719 280 548 c 1,36,37
 456 600 456 600 546 672.5 c 128,-1,38
 636 745 636 745 636 830.5 c 128,-1,39
 636 916 636 916 541 916 c 0,33,34
EndSplineSet
Substitution2: "'case' Case-Sensitive Forms lookup 28 subtable" Egrave
Substitution2: "'aalt' Access All Alternates lookup 0 subtable" Egrave
EndChar

StartChar: eacute
Encoding: 233 233 171
Width: 874
GlyphClass: 2
Flags: W
AnchorPoint: "Anchor-1" 399 0 basechar 0
AnchorPoint: "Anchor-0" 536 1047 basechar 0
LayerCount: 2
Fore
SplineSet
393 1184 m 1,0,-1
 336 1271 l 1,1,2
 578 1470 578 1470 723 1607 c 1,3,-1
 744 1605 l 1,4,-1
 827 1486 l 1,5,-1
 820 1464 l 1,6,7
 586 1295 586 1295 416 1182 c 1,8,-1
 393 1184 l 1,0,-1
700 360 m 1,9,-1
 773 264 l 1,10,11
 610 35 610 35 405 -16 c 1,12,-1
 375 -16 l 1,13,14
 68 7 68 7 68 362 c 0,15,16
 68 561 68 561 133 719 c 128,-1,17
 198 877 198 877 319 969 c 128,-1,18
 440 1061 440 1061 598 1069 c 1,19,-1
 623 1067 l 1,20,21
 721 1050 721 1050 775.5 994.5 c 128,-1,22
 830 939 830 939 830 846 c 0,23,24
 830 712 830 712 696 602 c 128,-1,25
 562 492 562 492 273 397 c 1,26,27
 276 274 276 274 309 217.5 c 128,-1,28
 342 161 342 161 410 161 c 0,29,30
 481 161 481 161 551 217 c 128,-1,31
 621 273 621 273 668 362 c 1,32,-1
 700 360 l 1,9,-1
541 916 m 0,33,34
 438 916 438 916 368.5 817.5 c 128,-1,35
 299 719 299 719 280 548 c 1,36,37
 456 600 456 600 546 672.5 c 128,-1,38
 636 745 636 745 636 830.5 c 128,-1,39
 636 916 636 916 541 916 c 0,33,34
EndSplineSet
Substitution2: "'case' Case-Sensitive Forms lookup 28 subtable" Eacute
Substitution2: "'aalt' Access All Alternates lookup 0 subtable" Eacute
EndChar

StartChar: ecircumflex
Encoding: 234 234 172
Width: 874
GlyphClass: 2
Flags: W
AnchorPoint: "Anchor-1" 399 0 basechar 0
AnchorPoint: "Anchor-0" 536 1047 basechar 0
LayerCount: 2
Fore
SplineSet
306 1193 m 1,0,-1
 262 1280 l 1,1,2
 372 1378 372 1378 586 1592 c 1,3,-1
 644 1592 l 1,4,5
 776 1412 776 1412 896 1280 c 1,6,-1
 827 1193 l 1,7,-1
 805 1193 l 1,8,9
 673 1325 673 1325 598 1421 c 1,10,11
 522 1349 522 1349 332 1193 c 1,12,-1
 306 1193 l 1,0,-1
830 846 m 0,13,14
 830 712 830 712 696 602 c 128,-1,15
 562 492 562 492 273 397 c 1,16,17
 276 274 276 274 309 217.5 c 128,-1,18
 342 161 342 161 410 161 c 0,19,20
 481 161 481 161 551 217 c 128,-1,21
 621 273 621 273 668 362 c 1,22,-1
 700 360 l 1,23,-1
 773 264 l 1,24,25
 610 35 610 35 405 -16 c 1,26,-1
 375 -16 l 1,27,28
 68 7 68 7 68 362 c 0,29,30
 68 561 68 561 133 719 c 128,-1,31
 198 877 198 877 319 969 c 128,-1,32
 440 1061 440 1061 598 1069 c 1,33,-1
 623 1067 l 1,34,35
 721 1050 721 1050 775.5 994.5 c 128,-1,36
 830 939 830 939 830 846 c 0,13,14
280 548 m 1,37,38
 456 600 456 600 546 672.5 c 128,-1,39
 636 745 636 745 636 830.5 c 128,-1,40
 636 916 636 916 541 916 c 0,41,42
 438 916 438 916 368.5 817.5 c 128,-1,43
 299 719 299 719 280 548 c 1,37,38
EndSplineSet
Substitution2: "'case' Case-Sensitive Forms lookup 28 subtable" Ecircumflex
Substitution2: "'aalt' Access All Alternates lookup 0 subtable" Ecircumflex
EndChar

StartChar: edieresis
Encoding: 235 235 173
Width: 874
GlyphClass: 2
Flags: W
AnchorPoint: "Anchor-1" 399 0 basechar 0
AnchorPoint: "Anchor-0" 536 1047 basechar 0
LayerCount: 2
Fore
SplineSet
388 1273 m 0,0,1
 334 1273 334 1273 306 1302 c 128,-1,2
 278 1331 278 1331 278 1386 c 0,3,4
 278 1442 278 1442 309.5 1474.5 c 128,-1,5
 341 1507 341 1507 397 1507 c 0,6,7
 446 1507 446 1507 475.5 1476 c 128,-1,8
 505 1445 505 1445 505 1395 c 0,9,10
 505 1339 505 1339 473 1306 c 128,-1,11
 441 1273 441 1273 388 1273 c 0,0,1
770 1505 m 0,12,13
 821 1505 821 1505 849.5 1474.5 c 128,-1,14
 878 1444 878 1444 878 1393 c 0,15,16
 878 1356 878 1356 864 1328 c 128,-1,17
 850 1300 850 1300 824 1285.5 c 128,-1,18
 798 1271 798 1271 764 1271 c 0,19,20
 710 1271 710 1271 681.5 1301 c 128,-1,21
 653 1331 653 1331 653 1384 c 0,22,23
 653 1440 653 1440 683.5 1472.5 c 128,-1,24
 714 1505 714 1505 770 1505 c 0,12,13
830 846 m 0,25,26
 830 712 830 712 696 602 c 128,-1,27
 562 492 562 492 273 397 c 1,28,29
 276 274 276 274 309 217.5 c 128,-1,30
 342 161 342 161 410 161 c 0,31,32
 481 161 481 161 551 217 c 128,-1,33
 621 273 621 273 668 362 c 1,34,-1
 700 360 l 1,35,-1
 773 264 l 1,36,37
 610 35 610 35 405 -16 c 1,38,-1
 375 -16 l 1,39,40
 68 7 68 7 68 362 c 0,41,42
 68 561 68 561 133 719 c 128,-1,43
 198 877 198 877 319 969 c 128,-1,44
 440 1061 440 1061 598 1069 c 1,45,-1
 623 1067 l 1,46,47
 721 1050 721 1050 775.5 994.5 c 128,-1,48
 830 939 830 939 830 846 c 0,25,26
280 548 m 1,49,50
 456 600 456 600 546 672.5 c 128,-1,51
 636 745 636 745 636 830.5 c 128,-1,52
 636 916 636 916 541 916 c 0,53,54
 438 916 438 916 368.5 817.5 c 128,-1,55
 299 719 299 719 280 548 c 1,49,50
EndSplineSet
Substitution2: "'case' Case-Sensitive Forms lookup 28 subtable" Edieresis
Substitution2: "'aalt' Access All Alternates lookup 0 subtable" Edieresis
EndChar

StartChar: igrave
Encoding: 236 236 174
Width: 510
GlyphClass: 2
Flags: W
AnchorPoint: "Anchor-1" 0 0 basechar 0
AnchorPoint: "Anchor-0" 316 1045 basechar 0
LayerCount: 2
Fore
SplineSet
171 1603 m 1,0,-1
 193 1605 l 1,1,2
 344 1460 344 1460 579 1269 c 1,3,-1
 521 1182 l 1,4,-1
 498 1180 l 1,5,6
 316 1301 316 1301 93 1462 c 1,7,-1
 89 1484 l 1,8,-1
 171 1603 l 1,0,-1
312 252 m 1,9,-1
 302 7 l 1,10,-1
 87 -9 l 1,11,-1
 202 811 l 1,12,-1
 211 1041 l 1,13,-1
 425 1057 l 1,14,-1
 312 252 l 1,9,-1
EndSplineSet
Substitution2: "'case' Case-Sensitive Forms lookup 28 subtable" Igrave
Substitution2: "'aalt' Access All Alternates lookup 0 subtable" Igrave
EndChar

StartChar: iacute
Encoding: 237 237 175
Width: 510
GlyphClass: 2
Flags: W
AnchorPoint: "Anchor-1" 0 0 basechar 0
AnchorPoint: "Anchor-0" 316 1045 basechar 0
LayerCount: 2
Fore
SplineSet
523 1603 m 1,0,-1
 607 1484 l 1,1,-1
 601 1462 l 1,2,3
 378 1301 378 1301 195 1180 c 1,4,-1
 173 1182 l 1,5,-1
 115 1269 l 1,6,7
 366 1475 366 1475 503 1605 c 1,8,-1
 523 1603 l 1,0,-1
312 252 m 1,9,-1
 302 7 l 1,10,-1
 87 -9 l 1,11,-1
 202 811 l 1,12,-1
 211 1041 l 1,13,-1
 425 1057 l 1,14,-1
 312 252 l 1,9,-1
EndSplineSet
Substitution2: "'case' Case-Sensitive Forms lookup 28 subtable" Iacute
Substitution2: "'aalt' Access All Alternates lookup 0 subtable" Iacute
EndChar

StartChar: icircumflex
Encoding: 238 238 176
Width: 510
GlyphClass: 2
Flags: W
AnchorPoint: "Anchor-1" 0 0 basechar 0
AnchorPoint: "Anchor-0" 316 1045 basechar 0
LayerCount: 2
Fore
SplineSet
87 1191 m 1,0,-1
 41 1278 l 1,1,2
 161 1384 161 1384 366 1590 c 1,3,-1
 423 1590 l 1,4,5
 555 1410 555 1410 675 1278 c 1,6,-1
 607 1191 l 1,7,-1
 584 1191 l 1,8,9
 452 1323 452 1323 377 1419 c 1,10,11
 301 1347 301 1347 111 1191 c 1,12,-1
 87 1191 l 1,0,-1
312 252 m 1,13,-1
 302 7 l 1,14,-1
 87 -9 l 1,15,-1
 202 811 l 1,16,-1
 211 1041 l 1,17,-1
 425 1057 l 1,18,-1
 312 252 l 1,13,-1
EndSplineSet
Substitution2: "'case' Case-Sensitive Forms lookup 28 subtable" Icircumflex
Substitution2: "'aalt' Access All Alternates lookup 0 subtable" Icircumflex
EndChar

StartChar: idieresis
Encoding: 239 239 177
Width: 510
GlyphClass: 2
Flags: W
AnchorPoint: "Anchor-1" 0 0 basechar 0
AnchorPoint: "Anchor-0" 316 1045 basechar 0
LayerCount: 2
Fore
SplineSet
209 1503 m 0,0,1
 259 1503 259 1503 289 1472.5 c 128,-1,2
 319 1442 319 1442 319 1391 c 0,3,4
 319 1335 319 1335 287 1302 c 128,-1,5
 255 1269 255 1269 202 1269 c 0,6,7
 147 1269 147 1269 119 1298 c 128,-1,8
 91 1327 91 1327 91 1382 c 128,-1,9
 91 1437 91 1437 122.5 1470 c 128,-1,10
 154 1503 154 1503 209 1503 c 0,0,1
516 1503 m 0,11,12
 567 1503 567 1503 596 1472.5 c 128,-1,13
 625 1442 625 1442 625 1391 c 0,14,15
 625 1334 625 1334 593.5 1301.5 c 128,-1,16
 562 1269 562 1269 509 1269 c 0,17,18
 455 1269 455 1269 426 1298 c 128,-1,19
 397 1327 397 1327 397 1382 c 128,-1,20
 397 1437 397 1437 429 1470 c 128,-1,21
 461 1503 461 1503 516 1503 c 0,11,12
312 252 m 1,22,-1
 302 7 l 1,23,-1
 87 -9 l 1,24,-1
 202 811 l 1,25,-1
 211 1041 l 1,26,-1
 425 1057 l 1,27,-1
 312 252 l 1,22,-1
EndSplineSet
Ligature2: "'liga' Standard Ligatures lookup 30 subtable" dieresis i
Substitution2: "'case' Case-Sensitive Forms lookup 28 subtable" Idieresis
Substitution2: "'aalt' Access All Alternates lookup 0 subtable" Idieresis
EndChar

StartChar: eth
Encoding: 240 240 178
Width: 1013
GlyphClass: 2
Flags: W
LayerCount: 2
Fore
SplineSet
909 1464 m 1,0,-1
 677 1345 l 1,1,2
 796 1213 796 1213 855.5 1050.5 c 128,-1,3
 915 888 915 888 914 707 c 1,4,5
 914 498 914 498 852 338 c 128,-1,6
 790 178 790 178 672 85.5 c 128,-1,7
 554 -7 554 -7 393 -20 c 1,8,-1
 371 -18 l 1,9,10
 234 9 234 9 166 96.5 c 128,-1,11
 98 184 98 184 98 352 c 0,12,13
 98 550 98 550 160 704 c 128,-1,14
 222 858 222 858 339.5 948 c 128,-1,15
 457 1038 457 1038 614 1046 c 1,16,-1
 636 1046 l 1,17,-1
 648 1043 l 1,18,19
 596 1156 596 1156 495 1254 c 1,20,-1
 211 1111 l 1,21,-1
 195 1119 l 1,22,-1
 161 1221 l 1,23,-1
 395 1339 l 1,24,25
 298 1410 298 1410 154 1475 c 1,26,-1
 159 1503 l 1,27,-1
 306 1607 l 1,28,-1
 321 1607 l 1,29,30
 458 1542 458 1542 584 1436 c 1,31,-1
 855 1573 l 1,32,-1
 872 1566 l 1,33,-1
 909 1464 l 1,0,-1
423 139 m 0,34,35
 520 139 520 139 586.5 207.5 c 128,-1,36
 653 276 653 276 685 399 c 128,-1,37
 717 522 717 522 718 694 c 0,38,39
 718 764 718 764 707 844 c 1,40,41
 667 902 667 902 586 902 c 0,42,43
 489 902 489 902 422 834 c 128,-1,44
 355 766 355 766 323 644 c 128,-1,45
 291 522 291 522 291 352 c 0,46,47
 291 275 291 275 304.5 228.5 c 128,-1,48
 318 182 318 182 347 160.5 c 128,-1,49
 376 139 376 139 423 139 c 0,34,35
EndSplineSet
Substitution2: "'case' Case-Sensitive Forms lookup 28 subtable" Eth
Substitution2: "'aalt' Access All Alternates lookup 0 subtable" Eth
EndChar

StartChar: ntilde
Encoding: 241 241 179
Width: 1083
GlyphClass: 2
Flags: W
AnchorPoint: "Anchor-1" 483 0 basechar 0
AnchorPoint: "Anchor-0" 611 1045 basechar 0
LayerCount: 2
Fore
SplineSet
1023 1475 m 1,0,-1
 1023 1455 l 1,1,-1
 878 1282 l 1,2,-1
 855 1273 l 1,3,4
 804 1279 804 1279 668 1318.5 c 128,-1,5
 532 1358 532 1358 503 1358 c 0,6,7
 492 1358 492 1358 480.5 1352.5 c 128,-1,8
 469 1347 469 1347 454.5 1334.5 c 128,-1,9
 440 1322 440 1322 429.5 1311 c 128,-1,10
 419 1300 419 1300 399.5 1279 c 128,-1,11
 380 1258 380 1258 369 1245 c 1,12,-1
 347 1245 l 1,13,-1
 280 1314 l 1,14,-1
 280 1334 l 1,15,-1
 425 1507 l 1,16,-1
 451 1514 l 1,17,18
 501 1508 501 1508 638 1471 c 128,-1,19
 775 1434 775 1434 803 1434 c 0,20,21
 812 1434 812 1434 822.5 1438.5 c 128,-1,22
 833 1443 833 1443 841.5 1448.5 c 128,-1,23
 850 1454 850 1454 862.5 1466.5 c 128,-1,24
 875 1479 875 1479 884 1488 c 128,-1,25
 893 1497 893 1497 909.5 1515 c 128,-1,26
 926 1533 926 1533 937 1544 c 1,27,-1
 957 1544 l 1,28,-1
 1023 1475 l 1,0,-1
750 1059 m 1,29,-1
 775 1059 l 1,30,31
 863 1041 863 1041 920 987.5 c 128,-1,32
 977 934 977 934 976 855 c 1,33,-1
 973 825 l 1,34,-1
 880 250 l 1,35,-1
 870 7 l 1,36,-1
 648 -9 l 1,37,-1
 768 741 l 1,38,-1
 770 766 l 1,39,40
 770 795 770 795 761 810 c 128,-1,41
 752 825 752 825 729 825 c 0,42,43
 666 825 666 825 557.5 675.5 c 128,-1,44
 449 526 449 526 314 243 c 1,45,-1
 304 7 l 1,46,-1
 87 -9 l 1,47,-1
 204 811 l 1,48,-1
 214 1041 l 1,49,-1
 427 1057 l 1,50,-1
 362 588 l 1,51,-1
 384 588 l 1,52,53
 486 762 486 762 571.5 872.5 c 128,-1,54
 657 983 657 983 750 1059 c 1,29,-1
EndSplineSet
Substitution2: "'case' Case-Sensitive Forms lookup 28 subtable" Ntilde
Substitution2: "'aalt' Access All Alternates lookup 0 subtable" Ntilde
EndChar

StartChar: ograve
Encoding: 242 242 180
Width: 954
GlyphClass: 2
Flags: W
AnchorPoint: "Anchor-1" 0 0 basechar 0
AnchorPoint: "Anchor-0" 563 1045 basechar 0
LayerCount: 2
Fore
SplineSet
418 1603 m 1,0,-1
 441 1605 l 1,1,2
 591 1460 591 1460 827 1269 c 1,3,-1
 768 1182 l 1,4,-1
 746 1180 l 1,5,6
 563 1301 563 1301 341 1462 c 1,7,-1
 336 1484 l 1,8,-1
 418 1603 l 1,0,-1
601 1067 m 1,9,-1
 623 1067 l 1,10,11
 753 1042 753 1042 820 955 c 128,-1,12
 887 868 887 868 887 709 c 0,13,14
 887 499 887 499 825.5 339 c 128,-1,15
 764 179 764 179 646 86 c 128,-1,16
 528 -7 528 -7 366 -20 c 1,17,-1
 343 -18 l 1,18,19
 207 9 207 9 140 97 c 128,-1,20
 73 185 73 185 73 352 c 0,21,22
 73 556 73 556 136 714.5 c 128,-1,23
 199 873 199 873 319 965.5 c 128,-1,24
 439 1058 439 1058 601 1067 c 1,9,-1
557 894 m 0,25,26
 461 894 461 894 397 827.5 c 128,-1,27
 333 761 333 761 303 641.5 c 128,-1,28
 273 522 273 522 273 352 c 0,29,30
 273 315 273 315 276 286 c 128,-1,31
 279 257 279 257 285 234 c 128,-1,32
 291 211 291 211 301 195 c 128,-1,33
 311 179 311 179 325 168.5 c 128,-1,34
 339 158 339 158 356.5 153 c 128,-1,35
 374 148 374 148 397 148 c 0,36,37
 469 148 469 148 523 186 c 128,-1,38
 577 224 577 224 611 296 c 128,-1,39
 645 368 645 368 662 468 c 128,-1,40
 679 568 679 568 679 694 c 0,41,42
 679 802 679 802 651 848 c 128,-1,43
 623 894 623 894 557 894 c 0,25,26
EndSplineSet
Substitution2: "'case' Case-Sensitive Forms lookup 28 subtable" Ograve
Substitution2: "'aalt' Access All Alternates lookup 0 subtable" Ograve
EndChar

StartChar: oacute
Encoding: 243 243 181
Width: 954
GlyphClass: 2
Flags: W
AnchorPoint: "Anchor-1" 0 0 basechar 0
AnchorPoint: "Anchor-0" 563 1045 basechar 0
LayerCount: 2
Fore
SplineSet
770 1603 m 1,0,-1
 855 1484 l 1,1,-1
 848 1462 l 1,2,3
 626 1301 626 1301 443 1180 c 1,4,-1
 421 1182 l 1,5,-1
 364 1269 l 1,6,7
 606 1468 606 1468 750 1605 c 1,8,-1
 770 1603 l 1,0,-1
601 1067 m 1,9,-1
 623 1067 l 1,10,11
 753 1042 753 1042 820 955 c 128,-1,12
 887 868 887 868 887 709 c 0,13,14
 887 499 887 499 825.5 339 c 128,-1,15
 764 179 764 179 646 86 c 128,-1,16
 528 -7 528 -7 366 -20 c 1,17,-1
 343 -18 l 1,18,19
 207 9 207 9 140 97 c 128,-1,20
 73 185 73 185 73 352 c 0,21,22
 73 556 73 556 136 714.5 c 128,-1,23
 199 873 199 873 319 965.5 c 128,-1,24
 439 1058 439 1058 601 1067 c 1,9,-1
557 894 m 0,25,26
 461 894 461 894 397 827.5 c 128,-1,27
 333 761 333 761 303 641.5 c 128,-1,28
 273 522 273 522 273 352 c 0,29,30
 273 315 273 315 276 286 c 128,-1,31
 279 257 279 257 285 234 c 128,-1,32
 291 211 291 211 301 195 c 128,-1,33
 311 179 311 179 325 168.5 c 128,-1,34
 339 158 339 158 356.5 153 c 128,-1,35
 374 148 374 148 397 148 c 0,36,37
 469 148 469 148 523 186 c 128,-1,38
 577 224 577 224 611 296 c 128,-1,39
 645 368 645 368 662 468 c 128,-1,40
 679 568 679 568 679 694 c 0,41,42
 679 802 679 802 651 848 c 128,-1,43
 623 894 623 894 557 894 c 0,25,26
EndSplineSet
Substitution2: "'case' Case-Sensitive Forms lookup 28 subtable" Oacute
Substitution2: "'aalt' Access All Alternates lookup 0 subtable" Oacute
EndChar

StartChar: ocircumflex
Encoding: 244 244 182
Width: 954
GlyphClass: 2
Flags: W
AnchorPoint: "Anchor-1" 0 0 basechar 0
AnchorPoint: "Anchor-0" 563 1045 basechar 0
LayerCount: 2
Fore
SplineSet
334 1191 m 1,0,-1
 289 1278 l 1,1,2
 408 1384 408 1384 614 1590 c 1,3,-1
 670 1590 l 1,4,5
 802 1410 802 1410 922 1278 c 1,6,-1
 855 1191 l 1,7,-1
 832 1191 l 1,8,9
 696 1328 696 1328 625 1419 c 1,10,11
 542 1340 542 1340 360 1191 c 1,12,-1
 334 1191 l 1,0,-1
601 1067 m 1,13,-1
 623 1067 l 1,14,15
 753 1042 753 1042 820 955 c 128,-1,16
 887 868 887 868 887 709 c 0,17,18
 887 499 887 499 825.5 339 c 128,-1,19
 764 179 764 179 646 86 c 128,-1,20
 528 -7 528 -7 366 -20 c 1,21,-1
 343 -18 l 1,22,23
 207 9 207 9 140 97 c 128,-1,24
 73 185 73 185 73 352 c 0,25,26
 73 556 73 556 136 714.5 c 128,-1,27
 199 873 199 873 319 965.5 c 128,-1,28
 439 1058 439 1058 601 1067 c 1,13,-1
557 894 m 0,29,30
 461 894 461 894 397 827.5 c 128,-1,31
 333 761 333 761 303 641.5 c 128,-1,32
 273 522 273 522 273 352 c 0,33,34
 273 315 273 315 276 286 c 128,-1,35
 279 257 279 257 285 234 c 128,-1,36
 291 211 291 211 301 195 c 128,-1,37
 311 179 311 179 325 168.5 c 128,-1,38
 339 158 339 158 356.5 153 c 128,-1,39
 374 148 374 148 397 148 c 0,40,41
 469 148 469 148 523 186 c 128,-1,42
 577 224 577 224 611 296 c 128,-1,43
 645 368 645 368 662 468 c 128,-1,44
 679 568 679 568 679 694 c 0,45,46
 679 802 679 802 651 848 c 128,-1,47
 623 894 623 894 557 894 c 0,29,30
EndSplineSet
Substitution2: "'case' Case-Sensitive Forms lookup 28 subtable" Ocircumflex
Substitution2: "'aalt' Access All Alternates lookup 0 subtable" Ocircumflex
EndChar

StartChar: otilde
Encoding: 245 245 183
Width: 954
GlyphClass: 2
Flags: W
AnchorPoint: "Anchor-1" 0 0 basechar 0
AnchorPoint: "Anchor-0" 563 1045 basechar 0
LayerCount: 2
Fore
SplineSet
976 1475 m 1,0,-1
 976 1455 l 1,1,-1
 830 1282 l 1,2,-1
 807 1273 l 1,3,4
 765 1278 765 1278 688.5 1299 c 128,-1,5
 612 1320 612 1320 546 1339 c 128,-1,6
 480 1358 480 1358 455 1358 c 0,7,8
 444 1358 444 1358 432.5 1352.5 c 128,-1,9
 421 1347 421 1347 406.5 1334.5 c 128,-1,10
 392 1322 392 1322 382 1311 c 128,-1,11
 372 1300 372 1300 352 1279 c 128,-1,12
 332 1258 332 1258 321 1245 c 1,13,-1
 300 1245 l 1,14,-1
 232 1314 l 1,15,-1
 232 1334 l 1,16,-1
 377 1507 l 1,17,-1
 402 1514 l 1,18,19
 452 1508 452 1508 589.5 1471 c 128,-1,20
 727 1434 727 1434 755 1434 c 0,21,22
 766 1434 766 1434 777 1438.5 c 128,-1,23
 788 1443 788 1443 802.5 1456 c 128,-1,24
 817 1469 817 1469 826.5 1478 c 128,-1,25
 836 1487 836 1487 857 1510 c 128,-1,26
 878 1533 878 1533 889 1544 c 1,27,-1
 909 1544 l 1,28,-1
 976 1475 l 1,0,-1
601 1067 m 1,29,-1
 623 1067 l 1,30,31
 753 1042 753 1042 820 955 c 128,-1,32
 887 868 887 868 887 709 c 0,33,34
 887 499 887 499 825.5 339 c 128,-1,35
 764 179 764 179 646 86 c 128,-1,36
 528 -7 528 -7 366 -20 c 1,37,-1
 343 -18 l 1,38,39
 207 9 207 9 140 97 c 128,-1,40
 73 185 73 185 73 352 c 0,41,42
 73 556 73 556 136 714.5 c 128,-1,43
 199 873 199 873 319 965.5 c 128,-1,44
 439 1058 439 1058 601 1067 c 1,29,-1
557 894 m 0,45,46
 461 894 461 894 397 827.5 c 128,-1,47
 333 761 333 761 303 641.5 c 128,-1,48
 273 522 273 522 273 352 c 0,49,50
 273 315 273 315 276 286 c 128,-1,51
 279 257 279 257 285 234 c 128,-1,52
 291 211 291 211 301 195 c 128,-1,53
 311 179 311 179 325 168.5 c 128,-1,54
 339 158 339 158 356.5 153 c 128,-1,55
 374 148 374 148 397 148 c 0,56,57
 469 148 469 148 523 186 c 128,-1,58
 577 224 577 224 611 296 c 128,-1,59
 645 368 645 368 662 468 c 128,-1,60
 679 568 679 568 679 694 c 0,61,62
 679 802 679 802 651 848 c 128,-1,63
 623 894 623 894 557 894 c 0,45,46
EndSplineSet
Substitution2: "'case' Case-Sensitive Forms lookup 28 subtable" Otilde
Substitution2: "'aalt' Access All Alternates lookup 0 subtable" Otilde
EndChar

StartChar: odieresis
Encoding: 246 246 184
Width: 954
GlyphClass: 2
Flags: W
AnchorPoint: "Anchor-1" 0 0 basechar 0
AnchorPoint: "Anchor-0" 563 1045 basechar 0
LayerCount: 2
Fore
SplineSet
425 1505 m 0,0,1
 449 1505 449 1505 469 1496.5 c 128,-1,2
 489 1488 489 1488 503 1473.5 c 128,-1,3
 517 1459 517 1459 524.5 1438 c 128,-1,4
 532 1417 532 1417 532 1393 c 0,5,6
 532 1337 532 1337 500.5 1304 c 128,-1,7
 469 1271 469 1271 416 1271 c 0,8,9
 361 1271 361 1271 332.5 1300 c 128,-1,10
 304 1329 304 1329 304 1384 c 0,11,12
 304 1421 304 1421 318.5 1448 c 128,-1,13
 333 1475 333 1475 360.5 1490 c 128,-1,14
 388 1505 388 1505 425 1505 c 0,0,1
798 1503 m 0,15,16
 848 1503 848 1503 876.5 1472.5 c 128,-1,17
 905 1442 905 1442 905 1391 c 0,18,19
 905 1363 905 1363 897 1340 c 128,-1,20
 889 1317 889 1317 874.5 1301.5 c 128,-1,21
 860 1286 860 1286 838.5 1277.5 c 128,-1,22
 817 1269 817 1269 791 1269 c 0,23,24
 764 1269 764 1269 743 1276.5 c 128,-1,25
 722 1284 722 1284 708 1299 c 128,-1,26
 694 1314 694 1314 686.5 1335 c 128,-1,27
 679 1356 679 1356 679 1382 c 0,28,29
 679 1438 679 1438 710.5 1470.5 c 128,-1,30
 742 1503 742 1503 798 1503 c 0,15,16
601 1067 m 1,31,-1
 623 1067 l 1,32,33
 753 1042 753 1042 820 955 c 128,-1,34
 887 868 887 868 887 709 c 0,35,36
 887 499 887 499 825.5 339 c 128,-1,37
 764 179 764 179 646 86 c 128,-1,38
 528 -7 528 -7 366 -20 c 1,39,-1
 343 -18 l 1,40,41
 207 9 207 9 140 97 c 128,-1,42
 73 185 73 185 73 352 c 0,43,44
 73 556 73 556 136 714.5 c 128,-1,45
 199 873 199 873 319 965.5 c 128,-1,46
 439 1058 439 1058 601 1067 c 1,31,-1
557 894 m 0,47,48
 461 894 461 894 397 827.5 c 128,-1,49
 333 761 333 761 303 641.5 c 128,-1,50
 273 522 273 522 273 352 c 0,51,52
 273 315 273 315 276 286 c 128,-1,53
 279 257 279 257 285 234 c 128,-1,54
 291 211 291 211 301 195 c 128,-1,55
 311 179 311 179 325 168.5 c 128,-1,56
 339 158 339 158 356.5 153 c 128,-1,57
 374 148 374 148 397 148 c 0,58,59
 469 148 469 148 523 186 c 128,-1,60
 577 224 577 224 611 296 c 128,-1,61
 645 368 645 368 662 468 c 128,-1,62
 679 568 679 568 679 694 c 0,63,64
 679 802 679 802 651 848 c 128,-1,65
 623 894 623 894 557 894 c 0,47,48
EndSplineSet
Ligature2: "'liga' Standard Ligatures lookup 30 subtable" dieresis o
Substitution2: "'case' Case-Sensitive Forms lookup 28 subtable" Odieresis
Substitution2: "'aalt' Access All Alternates lookup 0 subtable" Odieresis
EndChar

